<?xml version="1.0" encoding="UTF-8" standalone="no"?>
<!-- Created with Inkscape (http://www.inkscape.org/) -->

<svg
   width="57.269367mm"
   height="29.504215mm"
   viewBox="0 0 57.269367 29.504215"
   version="1.1"
   id="svg1321"
   inkscape:version="1.2.1 (9c6d41e410, 2022-07-14)"
   sodipodi:docname="Cl_02.svg"
   xmlns:inkscape="http://www.inkscape.org/namespaces/inkscape"
   xmlns:sodipodi="http://sodipodi.sourceforge.net/DTD/sodipodi-0.dtd"
   xmlns="http://www.w3.org/2000/svg"
   xmlns:svg="http://www.w3.org/2000/svg">
  <sodipodi:namedview
     id="namedview1323"
     pagecolor="#ffffff"
     bordercolor="#000000"
     borderopacity="0.25"
     inkscape:showpageshadow="2"
     inkscape:pageopacity="0.0"
     inkscape:pagecheckerboard="0"
     inkscape:deskcolor="#d1d1d1"
     inkscape:document-units="mm"
     showgrid="false"
     inkscape:zoom="1.1893044"
     inkscape:cx="151.34897"
     inkscape:cy="-52.131313"
     inkscape:window-width="1920"
     inkscape:window-height="1094"
     inkscape:window-x="-11"
     inkscape:window-y="-11"
     inkscape:window-maximized="1"
     inkscape:current-layer="layer1" />
  <defs
     id="defs1318">
    <clipPath
       clipPathUnits="userSpaceOnUse"
       id="clipPath328">
      <path
         d="m 325.387,377.642 h 162.801 v 83.634 H 325.387 Z"
         id="path326" />
    </clipPath>
    <clipPath
       clipPathUnits="userSpaceOnUse"
       id="clipPath334">
      <path
         d="m 0.015,1032.015 h 728.01 V 0.015 H 0.015 Z"
         id="path332" />
    </clipPath>
  </defs>
  <g
     inkscape:label="Capa 1"
     inkscape:groupmode="layer"
     id="layer1"
     transform="translate(-88.403453,-112.35382)">
    <g
       id="g322"
       transform="matrix(0.35277777,0,0,-0.35277777,-26.454131,275.08174)">
      <g
         id="g324"
         clip-path="url(#clipPath328)">
        <g
           id="g330"
           clip-path="url(#clipPath334)">
          <path
             d="m 384.611,397.156 1.65,0.457 -3.305,0.918 3.305,0.919 -3.305,0.918 3.305,0.919 -3.305,0.913 3.305,0.918 -3.305,0.919 3.305,0.918 -3.305,0.919 3.305,0.913 m -1.65,0.462 1.65,-0.462 m -1.65,4.587 v -4.125 m 0,-14.223 v 4.13 m -16.769,2.393 H 356.98 m 10.862,2.161 H 356.98 m 5.428,-6.474 v 4.313 m 0,2.161 v 4.311 m 22.203,25.637 1.65,0.456 -3.305,0.919 3.305,0.918 -3.305,0.919 3.305,0.913 -3.305,0.918 3.305,0.919 -3.305,0.918 3.305,0.919 -3.305,0.918 3.305,0.913 m -1.65,0.462 1.65,-0.462 m -1.65,4.587 v -4.125 m 0,-14.223 v 4.131 m -0.016,-4.351 v -17.842 m 0.038,-25.321 v 9.173 m -22.159,-9.366 v 11.758 m 0.033,21.445 V 405.29 m -22.787,11.931 h 22.677"
             style="fill:none;stroke:#231f20;stroke-width:0.65;stroke-linecap:square;stroke-linejoin:miter;stroke-miterlimit:3.86;stroke-dasharray:none;stroke-opacity:1"
             id="path336" />
          <path
             d="m 386.344,451.37 -1.727,2.981 -1.722,-2.981 z"
             style="fill:none;stroke:#231f20;stroke-width:1.2;stroke-linecap:butt;stroke-linejoin:miter;stroke-miterlimit:3.86;stroke-dasharray:none;stroke-opacity:1"
             id="path338" />
          <path
             d="m 386.344,451.37 -1.727,2.981 -1.722,-2.981 h 3.449"
             style="fill:#231f20;fill-opacity:1;fill-rule:evenodd;stroke:none"
             id="path340" />
          <path
             d="m 384.617,451.095 v -5.368"
             style="fill:none;stroke:#231f20;stroke-width:0.65;stroke-linecap:square;stroke-linejoin:miter;stroke-miterlimit:3.86;stroke-dasharray:none;stroke-opacity:1"
             id="path342" />
          <text
             xml:space="preserve"
             transform="matrix(1,0,0,-1,388.8682,450.2476)"
             style="font-style:italic;font-variant:normal;font-size:9px;font-family:'Times New Roman';-inkscape-font-specification:Times-Italic;writing-mode:lr-tb;fill:#231f20;fill-opacity:1;fill-rule:nonzero;stroke:none"
             id="text346"><tspan
               x="0"
               y="0"
               id="tspan344">V</tspan></text>
          <text
             xml:space="preserve"
             transform="matrix(1,0,0,-1,394.3671,447.7476)"
             style="font-style:italic;font-variant:normal;font-size:6.5px;font-family:'Times New Roman';-inkscape-font-specification:Times-Italic;writing-mode:lr-tb;fill:#231f20;fill-opacity:1;fill-rule:nonzero;stroke:none"
             id="text350"><tspan
               x="0"
               y="0"
               id="tspan348">S</tspan></text>
          <text
             xml:space="preserve"
             transform="matrix(1,0,0,-1,390.2598,398.1846)"
             style="font-style:italic;font-variant:normal;font-size:9px;font-family:'Times New Roman';-inkscape-font-specification:Times-Italic;writing-mode:lr-tb;fill:#231f20;fill-opacity:1;fill-rule:nonzero;stroke:none"
             id="text354"><tspan
               x="0"
               y="0"
               id="tspan352">R</tspan></text>
          <text
             xml:space="preserve"
             transform="matrix(1,0,0,-1,395.7587,395.6846)"
             style="font-variant:normal;font-weight:normal;font-size:6.5px;font-family:'Times New Roman';-inkscape-font-specification:Times-Roman;writing-mode:lr-tb;fill:#231f20;fill-opacity:1;fill-rule:nonzero;stroke:none"
             id="text358"><tspan
               x="0 4.6929998"
               y="0"
               sodipodi:role="line"
               id="tspan356">ON</tspan></text>
          <text
             xml:space="preserve"
             transform="matrix(1,0,0,-1,390.2598,434.3745)"
             style="font-style:italic;font-variant:normal;font-size:9px;font-family:'Times New Roman';-inkscape-font-specification:Times-Italic;writing-mode:lr-tb;fill:#231f20;fill-opacity:1;fill-rule:nonzero;stroke:none"
             id="text362"><tspan
               x="0"
               y="0"
               id="tspan360">R</tspan></text>
          <text
             xml:space="preserve"
             transform="matrix(1,0,0,-1,395.7587,431.8745)"
             style="font-style:italic;font-variant:normal;font-size:6.5px;font-family:'Times New Roman';-inkscape-font-specification:Times-Italic;writing-mode:lr-tb;fill:#231f20;fill-opacity:1;fill-rule:nonzero;stroke:none"
             id="text366"><tspan
               x="0"
               y="0"
               id="tspan364">L</tspan></text>
          <path
             d="m 434.551,399.532 h -10.862 m 10.862,2.04 h -10.862 m 5.428,-6.121 v 4.081 m 0,2.04 v 4.076 m 25.399,26.917 1.651,0.462 -3.307,0.913 3.307,0.919 -3.307,0.918 3.307,0.919 -3.307,0.918 3.307,0.913 -3.307,0.919 3.307,0.918 -3.307,0.919 3.307,0.918 m -1.651,0.457 1.651,-0.457 m -1.651,4.587 v -4.13 m 0,-14.223 v 4.13 m -0.016,-4.24 v -17.842 m 0.077,-26.582 v 10.329 m -25.504,-9.883 v 7.43 m 0.027,3.784 v -4.076 m 0,25.559 v -11.215 m -22.78,11.281 h 22.671"
             style="fill:none;stroke:#231f20;stroke-width:0.65;stroke-linecap:square;stroke-linejoin:miter;stroke-miterlimit:3.86;stroke-dasharray:none;stroke-opacity:1"
             id="path368" />
          <path
             d="m 456.012,451.947 -1.721,2.987 -1.728,-2.987 z"
             style="fill:none;stroke:#231f20;stroke-width:1.2;stroke-linecap:butt;stroke-linejoin:miter;stroke-miterlimit:3.86;stroke-dasharray:none;stroke-opacity:1"
             id="path370" />
          <path
             d="m 456.012,451.947 -1.721,2.987 -1.728,-2.987 h 3.449"
             style="fill:#231f20;fill-opacity:1;fill-rule:evenodd;stroke:none"
             id="path372" />
          <path
             d="M 454.291,451.672 V 446.31"
             style="fill:none;stroke:#231f20;stroke-width:0.65;stroke-linecap:square;stroke-linejoin:miter;stroke-miterlimit:3.86;stroke-dasharray:none;stroke-opacity:1"
             id="path374" />
          <text
             xml:space="preserve"
             transform="matrix(1,0,0,-1,458.5422,450.8252)"
             style="font-style:italic;font-variant:normal;font-size:9px;font-family:'Times New Roman';-inkscape-font-specification:Times-Italic;writing-mode:lr-tb;fill:#231f20;fill-opacity:1;fill-rule:nonzero;stroke:none"
             id="text378"><tspan
               x="0"
               y="0"
               id="tspan376">V</tspan></text>
          <text
             xml:space="preserve"
             transform="matrix(1,0,0,-1,464.0413,448.3252)"
             style="font-style:italic;font-variant:normal;font-size:6.5px;font-family:'Times New Roman';-inkscape-font-specification:Times-Italic;writing-mode:lr-tb;fill:#231f20;fill-opacity:1;fill-rule:nonzero;stroke:none"
             id="text382"><tspan
               x="0"
               y="0"
               id="tspan380">S</tspan></text>
          <text
             xml:space="preserve"
             transform="matrix(1,0,0,-1,459.3293,434.5122)"
             style="font-style:italic;font-variant:normal;font-size:9px;font-family:'Times New Roman';-inkscape-font-specification:Times-Italic;writing-mode:lr-tb;fill:#231f20;fill-opacity:1;fill-rule:nonzero;stroke:none"
             id="text386"><tspan
               x="0"
               y="0"
               id="tspan384">R</tspan></text>
          <text
             xml:space="preserve"
             transform="matrix(1,0,0,-1,464.8282,432.0122)"
             style="font-style:italic;font-variant:normal;font-size:6.5px;font-family:'Times New Roman';-inkscape-font-specification:Times-Italic;writing-mode:lr-tb;fill:#231f20;fill-opacity:1;fill-rule:nonzero;stroke:none"
             id="text390"><tspan
               x="0"
               y="0"
               id="tspan388">L</tspan></text>
          <path
             d="m 406.32,417.11 h -21.725 m 92.576,1.024 H 454.5 m 23.804,1.545 c -0.653,0 -1.183,-0.573 -1.183,-1.277 0,-0.704 0.53,-1.275 1.183,-1.275 0.653,0 1.182,0.571 1.182,1.275 0,0.704 -0.529,1.277 -1.182,1.277 z m -139.788,-1.254 c -0.653,0 -1.182,-0.572 -1.182,-1.277 0,-0.704 0.529,-1.276 1.182,-1.276 0.653,0 1.182,0.572 1.182,1.276 0,0.705 -0.529,1.277 -1.182,1.277 z m 27.907,-34.364 h -8.25 m 30.321,-0.11 h -7.809"
             style="fill:none;stroke:#231f20;stroke-width:0.65;stroke-linecap:square;stroke-linejoin:miter;stroke-miterlimit:3.86;stroke-dasharray:none;stroke-opacity:1"
             id="path392" />
          <text
             xml:space="preserve"
             transform="matrix(1,0,0,-1,325.3872,424.1172)"
             style="font-style:italic;font-variant:normal;font-size:9px;font-family:'Times New Roman';-inkscape-font-specification:Times-Italic;writing-mode:lr-tb;fill:#231f20;fill-opacity:1;fill-rule:nonzero;stroke:none"
             id="text396"><tspan
               x="0"
               y="0"
               id="tspan394">v</tspan></text>
          <text
             xml:space="preserve"
             transform="matrix(1,0,0,-1,329.3831,421.6172)"
             style="font-variant:normal;font-weight:normal;font-size:6.5px;font-family:'Times New Roman';-inkscape-font-specification:Times-Roman;writing-mode:lr-tb;fill:#231f20;fill-opacity:1;fill-rule:nonzero;stroke:none"
             id="text400"><tspan
               x="0 2.1645 6.8575001"
               y="0"
               sodipodi:role="line"
               id="tspan398">IN1</tspan></text>
          <text
             xml:space="preserve"
             transform="matrix(1,0,0,-1,343.0918,407.2276)"
             style="font-style:italic;font-variant:normal;font-size:9px;font-family:'Times New Roman';-inkscape-font-specification:Times-Italic;writing-mode:lr-tb;fill:#231f20;fill-opacity:1;fill-rule:nonzero;stroke:none"
             id="text404"><tspan
               x="0"
               y="0"
               id="tspan402">C</tspan></text>
          <text
             xml:space="preserve"
             transform="matrix(1,0,0,-1,349.0947,404.7276)"
             style="font-style:italic;font-variant:normal;font-size:6.5px;font-family:'Times New Roman';-inkscape-font-specification:Times-Italic;writing-mode:lr-tb;fill:#231f20;fill-opacity:1;fill-rule:nonzero;stroke:none"
             id="text408"><tspan
               x="0 4.6929998"
               y="0"
               sodipodi:role="line"
               id="tspan406">GS</tspan></text>
          <text
             xml:space="preserve"
             transform="matrix(1,0,0,-1,357.0377,404.7276)"
             style="font-variant:normal;font-weight:normal;font-size:6.5px;font-family:'Times New Roman';-inkscape-font-specification:Times-Roman;writing-mode:lr-tb;fill:#231f20;fill-opacity:1;fill-rule:nonzero;stroke:none"
             id="text412"><tspan
               x="0"
               y="0"
               id="tspan410">1</tspan></text>
          <text
             xml:space="preserve"
             transform="matrix(1,0,0,-1,416.0273,422.9458)"
             style="font-style:italic;font-variant:normal;font-size:9px;font-family:'Times New Roman';-inkscape-font-specification:Times-Italic;writing-mode:lr-tb;fill:#231f20;fill-opacity:1;fill-rule:nonzero;stroke:none"
             id="text416"><tspan
               x="0"
               y="0"
               id="tspan414">v</tspan></text>
          <text
             xml:space="preserve"
             transform="matrix(1,0,0,-1,420.0233,420.4458)"
             style="font-variant:normal;font-weight:normal;font-size:6.5px;font-family:'Times New Roman';-inkscape-font-specification:Times-Roman;writing-mode:lr-tb;fill:#231f20;fill-opacity:1;fill-rule:nonzero;stroke:none"
             id="text420"><tspan
               x="0 4.6929998 9.3859997 13.3575"
               y="0"
               sodipodi:role="line"
               id="tspan418">OUT1</tspan></text>
          <text
             xml:space="preserve"
             transform="matrix(1,0,0,-1,408.3218,406.2637)"
             style="font-style:italic;font-variant:normal;font-size:9px;font-family:'Times New Roman';-inkscape-font-specification:Times-Italic;writing-mode:lr-tb;fill:#231f20;fill-opacity:1;fill-rule:nonzero;stroke:none"
             id="text424"><tspan
               x="0"
               y="0"
               id="tspan422">C</tspan></text>
          <text
             xml:space="preserve"
             transform="matrix(1,0,0,-1,414.3247,403.7637)"
             style="font-style:italic;font-variant:normal;font-size:6.5px;font-family:'Times New Roman';-inkscape-font-specification:Times-Italic;writing-mode:lr-tb;fill:#231f20;fill-opacity:1;fill-rule:nonzero;stroke:none"
             id="text428"><tspan
               x="0 4.6929998"
               y="0"
               sodipodi:role="line"
               id="tspan426">GS</tspan></text>
          <text
             xml:space="preserve"
             transform="matrix(1,0,0,-1,422.2677,403.7637)"
             style="font-variant:normal;font-weight:normal;font-size:6.5px;font-family:'Times New Roman';-inkscape-font-specification:Times-Roman;writing-mode:lr-tb;fill:#231f20;fill-opacity:1;fill-rule:nonzero;stroke:none"
             id="text432"><tspan
               x="0"
               y="0"
               id="tspan430">2</tspan></text>
          <text
             xml:space="preserve"
             transform="matrix(1,0,0,-1,467.5852,423.4571)"
             style="font-style:italic;font-variant:normal;font-size:9px;font-family:'Times New Roman';-inkscape-font-specification:Times-Italic;writing-mode:lr-tb;fill:#231f20;fill-opacity:1;fill-rule:nonzero;stroke:none"
             id="text436"><tspan
               x="0"
               y="0"
               id="tspan434">v</tspan></text>
          <text
             xml:space="preserve"
             transform="matrix(1,0,0,-1,471.5812,420.9571)"
             style="font-variant:normal;font-weight:normal;font-size:6.5px;font-family:'Times New Roman';-inkscape-font-specification:Times-Roman;writing-mode:lr-tb;fill:#231f20;fill-opacity:1;fill-rule:nonzero;stroke:none"
             id="text440"><tspan
               x="0 4.6929998 9.3859997 13.3575"
               y="0"
               sodipodi:role="line"
               id="tspan438">OUT2</tspan></text>
          <path
             d="m 434.072,384.006 h -9.569 m 33.769,0.33 -7.479,-0.11 m -78.491,76.725 h -2.062 v -2.063"
             style="fill:none;stroke:#231f20;stroke-width:0.65;stroke-linecap:square;stroke-linejoin:miter;stroke-miterlimit:3.86;stroke-dasharray:none;stroke-opacity:1"
             id="path442" />
          <path
             d="M 444.831,460.951 H 372.302"
             style="fill:none;stroke:#231f20;stroke-width:0.65;stroke-linecap:square;stroke-linejoin:miter;stroke-miterlimit:3.86;stroke-dasharray:7.465, 6.469;stroke-dashoffset:7.465;stroke-opacity:1"
             id="path444" />
          <path
             d="m 446.898,458.888 v 2.063 h -2.067"
             style="fill:none;stroke:#231f20;stroke-width:0.65;stroke-linecap:square;stroke-linejoin:miter;stroke-miterlimit:3.86;stroke-dasharray:none;stroke-opacity:1"
             id="path446" />
          <path
             d="m 446.898,380.034 v 78.854"
             style="fill:none;stroke:#231f20;stroke-width:0.65;stroke-linecap:square;stroke-linejoin:miter;stroke-miterlimit:3.86;stroke-dasharray:7.34, 6.361;stroke-dashoffset:7.34;stroke-opacity:1"
             id="path448" />
          <path
             d="m 444.836,377.967 h 2.062 v 2.067"
             style="fill:none;stroke:#231f20;stroke-width:0.65;stroke-linecap:square;stroke-linejoin:miter;stroke-miterlimit:3.86;stroke-dasharray:none;stroke-opacity:1"
             id="path450" />
          <path
             d="m 372.302,377.967 h 72.534"
             style="fill:none;stroke:#231f20;stroke-width:0.65;stroke-linecap:square;stroke-linejoin:miter;stroke-miterlimit:3.86;stroke-dasharray:7.465, 6.469;stroke-dashoffset:7.465;stroke-opacity:1"
             id="path452" />
          <path
             d="m 370.24,380.029 v -2.062 h 2.062"
             style="fill:none;stroke:#231f20;stroke-width:0.65;stroke-linecap:square;stroke-linejoin:miter;stroke-miterlimit:3.86;stroke-dasharray:none;stroke-opacity:1"
             id="path454" />
          <path
             d="M 370.24,458.888 V 380.029"
             style="fill:none;stroke:#231f20;stroke-width:0.65;stroke-linecap:square;stroke-linejoin:miter;stroke-miterlimit:3.86;stroke-dasharray:7.34, 6.361;stroke-dashoffset:7.34;stroke-opacity:1"
             id="path456" />
        </g>
      </g>
    </g>
  </g>
</svg>
