<?xml version="1.0" encoding="UTF-8" standalone="no"?>
<!-- Created with Inkscape (http://www.inkscape.org/) -->

<svg
   width="73.743027mm"
   height="43.795948mm"
   viewBox="0 0 73.743027 43.795948"
   version="1.1"
   id="svg1798"
   inkscape:version="1.2.1 (9c6d41e410, 2022-07-14)"
   sodipodi:docname="CL_03.svg"
   xmlns:inkscape="http://www.inkscape.org/namespaces/inkscape"
   xmlns:sodipodi="http://sodipodi.sourceforge.net/DTD/sodipodi-0.dtd"
   xmlns="http://www.w3.org/2000/svg"
   xmlns:svg="http://www.w3.org/2000/svg">
  <sodipodi:namedview
     id="namedview1800"
     pagecolor="#ffffff"
     bordercolor="#000000"
     borderopacity="0.25"
     inkscape:showpageshadow="2"
     inkscape:pageopacity="0.0"
     inkscape:pagecheckerboard="0"
     inkscape:deskcolor="#d1d1d1"
     inkscape:document-units="mm"
     showgrid="false"
     inkscape:zoom="1.1893044"
     inkscape:cx="1094.7576"
     inkscape:cy="-5.8857934"
     inkscape:window-width="1920"
     inkscape:window-height="1094"
     inkscape:window-x="-11"
     inkscape:window-y="-11"
     inkscape:window-maximized="1"
     inkscape:current-layer="layer1" />
  <defs
     id="defs1795">
    <clipPath
       clipPathUnits="userSpaceOnUse"
       id="clipPath476">
      <path
         d="M 301.887,225.76 H 511.386 V 349.906 H 301.887 Z"
         id="path474" />
    </clipPath>
    <clipPath
       clipPathUnits="userSpaceOnUse"
       id="clipPath482">
      <path
         d="m 0.015,1032.015 h 728.01 V 0.015 H 0.015 Z"
         id="path480" />
    </clipPath>
  </defs>
  <g
     inkscape:label="Capa 1"
     inkscape:groupmode="layer"
     id="layer1"
     transform="translate(-97.785265,-104.70405)">
    <g
       id="g470"
       transform="matrix(0.35277777,0,0,-0.35277777,-8.7820764,228.14311)">
      <g
         id="g472"
         clip-path="url(#clipPath476)">
        <g
           id="g478"
           clip-path="url(#clipPath482)">
          <path
             d="m 473.63,256.589 2.401,0.672 -4.808,1.336 4.808,1.328 -4.808,1.336 4.808,1.336 -4.808,1.336 4.808,1.335 -4.808,1.329 4.808,1.336 -4.808,1.336 4.808,1.335 m -2.401,0.664 2.401,-0.664 m -2.401,6.672 v -6.008 m 0,-20.679 v 6 m -125.991,2.785 h -15.8 m 15.8,3.144 h -15.8 m 7.896,-9.417 v 6.273 m 0,3.144 v 6.271 m 32.296,37.288 2.4,0.664 -4.808,1.336 4.808,1.336 -4.808,1.336 4.808,1.328 -4.808,1.336 4.808,1.336 -4.808,1.336 4.808,1.336 -4.808,1.336 4.808,1.328 m -2.4,0.672 2.4,-0.672 m -2.4,6.672 v -6 m 0,-20.688 v 6.008 m -0.024,-6.328 v -25.952 m -0.048,-36.833 v 13.346 m -32.128,-13.49 v 17.369 m 0.048,30.792 v -17.255 m -33.144,17.351 h 32.984"
             style="fill:none;stroke:#231f20;stroke-width:0.65;stroke-linecap:square;stroke-linejoin:miter;stroke-miterlimit:3.86;stroke-dasharray:none;stroke-opacity:1"
             id="path484" />
          <path
             d="m 374.551,334.749 -2.512,4.336 -2.504,-4.336 z"
             style="fill:none;stroke:#231f20;stroke-width:1.2;stroke-linecap:butt;stroke-linejoin:miter;stroke-miterlimit:3.86;stroke-dasharray:none;stroke-opacity:1"
             id="path486" />
          <path
             d="m 374.551,334.749 -2.512,4.336 -2.504,-4.336 h 5.016"
             style="fill:#231f20;fill-opacity:1;fill-rule:evenodd;stroke:none"
             id="path488" />
          <path
             d="m 372.039,334.349 v -7.808"
             style="fill:none;stroke:#231f20;stroke-width:0.65;stroke-linecap:square;stroke-linejoin:miter;stroke-miterlimit:3.86;stroke-dasharray:none;stroke-opacity:1"
             id="path490" />
          <text
             xml:space="preserve"
             transform="matrix(1,0,0,-1,378.2231,333.1166)"
             style="font-style:italic;font-variant:normal;font-size:9px;font-family:'Times New Roman';-inkscape-font-specification:Times-Italic;writing-mode:lr-tb;fill:#231f20;fill-opacity:1;fill-rule:nonzero;stroke:none"
             id="text494"><tspan
               x="0"
               y="0"
               id="tspan492">V</tspan></text>
          <text
             xml:space="preserve"
             transform="matrix(1,0,0,-1,383.7222,330.6166)"
             style="font-style:italic;font-variant:normal;font-size:6.5px;font-family:'Times New Roman';-inkscape-font-specification:Times-Italic;writing-mode:lr-tb;fill:#231f20;fill-opacity:1;fill-rule:nonzero;stroke:none"
             id="text498"><tspan
               x="0"
               y="0"
               id="tspan496">S</tspan></text>
          <text
             xml:space="preserve"
             transform="matrix(1,0,0,-1,481.8473,258.0849)"
             style="font-style:italic;font-variant:normal;font-size:9px;font-family:'Times New Roman';-inkscape-font-specification:Times-Italic;writing-mode:lr-tb;fill:#231f20;fill-opacity:1;fill-rule:nonzero;stroke:none"
             id="text502"><tspan
               x="0"
               y="0"
               id="tspan500">R</tspan></text>
          <text
             xml:space="preserve"
             transform="matrix(1,0,0,-1,487.3463,255.5849)"
             style="font-variant:normal;font-weight:normal;font-size:6.5px;font-family:'Times New Roman';-inkscape-font-specification:Times-Roman;writing-mode:lr-tb;fill:#231f20;fill-opacity:1;fill-rule:nonzero;stroke:none"
             id="text506"><tspan
               x="0 4.6929998"
               y="0"
               sodipodi:role="line"
               id="tspan504">ON</tspan></text>
          <text
             xml:space="preserve"
             transform="matrix(1,0,0,-1,380.2466,310.0288)"
             style="font-style:italic;font-variant:normal;font-size:9px;font-family:'Times New Roman';-inkscape-font-specification:Times-Italic;writing-mode:lr-tb;fill:#231f20;fill-opacity:1;fill-rule:nonzero;stroke:none"
             id="text510"><tspan
               x="0"
               y="0"
               id="tspan508">R</tspan></text>
          <text
             xml:space="preserve"
             transform="matrix(1,0,0,-1,385.7456,307.5288)"
             style="font-style:italic;font-variant:normal;font-size:6.5px;font-family:'Times New Roman';-inkscape-font-specification:Times-Italic;writing-mode:lr-tb;fill:#231f20;fill-opacity:1;fill-rule:nonzero;stroke:none"
             id="text514"><tspan
               x="0"
               y="0"
               id="tspan512">L</tspan></text>
          <path
             d="m 444.67,259.349 h -15.8 m 15.8,2.968 h -15.8 m 7.897,-8.904 v 5.936 m 0,2.968 v 5.928 m 36.944,39.152 2.4,0.672 -4.809,1.328 4.809,1.336 -4.809,1.336 4.809,1.336 -4.809,1.336 4.809,1.328 -4.809,1.336 4.809,1.336 -4.809,1.336 4.809,1.336 m -2.4,0.664 2.4,-0.664 m -2.4,6.672 v -6.008 m 0,-20.688 v 6.008 m -0.024,-6.168 v -25.953 m -0.288,-38.664 v 15.026 m -36.697,-15.313 v 13.344 m 0.04,3.904 v -5.928 m 0,37.175 v -16.31 m -33.135,16.407 h 32.976"
             style="fill:none;stroke:#231f20;stroke-width:0.65;stroke-linecap:square;stroke-linejoin:miter;stroke-miterlimit:3.86;stroke-dasharray:none;stroke-opacity:1"
             id="path516" />
          <path
             d="m 475.887,335.589 -2.504,4.344 -2.513,-4.344 z"
             style="fill:none;stroke:#231f20;stroke-width:1.2;stroke-linecap:butt;stroke-linejoin:miter;stroke-miterlimit:3.86;stroke-dasharray:none;stroke-opacity:1"
             id="path518" />
          <path
             d="m 475.887,335.589 -2.504,4.344 -2.513,-4.344 h 5.017"
             style="fill:#231f20;fill-opacity:1;fill-rule:evenodd;stroke:none"
             id="path520" />
          <path
             d="m 473.383,335.189 v -7.8"
             style="fill:none;stroke:#231f20;stroke-width:0.65;stroke-linecap:square;stroke-linejoin:miter;stroke-miterlimit:3.86;stroke-dasharray:none;stroke-opacity:1"
             id="path522" />
          <text
             xml:space="preserve"
             transform="matrix(1,0,0,-1,479.5673,333.9565)"
             style="font-style:italic;font-variant:normal;font-size:9px;font-family:'Times New Roman';-inkscape-font-specification:Times-Italic;writing-mode:lr-tb;fill:#231f20;fill-opacity:1;fill-rule:nonzero;stroke:none"
             id="text526"><tspan
               x="0"
               y="0"
               id="tspan524">V</tspan></text>
          <text
             xml:space="preserve"
             transform="matrix(1,0,0,-1,485.0663,331.4565)"
             style="font-style:italic;font-variant:normal;font-size:6.5px;font-family:'Times New Roman';-inkscape-font-specification:Times-Italic;writing-mode:lr-tb;fill:#231f20;fill-opacity:1;fill-rule:nonzero;stroke:none"
             id="text530"><tspan
               x="0"
               y="0"
               id="tspan528">S</tspan></text>
          <text
             xml:space="preserve"
             transform="matrix(1,0,0,-1,480.7113,310.229)"
             style="font-style:italic;font-variant:normal;font-size:9px;font-family:'Times New Roman';-inkscape-font-specification:Times-Italic;writing-mode:lr-tb;fill:#231f20;fill-opacity:1;fill-rule:nonzero;stroke:none"
             id="text534"><tspan
               x="0"
               y="0"
               id="tspan532">R</tspan></text>
          <text
             xml:space="preserve"
             transform="matrix(1,0,0,-1,486.2103,307.709)"
             style="font-style:italic;font-variant:normal;font-size:6.5px;font-family:'Times New Roman';-inkscape-font-specification:Times-Italic;writing-mode:lr-tb;fill:#231f20;fill-opacity:1;fill-rule:nonzero;stroke:none"
             id="text538"><tspan
               x="0"
               y="0"
               id="tspan536">L</tspan></text>
          <path
             d="m 403.607,284.917 h -31.6 m 134.655,1.488 h -32.975 m 34.624,2.248 c -0.95,0 -1.72,-0.831 -1.72,-1.856 0,-1.025 0.77,-1.857 1.72,-1.857 0.949,0 1.72,0.832 1.72,1.857 0,1.025 -0.771,1.856 -1.72,1.856 z m -203.328,-1.825 c -0.949,0 -1.72,-0.831 -1.72,-1.854 0,-1.026 0.771,-1.857 1.72,-1.857 0.949,0 1.72,0.831 1.72,1.857 0,1.023 -0.771,1.854 -1.72,1.854 z m 40.592,-49.983 h -12 m 44,-0.161 h -11.36"
             style="fill:none;stroke:#231f20;stroke-width:0.65;stroke-linecap:square;stroke-linejoin:miter;stroke-miterlimit:3.86;stroke-dasharray:none;stroke-opacity:1"
             id="path540" />
          <text
             xml:space="preserve"
             transform="matrix(1,0,0,-1,301.8873,293.6049)"
             style="font-style:italic;font-variant:normal;font-size:9px;font-family:'Times New Roman';-inkscape-font-specification:Times-Italic;writing-mode:lr-tb;fill:#231f20;fill-opacity:1;fill-rule:nonzero;stroke:none"
             id="text544"><tspan
               x="0"
               y="0"
               id="tspan542">v</tspan></text>
          <text
             xml:space="preserve"
             transform="matrix(1,0,0,-1,305.8831,291.1049)"
             style="font-variant:normal;font-weight:normal;font-size:6.5px;font-family:'Times New Roman';-inkscape-font-specification:Times-Roman;writing-mode:lr-tb;fill:#231f20;fill-opacity:1;fill-rule:nonzero;stroke:none"
             id="text548"><tspan
               x="0 2.1645 6.8575001"
               y="0"
               sodipodi:role="line"
               id="tspan546">IN1</tspan></text>
          <text
             xml:space="preserve"
             transform="matrix(1,0,0,-1,309.6392,264.541)"
             style="font-style:italic;font-variant:normal;font-size:9px;font-family:'Times New Roman';-inkscape-font-specification:Times-Italic;writing-mode:lr-tb;fill:#231f20;fill-opacity:1;fill-rule:nonzero;stroke:none"
             id="text552"><tspan
               x="0"
               y="0"
               id="tspan550">C</tspan></text>
          <text
             xml:space="preserve"
             transform="matrix(1,0,0,-1,315.6422,262.041)"
             style="font-style:italic;font-variant:normal;font-size:6.5px;font-family:'Times New Roman';-inkscape-font-specification:Times-Italic;writing-mode:lr-tb;fill:#231f20;fill-opacity:1;fill-rule:nonzero;stroke:none"
             id="text556"><tspan
               x="0 4.6929998"
               y="0"
               sodipodi:role="line"
               id="tspan554">GS</tspan></text>
          <text
             xml:space="preserve"
             transform="matrix(1,0,0,-1,323.5852,262.041)"
             style="font-variant:normal;font-weight:normal;font-size:6.5px;font-family:'Times New Roman';-inkscape-font-specification:Times-Roman;writing-mode:lr-tb;fill:#231f20;fill-opacity:1;fill-rule:nonzero;stroke:none"
             id="text560"><tspan
               x="0"
               y="0"
               id="tspan558">1</tspan></text>
          <text
             xml:space="preserve"
             transform="matrix(1,0,0,-1,417.7273,295.9086)"
             style="font-style:italic;font-variant:normal;font-size:9px;font-family:'Times New Roman';-inkscape-font-specification:Times-Italic;writing-mode:lr-tb;fill:#231f20;fill-opacity:1;fill-rule:nonzero;stroke:none"
             id="text564"><tspan
               x="0"
               y="0"
               id="tspan562">v</tspan></text>
          <text
             xml:space="preserve"
             transform="matrix(1,0,0,-1,421.7233,293.4086)"
             style="font-variant:normal;font-weight:normal;font-size:6.5px;font-family:'Times New Roman';-inkscape-font-specification:Times-Roman;writing-mode:lr-tb;fill:#231f20;fill-opacity:1;fill-rule:nonzero;stroke:none"
             id="text568"><tspan
               x="0 4.6929998 9.3859997 13.3575"
               y="0"
               sodipodi:role="line"
               id="tspan566">OUT1</tspan></text>
          <text
             xml:space="preserve"
             transform="matrix(1,0,0,-1,404.0233,264.1894)"
             style="font-style:italic;font-variant:normal;font-size:9px;font-family:'Times New Roman';-inkscape-font-specification:Times-Italic;writing-mode:lr-tb;fill:#231f20;fill-opacity:1;fill-rule:nonzero;stroke:none"
             id="text572"><tspan
               x="0"
               y="0"
               id="tspan570">C</tspan></text>
          <text
             xml:space="preserve"
             transform="matrix(1,0,0,-1,410.0263,261.6894)"
             style="font-style:italic;font-variant:normal;font-size:6.5px;font-family:'Times New Roman';-inkscape-font-specification:Times-Italic;writing-mode:lr-tb;fill:#231f20;fill-opacity:1;fill-rule:nonzero;stroke:none"
             id="text576"><tspan
               x="0 4.6929998"
               y="0"
               sodipodi:role="line"
               id="tspan574">GS</tspan></text>
          <text
             xml:space="preserve"
             transform="matrix(1,0,0,-1,417.9693,261.6894)"
             style="font-variant:normal;font-weight:normal;font-size:6.5px;font-family:'Times New Roman';-inkscape-font-specification:Times-Roman;writing-mode:lr-tb;fill:#231f20;fill-opacity:1;fill-rule:nonzero;stroke:none"
             id="text580"><tspan
               x="0"
               y="0"
               id="tspan578">2</tspan></text>
          <text
             xml:space="preserve"
             transform="matrix(1,0,0,-1,490.7833,295.6528)"
             style="font-style:italic;font-variant:normal;font-size:9px;font-family:'Times New Roman';-inkscape-font-specification:Times-Italic;writing-mode:lr-tb;fill:#231f20;fill-opacity:1;fill-rule:nonzero;stroke:none"
             id="text584"><tspan
               x="0"
               y="0"
               id="tspan582">v</tspan></text>
          <text
             xml:space="preserve"
             transform="matrix(1,0,0,-1,494.7783,293.1528)"
             style="font-variant:normal;font-weight:normal;font-size:6.5px;font-family:'Times New Roman';-inkscape-font-specification:Times-Roman;writing-mode:lr-tb;fill:#231f20;fill-opacity:1;fill-rule:nonzero;stroke:none"
             id="text588"><tspan
               x="0 4.6929998 9.3859997 13.3575"
               y="0"
               sodipodi:role="line"
               id="tspan586">OUT2</tspan></text>
          <path
             d="m 443.974,236.364 h -13.919 m 48.72,0.481 -10.88,-0.161 M 353.231,349.581 h -3 v -2.992"
             style="fill:none;stroke:#231f20;stroke-width:0.65;stroke-linecap:square;stroke-linejoin:miter;stroke-miterlimit:3.86;stroke-dasharray:none;stroke-opacity:1"
             id="path590" />
          <path
             d="M 458.727,349.581 H 353.231"
             style="fill:none;stroke:#231f20;stroke-width:0.65;stroke-linecap:square;stroke-linejoin:miter;stroke-miterlimit:3.86;stroke-dasharray:7.465, 6.469;stroke-dashoffset:7.465;stroke-opacity:1"
             id="path592" />
          <path
             d="m 461.727,346.589 v 2.992 h -3"
             style="fill:none;stroke:#231f20;stroke-width:0.65;stroke-linecap:square;stroke-linejoin:miter;stroke-miterlimit:3.86;stroke-dasharray:none;stroke-opacity:1"
             id="path594" />
          <path
             d="M 461.727,229.085 V 346.589"
             style="fill:none;stroke:#231f20;stroke-width:0.65;stroke-linecap:square;stroke-linejoin:miter;stroke-miterlimit:3.86;stroke-dasharray:7.519, 6.517;stroke-dashoffset:7.519;stroke-opacity:1"
             id="path596" />
          <path
             d="m 458.727,226.085 h 3 v 3"
             style="fill:none;stroke:#231f20;stroke-width:0.65;stroke-linecap:square;stroke-linejoin:miter;stroke-miterlimit:3.86;stroke-dasharray:none;stroke-opacity:1"
             id="path598" />
          <path
             d="M 353.231,226.085 H 458.727"
             style="fill:none;stroke:#231f20;stroke-width:0.65;stroke-linecap:square;stroke-linejoin:miter;stroke-miterlimit:3.86;stroke-dasharray:7.465, 6.469;stroke-dashoffset:7.465;stroke-opacity:1"
             id="path600" />
          <path
             d="m 350.231,229.085 v -3 h 3"
             style="fill:none;stroke:#231f20;stroke-width:0.65;stroke-linecap:square;stroke-linejoin:miter;stroke-miterlimit:3.86;stroke-dasharray:none;stroke-opacity:1"
             id="path602" />
          <path
             d="M 350.231,346.581 V 229.085"
             style="fill:none;stroke:#231f20;stroke-width:0.65;stroke-linecap:square;stroke-linejoin:miter;stroke-miterlimit:3.86;stroke-dasharray:7.519, 6.517;stroke-dashoffset:7.519;stroke-opacity:1"
             id="path604" />
        </g>
      </g>
    </g>
  </g>
</svg>
