<?xml version="1.0" encoding="UTF-8" standalone="no"?>
<!-- Created with Inkscape (http://www.inkscape.org/) -->

<svg
   width="70.017525mm"
   height="49.754482mm"
   viewBox="0 0 70.017525 49.754482"
   version="1.1"
   id="svg2190"
   xmlns="http://www.w3.org/2000/svg"
   xmlns:svg="http://www.w3.org/2000/svg">
  <defs
     id="defs2187" />
  <g
     id="layer2"
     style="display:inline">
    <path
       style="color:#000000;fill:#000000;stroke-linecap:round;stroke-linejoin:round;stroke-miterlimit:10;-inkscape-stroke:none"
       d="m 25.410156,110.67383 a 0.5,0.5 0 0 0 -0.5,0.5 0.5,0.5 0 0 0 0.5,0.5 h 13.5 a 0.5,0.5 0 0 0 0.5,-0.5 0.5,0.5 0 0 0 -0.5,-0.5 z"
       id="path432"
       transform="matrix(0.3527707,0,0,-0.35277777,-0.052397,49.771541)" />
    <text
       xml:space="preserve"
       transform="matrix(0.99998998,0,0,1.00001,-78.431149,-104.1696)"
       style="font-variant:normal;font-weight:normal;font-size:2.46939px;font-family:Helvetica;-inkscape-font-specification:Helvetica;writing-mode:lr-tb;fill:#000000;fill-opacity:1;fill-rule:nonzero;stroke:none;stroke-width:0.352774"
       id="text450"
       x="80.231598"
       y="110.69865"><tspan
         x="80.231598 80.917732 82.291061 83.664398 85.037735"
         y="110.69865"
         id="tspan448"
         style="stroke-width:0.352774">Input</tspan></text>
    <path
       style="color:#000000;fill:#000000;stroke-linecap:round;stroke-linejoin:round;stroke-miterlimit:10;-inkscape-stroke:none"
       d="m 39.037109,110.69141 a 0.5,0.5 0 0 0 -0.378906,0.0508 0.5,0.5 0 0 0 -0.179687,0.68359 l 15.75,27 a 0.5,0.5 0 0 0 0.683593,0.17969 0.5,0.5 0 0 0 0.179688,-0.6836 l -15.75,-26.99999 a 0.5,0.5 0 0 0 -0.304688,-0.23047 z"
       id="path452"
       transform="matrix(0.3527707,0,0,-0.35277777,-0.052397,49.771541)" />
    <path
       style="color:#000000;fill:#000000;stroke-linecap:round;stroke-linejoin:round;stroke-miterlimit:10;-inkscape-stroke:none"
       d="m 54.660156,137.67383 a 0.5,0.5 0 0 0 -0.5,0.5 0.5,0.5 0 0 0 0.5,0.5 h 49.500004 a 0.5,0.5 0 0 0 0.5,-0.5 0.5,0.5 0 0 0 -0.5,-0.5 z"
       id="path454"
       transform="matrix(0.3527707,0,0,-0.35277777,-0.052397,49.771541)" />
    <path
       style="color:#000000;fill:#000000;stroke-linecap:round;stroke-linejoin:round;stroke-miterlimit:10;-inkscape-stroke:none"
       d="m 119.7832,110.69141 a 0.5,0.5 0 0 0 -0.30468,0.23047 l -15.75,26.99999 a 0.5,0.5 0 0 0 0.17968,0.6836 0.5,0.5 0 0 0 0.6836,-0.17969 l 15.75,-27 a 0.5,0.5 0 0 0 -0.17969,-0.68359 0.5,0.5 0 0 0 -0.37891,-0.0508 z"
       id="path456"
       transform="matrix(0.3527707,0,0,-0.35277777,-0.052397,49.771541)" />
    <path
       style="color:#000000;fill:#000000;stroke-linecap:round;stroke-linejoin:round;stroke-miterlimit:10;-inkscape-stroke:none"
       d="m 119.91016,110.67383 a 0.5,0.5 0 0 0 -0.5,0.5 0.5,0.5 0 0 0 0.5,0.5 h 63 a 0.5,0.5 0 0 0 0.5,-0.5 0.5,0.5 0 0 0 -0.5,-0.5 z"
       id="path458"
       transform="matrix(0.3527707,0,0,-0.35277777,-0.052397,49.771541)" />
    <text
       xml:space="preserve"
       transform="matrix(0.99998998,0,0,1.00001,-78.431149,-104.1696)"
       style="font-variant:normal;font-weight:normal;font-size:2.46939px;font-family:Helvetica;-inkscape-font-specification:Helvetica;writing-mode:lr-tb;fill:#000000;fill-opacity:1;fill-rule:nonzero;stroke:none;stroke-width:0.352774"
       id="text476"
       x="144.5247"
       y="105.9362"><tspan
         x="144.5247"
         y="105.9362"
         id="tspan474"
         style="stroke-width:0.352774">V</tspan></text>
    <text
       xml:space="preserve"
       transform="matrix(0.99998998,0,0,1.00001,-78.431149,-104.1696)"
       style="font-variant:normal;font-weight:normal;font-size:1.60483px;font-family:Helvetica;-inkscape-font-specification:Helvetica;writing-mode:lr-tb;fill:#000000;fill-opacity:1;fill-rule:nonzero;stroke:none;stroke-width:0.352774"
       id="text480"
       x="146.17213"
       y="106.2785"><tspan
         x="146.17213 147.33105"
         y="106.2785"
         id="tspan478"
         style="stroke-width:0.352774">CC</tspan></text>
    <text
       xml:space="preserve"
       transform="matrix(0.99998998,0,0,1.00001,-78.431149,-104.1696)"
       style="font-variant:normal;font-weight:normal;font-size:2.46939px;font-family:Helvetica;-inkscape-font-specification:Helvetica;writing-mode:lr-tb;fill:#000000;fill-opacity:1;fill-rule:nonzero;stroke:none;stroke-width:0.352774"
       id="text484"
       x="144.5247"
       y="115.46111"><tspan
         x="144.5247 145.89804 146.58141"
         y="115.46111"
         id="tspan482"
         style="stroke-width:0.352774">0 V</tspan></text>
    <path
       style="color:#000000;fill:#000000;stroke-linecap:round;stroke-linejoin:round;stroke-miterlimit:10;stroke-dasharray:7.5, 4.5;-inkscape-stroke:none"
       d="m 104.16016,138.13477 a 0.25,0.25 0 0 0 -0.25,0.25 0.25,0.25 0 0 0 0.25,0.25 h 2.64648 a 0.25,0.25 0 0 0 0.25,-0.25 0.25,0.25 0 0 0 -0.25,-0.25 z m 4.23242,0 a 0.25,0.25 0 0 0 -0.25,0.25 0.25,0.25 0 0 0 0.25,0.25 h 2.64648 a 0.25,0.25 0 0 0 0.25,-0.25 0.25,0.25 0 0 0 -0.25,-0.25 z m 4.23437,0 a 0.25,0.25 0 0 0 -0.25,0.25 0.25,0.25 0 0 0 0.25,0.25 h 2.64453 a 0.25,0.25 0 0 0 0.25,-0.25 0.25,0.25 0 0 0 -0.25,-0.25 z m 4.23243,0 a 0.25,0.25 0 0 0 -0.25,0.25 0.25,0.25 0 0 0 0.25,0.25 h 2.64648 a 0.25,0.25 0 0 0 0.25,-0.25 0.25,0.25 0 0 0 -0.25,-0.25 z m 4.23437,0 a 0.25,0.25 0 0 0 -0.25,0.25 0.25,0.25 0 0 0 0.25,0.25 h 2.64453 a 0.25,0.25 0 0 0 0.25,-0.25 0.25,0.25 0 0 0 -0.25,-0.25 z m 4.23242,0 a 0.25,0.25 0 0 0 -0.25,0.25 0.25,0.25 0 0 0 0.25,0.25 h 2.64649 a 0.25,0.25 0 0 0 0.25,-0.25 0.25,0.25 0 0 0 -0.25,-0.25 z m 4.23438,0 a 0.25,0.25 0 0 0 -0.25,0.25 0.25,0.25 0 0 0 0.25,0.25 h 2.64453 a 0.25,0.25 0 0 0 0.25,-0.25 0.25,0.25 0 0 0 -0.25,-0.25 z m 4.23242,0 a 0.25,0.25 0 0 0 -0.25,0.25 0.25,0.25 0 0 0 0.25,0.25 h 2.64648 a 0.25,0.25 0 0 0 0.25,-0.25 0.25,0.25 0 0 0 -0.25,-0.25 z m 4.23242,0 a 0.25,0.25 0 0 0 -0.25,0.25 0.25,0.25 0 0 0 0.25,0.25 h 2.64648 a 0.25,0.25 0 0 0 0.25,-0.25 0.25,0.25 0 0 0 -0.25,-0.25 z m 4.23438,0 a 0.25,0.25 0 0 0 -0.25,0.25 0.25,0.25 0 0 0 0.25,0.25 h 2.64648 a 0.25,0.25 0 0 0 0.25,-0.25 0.25,0.25 0 0 0 -0.25,-0.25 z m 4.23242,0 a 0.25,0.25 0 0 0 -0.25,0.25 0.25,0.25 0 0 0 0.25,0.25 h 2.64648 a 0.25,0.25 0 0 0 0.25,-0.25 0.25,0.25 0 0 0 -0.25,-0.25 z m 4.23437,0 a 0.25,0.25 0 0 0 -0.25,0.25 0.25,0.25 0 0 0 0.25,0.25 h 2.64453 a 0.25,0.25 0 0 0 0.25,-0.25 0.25,0.25 0 0 0 -0.25,-0.25 z m 4.23242,0 a 0.25,0.25 0 0 0 -0.25,0.25 0.25,0.25 0 0 0 0.25,0.25 h 2.64649 a 0.25,0.25 0 0 0 0.25,-0.25 0.25,0.25 0 0 0 -0.25,-0.25 z m 4.23438,0 a 0.25,0.25 0 0 0 -0.25,0.25 0.25,0.25 0 0 0 0.25,0.25 h 2.64453 a 0.25,0.25 0 0 0 0.25,-0.25 0.25,0.25 0 0 0 -0.25,-0.25 z m 4.23242,0 a 0.25,0.25 0 0 0 -0.25,0.25 0.25,0.25 0 0 0 0.25,0.25 h 2.64649 a 0.25,0.25 0 0 0 0.25,-0.25 0.25,0.25 0 0 0 -0.25,-0.25 z m 4.23438,0 a 0.25,0.25 0 0 0 -0.25,0.25 0.25,0.25 0 0 0 0.25,0.25 h 2.64453 a 0.25,0.25 0 0 0 0.25,-0.25 0.25,0.25 0 0 0 -0.25,-0.25 z m 4.23242,0 a 0.25,0.25 0 0 0 -0.25,0.25 0.25,0.25 0 0 0 0.25,0.25 h 2.64648 a 0.25,0.25 0 0 0 0.25,-0.25 0.25,0.25 0 0 0 -0.25,-0.25 z m 4.23242,0 a 0.25,0.25 0 0 0 -0.25,0.25 0.25,0.25 0 0 0 0.25,0.25 h 2.64648 a 0.25,0.25 0 0 0 0.25,-0.25 0.25,0.25 0 0 0 -0.25,-0.25 z m 4.23437,0 a 0.25,0.25 0 0 0 -0.25,0.25 0.25,0.25 0 0 0 0.25,0.25 h 2.46094 a 0.25,0.25 0 0 0 0.25,-0.25 0.25,0.25 0 0 0 -0.25,-0.25 z"
       id="path654"
       transform="matrix(0.3527707,0,0,-0.35277777,-0.052397,49.771541)" />
  </g>
</svg>
