<?xml version="1.0" encoding="UTF-8" standalone="no"?>
<!-- Created with Inkscape (http://www.inkscape.org/) -->

<svg
   width="70.017525mm"
   height="49.754482mm"
   viewBox="0 0 70.017525 49.754482"
   version="1.1"
   id="svg2190"
   xmlns="http://www.w3.org/2000/svg"
   xmlns:svg="http://www.w3.org/2000/svg">
  <defs
     id="defs2187" />
  <g
     id="layer3"
     style="display:inline">
    <path
       style="color:#000000;fill:#000000;stroke-linecap:round;stroke-linejoin:round;stroke-miterlimit:10;-inkscape-stroke:none"
       d="m 25.410156,56.673828 a 0.5,0.5 0 0 0 -0.5,0.5 0.5,0.5 0 0 0 0.5,0.5 H 70.5 a 0.5,0.5 0 0 0 0.5,-0.5 0.5,0.5 0 0 0 -0.5,-0.5 z"
       id="path486"
       transform="matrix(0.3527707,0,0,-0.35277777,-0.052397,49.771541)" />
    <path
       style="color:#000000;fill:#000000;stroke-linecap:round;stroke-linejoin:round;stroke-miterlimit:10;-inkscape-stroke:none"
       d="m 70.626953,56.691406 a 0.5,0.5 0 0 0 -0.378906,0.05078 0.5,0.5 0 0 0 -0.179688,0.683594 l 15.75,27 a 0.5,0.5 0 0 0 0.683594,0.179688 0.5,0.5 0 0 0 0.179688,-0.683594 l -15.75,-27 a 0.5,0.5 0 0 0 -0.304688,-0.230469 z"
       id="path496"
       transform="matrix(0.3527707,0,0,-0.35277777,-0.052397,49.771541)" />
    <path
       style="color:#000000;fill:#000000;stroke-linecap:round;stroke-linejoin:round;stroke-miterlimit:10;-inkscape-stroke:none"
       d="m 86.25,83.673828 a 0.5,0.5 0 0 0 -0.5,0.5 0.5,0.5 0 0 0 0.5,0.5 h 49.5 a 0.5,0.5 0 0 0 0.5,-0.5 0.5,0.5 0 0 0 -0.5,-0.5 z"
       id="path498"
       transform="matrix(0.3527707,0,0,-0.35277777,-0.052397,49.771541)" />
    <path
       style="color:#000000;fill:#000000;stroke-linecap:round;stroke-linejoin:round;stroke-miterlimit:10;-inkscape-stroke:none"
       d="m 151.75195,56.742187 a 0.5,0.5 0 0 0 -0.68359,0.179688 l -15.75,27 a 0.5,0.5 0 0 0 0.17969,0.683594 0.5,0.5 0 0 0 0.68359,-0.179688 l 15.75,-27 a 0.5,0.5 0 0 0 -0.17969,-0.683594 z"
       id="path500"
       transform="matrix(0.3527707,0,0,-0.35277777,-0.052397,49.771541)" />
    <path
       style="color:#000000;fill:#000000;stroke-linecap:round;stroke-linejoin:round;stroke-miterlimit:10;-inkscape-stroke:none"
       d="m 151.5,56.673828 a 0.5,0.5 0 0 0 -0.5,0.5 0.5,0.5 0 0 0 0.5,0.5 h 31.41016 a 0.5,0.5 0 0 0 0.5,-0.5 0.5,0.5 0 0 0 -0.5,-0.5 z"
       id="path502"
       transform="matrix(0.3527707,0,0,-0.35277777,-0.052397,49.771541)" />
    <path
       style="color:#000000;fill:#000000;stroke-linecap:round;stroke-linejoin:round;stroke-miterlimit:10;stroke-dasharray:7.5, 4.5;-inkscape-stroke:none"
       d="m 135.75,83.923828 a 0.25,0.25 0 0 0 -0.25,0.25 0.25,0.25 0 0 0 0.25,0.25 h 2.64648 a 0.25,0.25 0 0 0 0.25,-0.25 0.25,0.25 0 0 0 -0.25,-0.25 z m 4.23242,0 a 0.25,0.25 0 0 0 -0.25,0.25 0.25,0.25 0 0 0 0.25,0.25 h 2.64649 a 0.25,0.25 0 0 0 0.25,-0.25 0.25,0.25 0 0 0 -0.25,-0.25 z m 4.23438,0 a 0.25,0.25 0 0 0 -0.25,0.25 0.25,0.25 0 0 0 0.25,0.25 h 2.64648 a 0.25,0.25 0 0 0 0.25,-0.25 0.25,0.25 0 0 0 -0.25,-0.25 z m 4.23242,0 a 0.25,0.25 0 0 0 -0.25,0.25 0.25,0.25 0 0 0 0.25,0.25 h 2.64648 a 0.25,0.25 0 0 0 0.25,-0.25 0.25,0.25 0 0 0 -0.25,-0.25 z m 4.23437,0 a 0.25,0.25 0 0 0 -0.25,0.25 0.25,0.25 0 0 0 0.25,0.25 h 2.64453 a 0.25,0.25 0 0 0 0.25,-0.25 0.25,0.25 0 0 0 -0.25,-0.25 z m 4.23243,0 a 0.25,0.25 0 0 0 -0.25,0.25 0.25,0.25 0 0 0 0.25,0.25 h 2.64648 a 0.25,0.25 0 0 0 0.25,-0.25 0.25,0.25 0 0 0 -0.25,-0.25 z m 4.23437,0 a 0.25,0.25 0 0 0 -0.25,0.25 0.25,0.25 0 0 0 0.25,0.25 h 2.64453 a 0.25,0.25 0 0 0 0.25,-0.25 0.25,0.25 0 0 0 -0.25,-0.25 z m 4.23242,0 a 0.25,0.25 0 0 0 -0.25,0.25 0.25,0.25 0 0 0 0.25,0.25 h 2.64649 a 0.25,0.25 0 0 0 0.25,-0.25 0.25,0.25 0 0 0 -0.25,-0.25 z m 4.23438,0 a 0.25,0.25 0 0 0 -0.25,0.25 0.25,0.25 0 0 0 0.25,0.25 h 2.64453 a 0.25,0.25 0 0 0 0.25,-0.25 0.25,0.25 0 0 0 -0.25,-0.25 z m 4.23242,0 a 0.25,0.25 0 0 0 -0.25,0.25 0.25,0.25 0 0 0 0.25,0.25 h 2.64648 a 0.25,0.25 0 0 0 0.25,-0.25 0.25,0.25 0 0 0 -0.25,-0.25 z m 4.23242,0 a 0.25,0.25 0 0 0 -0.25,0.25 0.25,0.25 0 0 0 0.25,0.25 h 2.64649 a 0.25,0.25 0 0 0 0.25,-0.25 0.25,0.25 0 0 0 -0.25,-0.25 z m 4.23438,0 a 0.25,0.25 0 0 0 -0.25,0.25 0.25,0.25 0 0 0 0.25,0.25 h 0.59375 a 0.25,0.25 0 0 0 0.25,-0.25 0.25,0.25 0 0 0 -0.25,-0.25 z"
       id="path504"
       transform="matrix(0.3527707,0,0,-0.35277777,-0.052397,49.771541)" />
    <text
       xml:space="preserve"
       transform="matrix(0.99998998,0,0,1.00001,-78.431149,-104.1696)"
       style="font-variant:normal;font-weight:normal;font-size:2.46939px;font-family:Helvetica;-inkscape-font-specification:Helvetica;writing-mode:lr-tb;fill:#000000;fill-opacity:1;fill-rule:nonzero;stroke:none;stroke-width:0.352774"
       id="text522"
       x="144.5247"
       y="124.98593"><tspan
         x="144.5247"
         y="124.98593"
         id="tspan520"
         style="stroke-width:0.352774">V</tspan></text>
    <text
       xml:space="preserve"
       transform="matrix(0.99998998,0,0,1.00001,-78.431149,-104.1696)"
       style="font-variant:normal;font-weight:normal;font-size:1.60483px;font-family:Helvetica;-inkscape-font-specification:Helvetica;writing-mode:lr-tb;fill:#000000;fill-opacity:1;fill-rule:nonzero;stroke:none;stroke-width:0.352774"
       id="text526"
       x="146.17213"
       y="125.32824"><tspan
         x="146.17213 147.4205"
         y="125.32824"
         id="tspan524"
         style="stroke-width:0.352774">OH</tspan></text>
    <text
       xml:space="preserve"
       transform="matrix(0.99998998,0,0,1.00001,-78.431149,-104.1696)"
       style="font-variant:normal;font-weight:normal;font-size:2.46939px;font-family:Helvetica;-inkscape-font-specification:Helvetica;writing-mode:lr-tb;fill:#000000;fill-opacity:1;fill-rule:nonzero;stroke:none;stroke-width:0.352774"
       id="text530"
       x="144.5247"
       y="134.51085"><tspan
         x="144.5247"
         y="134.51085"
         id="tspan528"
         style="stroke-width:0.352774">V</tspan></text>
    <text
       xml:space="preserve"
       transform="matrix(0.99998998,0,0,1.00001,-78.431149,-104.1696)"
       style="font-variant:normal;font-weight:normal;font-size:1.60483px;font-family:Helvetica;-inkscape-font-specification:Helvetica;writing-mode:lr-tb;fill:#000000;fill-opacity:1;fill-rule:nonzero;stroke:none;stroke-width:0.352774"
       id="text534"
       x="146.17213"
       y="134.85315"><tspan
         x="146.17213 147.4205"
         y="134.85315"
         id="tspan532"
         style="stroke-width:0.352774">OL</tspan></text>
    <text
       xml:space="preserve"
       style="font-size:2.11667px;font-family:Corbel;-inkscape-font-specification:Corbel;text-align:center;text-anchor:middle;fill:#008080;fill-opacity:0.210918;stroke-width:0.705556;stroke-linejoin:bevel;stroke-miterlimit:4.4"
       x="4.8725467"
       y="23.864466"
       id="text4908-2"><tspan
         id="tspan4906-3"
         style="font-style:normal;font-variant:normal;font-weight:normal;font-stretch:normal;font-size:2.11667px;font-family:Arial;-inkscape-font-specification:Arial;fill:#000000;fill-opacity:1;stroke-width:0.705556"
         x="4.8725467"
         y="23.864466">Output</tspan><tspan
         style="font-style:normal;font-variant:normal;font-weight:normal;font-stretch:normal;font-size:2.11667px;font-family:Arial;-inkscape-font-specification:Arial;fill:#000000;fill-opacity:1;stroke-width:0.705556"
         x="4.8725467"
         y="26.578253"
         id="tspan4910-9">Buffer</tspan></text>
  </g>
</svg>
