<?xml version="1.0" encoding="UTF-8" standalone="no"?>
<!-- Created with Inkscape (http://www.inkscape.org/) -->

<svg
   width="22.194326mm"
   height="30.344534mm"
   viewBox="0 0 22.194326 30.344534"
   version="1.1"
   id="svg773"
   inkscape:version="1.2.1 (9c6d41e410, 2022-07-14)"
   sodipodi:docname="SRC-OFF.svg"
   xmlns:inkscape="http://www.inkscape.org/namespaces/inkscape"
   xmlns:sodipodi="http://sodipodi.sourceforge.net/DTD/sodipodi-0.dtd"
   xmlns="http://www.w3.org/2000/svg"
   xmlns:svg="http://www.w3.org/2000/svg">
  <sodipodi:namedview
     id="namedview775"
     pagecolor="#ffffff"
     bordercolor="#000000"
     borderopacity="0.25"
     inkscape:showpageshadow="2"
     inkscape:pageopacity="0.0"
     inkscape:pagecheckerboard="0"
     inkscape:deskcolor="#d1d1d1"
     inkscape:document-units="mm"
     showgrid="false"
     inkscape:zoom="4.7572176"
     inkscape:cx="91.334901"
     inkscape:cy="55.494624"
     inkscape:window-width="1920"
     inkscape:window-height="1094"
     inkscape:window-x="-11"
     inkscape:window-y="-11"
     inkscape:window-maximized="1"
     inkscape:current-layer="layer1" />
  <defs
     id="defs770">
    <clipPath
       clipPathUnits="userSpaceOnUse"
       id="clipPath258">
      <path
         d="m 498.746,273.581 h 72.563 v 266.574 h -72.563 z"
         id="path256" />
    </clipPath>
    <clipPath
       clipPathUnits="userSpaceOnUse"
       id="clipPath264">
      <path
         d="m 0.015,1032.015 h 728.01 V 0.015 H 0.015 Z"
         id="path262" />
    </clipPath>
    <clipPath
       clipPathUnits="userSpaceOnUse"
       id="clipPath1463">
      <g
         id="g1471">
        <g
           id="g1469">
          <g
             id="g1467">
            <path
               d="M 82.765666,45.119754 H 108.51844 V 139.31142 H 82.765666 Z"
               id="path1465"
               style="stroke-width:0.352778" />
          </g>
        </g>
      </g>
    </clipPath>
    <clipPath
       clipPathUnits="userSpaceOnUse"
       id="clipPath1473">
      <g
         id="g1481">
        <g
           id="g1479">
          <g
             id="g1477">
            <path
               d="M 82.765666,45.119754 H 108.51844 V 139.31142 H 82.765666 Z"
               id="path1475"
               style="stroke-width:0.352778" />
          </g>
        </g>
      </g>
    </clipPath>
    <clipPath
       clipPathUnits="userSpaceOnUse"
       id="clipPath1483">
      <g
         id="g1491">
        <g
           id="g1489">
          <g
             id="g1487">
            <path
               d="M 82.765666,45.119754 H 108.51844 V 139.31142 H 82.765666 Z"
               id="path1485"
               style="stroke-width:0.352778" />
          </g>
        </g>
      </g>
    </clipPath>
    <clipPath
       clipPathUnits="userSpaceOnUse"
       id="clipPath1493">
      <g
         id="g1501">
        <g
           id="g1499">
          <g
             id="g1497">
            <path
               d="M 82.765666,45.119754 H 108.51844 V 139.31142 H 82.765666 Z"
               id="path1495"
               style="stroke-width:0.352778" />
          </g>
        </g>
      </g>
    </clipPath>
    <clipPath
       clipPathUnits="userSpaceOnUse"
       id="clipPath1503">
      <g
         id="g1511">
        <g
           id="g1509">
          <g
             id="g1507">
            <path
               d="M 82.765666,45.119754 H 108.51844 V 139.31142 H 82.765666 Z"
               id="path1505"
               style="stroke-width:0.352778" />
          </g>
        </g>
      </g>
    </clipPath>
    <clipPath
       clipPathUnits="userSpaceOnUse"
       id="clipPath1513">
      <g
         id="g1521">
        <g
           id="g1519">
          <g
             id="g1517">
            <path
               d="M 82.765666,45.119754 H 108.51844 V 139.31142 H 82.765666 Z"
               id="path1515"
               style="stroke-width:0.352778" />
          </g>
        </g>
      </g>
    </clipPath>
    <clipPath
       clipPathUnits="userSpaceOnUse"
       id="clipPath1523">
      <g
         id="g1531">
        <g
           id="g1529">
          <g
             id="g1527">
            <path
               d="M 82.765666,45.119754 H 108.51844 V 139.31142 H 82.765666 Z"
               id="path1525"
               style="stroke-width:0.352778" />
          </g>
        </g>
      </g>
    </clipPath>
    <clipPath
       clipPathUnits="userSpaceOnUse"
       id="clipPath1533">
      <g
         id="g1541">
        <g
           id="g1539">
          <g
             id="g1537">
            <path
               d="M 82.765666,45.119754 H 108.51844 V 139.31142 H 82.765666 Z"
               id="path1535"
               style="stroke-width:0.352778" />
          </g>
        </g>
      </g>
    </clipPath>
    <clipPath
       clipPathUnits="userSpaceOnUse"
       id="clipPath1543">
      <g
         id="g1551">
        <g
           id="g1549">
          <g
             id="g1547">
            <path
               d="M 82.765666,45.119754 H 108.51844 V 139.31142 H 82.765666 Z"
               id="path1545"
               style="stroke-width:0.352778" />
          </g>
        </g>
      </g>
    </clipPath>
    <clipPath
       clipPathUnits="userSpaceOnUse"
       id="clipPath1553">
      <g
         id="g1561">
        <g
           id="g1559">
          <g
             id="g1557">
            <path
               d="M 82.765666,45.119754 H 108.51844 V 139.31142 H 82.765666 Z"
               id="path1555"
               style="stroke-width:0.352778" />
          </g>
        </g>
      </g>
    </clipPath>
    <clipPath
       clipPathUnits="userSpaceOnUse"
       id="clipPath1563">
      <g
         id="g1571">
        <g
           id="g1569">
          <g
             id="g1567">
            <path
               d="M 82.765666,45.119754 H 108.51844 V 139.31142 H 82.765666 Z"
               id="path1565"
               style="stroke-width:0.352778" />
          </g>
        </g>
      </g>
    </clipPath>
    <clipPath
       clipPathUnits="userSpaceOnUse"
       id="clipPath1573">
      <g
         id="g1581">
        <g
           id="g1579">
          <g
             id="g1577">
            <path
               d="M 82.765666,45.119754 H 108.51844 V 139.31142 H 82.765666 Z"
               id="path1575"
               style="stroke-width:0.352778" />
          </g>
        </g>
      </g>
    </clipPath>
    <clipPath
       clipPathUnits="userSpaceOnUse"
       id="clipPath1583">
      <g
         id="g1591">
        <g
           id="g1589">
          <g
             id="g1587">
            <path
               d="M 82.765666,45.119754 H 108.51844 V 139.31142 H 82.765666 Z"
               id="path1585"
               style="stroke-width:0.352778" />
          </g>
        </g>
      </g>
    </clipPath>
    <clipPath
       clipPathUnits="userSpaceOnUse"
       id="clipPath1593">
      <g
         id="g1601">
        <g
           id="g1599">
          <g
             id="g1597">
            <path
               d="M 82.765666,45.119754 H 108.51844 V 139.31142 H 82.765666 Z"
               id="path1595"
               style="stroke-width:0.352778" />
          </g>
        </g>
      </g>
    </clipPath>
    <clipPath
       clipPathUnits="userSpaceOnUse"
       id="clipPath1603">
      <g
         id="g1611">
        <g
           id="g1609">
          <g
             id="g1607">
            <path
               d="M 82.765666,45.119754 H 108.51844 V 139.31142 H 82.765666 Z"
               id="path1605"
               style="stroke-width:0.352778" />
          </g>
        </g>
      </g>
    </clipPath>
    <clipPath
       clipPathUnits="userSpaceOnUse"
       id="clipPath1613">
      <g
         id="g1621">
        <g
           id="g1619">
          <g
             id="g1617">
            <path
               d="M 82.765666,45.119754 H 108.51844 V 139.31142 H 82.765666 Z"
               id="path1615"
               style="stroke-width:0.352778" />
          </g>
        </g>
      </g>
    </clipPath>
  </defs>
  <g
     inkscape:label="Capa 1"
     inkscape:groupmode="layer"
     id="layer1"
     transform="translate(-32.005075,-49.338625)">
    <path
       style="color:#000000;fill:#231f20;stroke-linecap:square;stroke-miterlimit:3.86;-inkscape-stroke:none"
       d="m 102.08984,46.193359 v 0.08789 7.226562 0.08789 h 0.17579 v -0.08789 -7.226562 -0.08789 z M 86.537109,58.330078 v 0.175781 h 0.08789 7.775391 0.08789 V 58.330078 H 94.400391 86.625 Z m 15.552731,3.628906 v 0.08789 12.175781 c -0.32627,0.02522 -0.60156,0.279178 -0.60156,0.619141 0,0.356277 0.2822,0.652344 0.63086,0.652344 0.34836,0 0.62891,-0.295999 0.62891,-0.652344 0,-0.288781 -0.2544,-0.441835 -0.50977,-0.525391 h 0.0273 v -0.08789 -12.181641 -0.08789 z m 0.0293,12.410157 c 0.24931,0 0.45313,0.208113 0.45313,0.472656 0,0.264542 -0.20389,0.474609 -0.45313,0.474609 -0.24965,0 -0.45312,-0.209999 -0.45312,-0.474609 0,-0.264612 0.2034,-0.472656 0.45312,-0.472656 z"
       id="path266"
       transform="translate(-51.912076,4.1899435)" />
    <path
       d="m 102.28592,45.799204 v -0.58667 c -0.27764,0 -0.50271,0.26282 -0.50271,0.58667 0,0.32385 0.22507,0.586669 0.50271,0.586669 0.27799,0 0.50271,-0.262819 0.50271,-0.586669 0,-0.32385 -0.22472,-0.58667 -0.50271,-0.58667 v 0.58667"
       style="fill:#ffffff;fill-opacity:1;fill-rule:nonzero;stroke:none;stroke-width:0.352778"
       id="path268"
       clip-path="url(#clipPath1603)"
       transform="translate(-51.912076,4.1899435)" />
    <path
       style="color:#000000;fill:#231f20;stroke-linecap:square;stroke-miterlimit:3.86;-inkscape-stroke:none"
       d="m 102.28516,45.148437 c -0.34808,0 -0.62891,0.293911 -0.62891,0.650391 0,0.35648 0.28083,0.650391 0.62891,0.650391 0.34836,0 0.63086,-0.294046 0.63086,-0.650391 0,-0.356346 -0.2825,-0.650391 -0.63086,-0.650391 z m 0,0.175782 c 0.24923,0 0.45312,0.210066 0.45312,0.474609 0,0.264542 -0.20389,0.47461 -0.45312,0.474609 -0.24883,0 -0.45313,-0.210201 -0.45313,-0.474609 0,-0.264409 0.2043,-0.474609 0.45313,-0.474609 z"
       id="path270"
       transform="translate(-51.912076,4.1899435)" />
    <path
       d="m 86.650102,58.354917 v -0.587022 c -0.277636,0 -0.503061,0.262819 -0.503061,0.587022 0,0.32385 0.225425,0.58667 0.503061,0.58667 0.277283,0 0.502708,-0.26282 0.502708,-0.58667 0,-0.324203 -0.225425,-0.587022 -0.502708,-0.587022 v 0.587022"
       style="fill:#ffffff;fill-opacity:1;fill-rule:nonzero;stroke:none;stroke-width:0.352778"
       id="path272"
       clip-path="url(#clipPath1583)"
       transform="translate(-51.912076,4.1899435)" />
    <path
       style="color:#000000;fill:#231f20;stroke-linecap:square;stroke-miterlimit:3.86;-inkscape-stroke:none"
       d="m 86.611328,57.722656 c -0.348366,0 -0.628906,0.293979 -0.628906,0.650391 0,0.356412 0.28054,0.65039 0.628906,0.65039 0.348072,0 0.628906,-0.293978 0.628906,-0.65039 0,-0.356412 -0.280834,-0.650391 -0.628906,-0.650391 z m 0,0.175781 c 0.248828,0 0.453125,0.210134 0.453125,0.47461 0,0.264477 -0.204297,0.472656 -0.453125,0.472656 -0.249239,0 -0.453125,-0.208179 -0.453125,-0.472656 0,-0.264476 0.203886,-0.47461 0.453125,-0.47461 z"
       id="path274"
       transform="translate(-51.912076,4.1899435)" />
    <text
       xml:space="preserve"
       style="font-style:italic;font-variant:normal;font-size:2.82222px;font-family:'Times New Roman';-inkscape-font-specification:Times-Italic;writing-mode:lr-tb;fill:#231f20;fill-opacity:1;fill-rule:nonzero;stroke:none;stroke-width:0.352778"
       id="text282"
       x="52.210896"
       y="51.80172"><tspan
         x="52.210896"
         y="51.80172"
         id="tspan276"
         style="stroke-width:0.352778">D</tspan><tspan
         x="52.427357"
         y="79.448486"
         id="tspan278"
         style="stroke-width:0.352778">S</tspan><tspan
         x="34.807659"
         y="61.448078"
         id="tspan280"
         style="stroke-width:0.352778">G</tspan></text>
    <path
       style="color:#000000;fill:#231f20;stroke-linecap:square;stroke-miterlimit:3.86;-inkscape-stroke:none"
       d="m 92.310547,58.464844 v 0.08984 3.396485 0.08789 0.65625 0.08789 1.578125 h -2.792969 -0.08789 v 0.175781 h 0.08789 2.792969 0.175781 2.792969 0.08789 v -0.175781 h -0.08789 -2.792969 v -1.578125 -0.744141 -0.08789 -3.396485 -0.08984 z m -2.88086,7.101562 v 0.175781 h 0.08789 2.792969 v 2.289063 0.0332 0.05469 0.0332 4.49414 0.08789 h 0.175781 v -0.08789 -4.49414 -0.0332 -0.08789 -2.289063 h 2.792969 0.08789 v -0.175781 h -0.08789 -2.792969 -0.175781 -2.792969 z"
       id="path288"
       transform="translate(-51.912076,4.1899435)" />
    <text
       xml:space="preserve"
       style="font-style:italic;font-variant:normal;font-size:2.82222px;font-family:'Times New Roman';-inkscape-font-specification:Times-Italic;writing-mode:lr-tb;fill:#231f20;fill-opacity:1;fill-rule:nonzero;stroke:none;stroke-width:0.352778"
       id="text292"
       x="31.814905"
       y="69.896393"><tspan
         x="31.814905"
         y="69.896393"
         id="tspan290"
         style="stroke-width:0.352778">C</tspan></text>
    <text
       xml:space="preserve"
       style="font-style:italic;font-variant:normal;font-size:2.29306px;font-family:'Times New Roman';-inkscape-font-specification:Times-Italic;writing-mode:lr-tb;fill:#231f20;fill-opacity:1;fill-rule:nonzero;stroke:none;stroke-width:0.352778"
       id="text296"
       x="33.6973"
       y="70.778343"><tspan
         x="33.6973 35.352886"
         y="70.778343"
         sodipodi:role="line"
         id="tspan294"
         style="stroke-width:0.352778">GS</tspan></text>
    <path
       style="color:#000000;fill:#231f20;stroke-linecap:square;stroke-miterlimit:3.86;-inkscape-stroke:none"
       d="m 92.431641,72.494141 v 0.177734 h 0.08984 9.701176 0.0879 v -0.177734 h -0.0879 -9.701176 z"
       id="path298"
       transform="translate(-51.912076,4.1899435)" />
  </g>
</svg>
