<?xml version="1.0" encoding="UTF-8" standalone="no"?>
<!-- Created with Inkscape (http://www.inkscape.org/) -->

<svg
   width="25.376543mm"
   height="30.763634mm"
   viewBox="0 0 25.376543 30.763634"
   version="1.1"
   id="svg1743"
   inkscape:version="1.2.1 (9c6d41e410, 2022-07-14)"
   sodipodi:docname="SRC-ON.svg"
   xmlns:inkscape="http://www.inkscape.org/namespaces/inkscape"
   xmlns:sodipodi="http://sodipodi.sourceforge.net/DTD/sodipodi-0.dtd"
   xmlns="http://www.w3.org/2000/svg"
   xmlns:svg="http://www.w3.org/2000/svg">
  <sodipodi:namedview
     id="namedview1745"
     pagecolor="#ffffff"
     bordercolor="#000000"
     borderopacity="0.25"
     inkscape:showpageshadow="2"
     inkscape:pageopacity="0.0"
     inkscape:pagecheckerboard="0"
     inkscape:deskcolor="#d1d1d1"
     inkscape:document-units="mm"
     showgrid="false"
     inkscape:zoom="6.7277216"
     inkscape:cx="79.744679"
     inkscape:cy="52.172194"
     inkscape:window-width="1920"
     inkscape:window-height="1094"
     inkscape:window-x="-11"
     inkscape:window-y="-11"
     inkscape:window-maximized="1"
     inkscape:current-layer="layer1" />
  <defs
     id="defs1740">
    <clipPath
       clipPathUnits="userSpaceOnUse"
       id="clipPath1543">
      <g
         id="g1551">
        <g
           id="g1549">
          <g
             id="g1547">
            <path
               d="M 82.765666,45.119754 H 108.51844 V 139.31142 H 82.765666 Z"
               id="path1545"
               style="stroke-width:0.352778" />
          </g>
        </g>
      </g>
    </clipPath>
    <clipPath
       clipPathUnits="userSpaceOnUse"
       id="clipPath1533">
      <g
         id="g1541">
        <g
           id="g1539">
          <g
             id="g1537">
            <path
               d="M 82.765666,45.119754 H 108.51844 V 139.31142 H 82.765666 Z"
               id="path1535"
               style="stroke-width:0.352778" />
          </g>
        </g>
      </g>
    </clipPath>
    <clipPath
       clipPathUnits="userSpaceOnUse"
       id="clipPath1523">
      <g
         id="g1531">
        <g
           id="g1529">
          <g
             id="g1527">
            <path
               d="M 82.765666,45.119754 H 108.51844 V 139.31142 H 82.765666 Z"
               id="path1525"
               style="stroke-width:0.352778" />
          </g>
        </g>
      </g>
    </clipPath>
    <clipPath
       clipPathUnits="userSpaceOnUse"
       id="clipPath1513">
      <g
         id="g1521">
        <g
           id="g1519">
          <g
             id="g1517">
            <path
               d="M 82.765666,45.119754 H 108.51844 V 139.31142 H 82.765666 Z"
               id="path1515"
               style="stroke-width:0.352778" />
          </g>
        </g>
      </g>
    </clipPath>
    <clipPath
       clipPathUnits="userSpaceOnUse"
       id="clipPath1503">
      <g
         id="g1511">
        <g
           id="g1509">
          <g
             id="g1507">
            <path
               d="M 82.765666,45.119754 H 108.51844 V 139.31142 H 82.765666 Z"
               id="path1505"
               style="stroke-width:0.352778" />
          </g>
        </g>
      </g>
    </clipPath>
    <clipPath
       clipPathUnits="userSpaceOnUse"
       id="clipPath1493">
      <g
         id="g1501">
        <g
           id="g1499">
          <g
             id="g1497">
            <path
               d="M 82.765666,45.119754 H 108.51844 V 139.31142 H 82.765666 Z"
               id="path1495"
               style="stroke-width:0.352778" />
          </g>
        </g>
      </g>
    </clipPath>
    <clipPath
       clipPathUnits="userSpaceOnUse"
       id="clipPath1483">
      <g
         id="g1491">
        <g
           id="g1489">
          <g
             id="g1487">
            <path
               d="M 82.765666,45.119754 H 108.51844 V 139.31142 H 82.765666 Z"
               id="path1485"
               style="stroke-width:0.352778" />
          </g>
        </g>
      </g>
    </clipPath>
    <clipPath
       clipPathUnits="userSpaceOnUse"
       id="clipPath1473">
      <g
         id="g1481">
        <g
           id="g1479">
          <g
             id="g1477">
            <path
               d="M 82.765666,45.119754 H 108.51844 V 139.31142 H 82.765666 Z"
               id="path1475"
               style="stroke-width:0.352778" />
          </g>
        </g>
      </g>
    </clipPath>
    <clipPath
       clipPathUnits="userSpaceOnUse"
       id="clipPath1463">
      <g
         id="g1471">
        <g
           id="g1469">
          <g
             id="g1467">
            <path
               d="M 82.765666,45.119754 H 108.51844 V 139.31142 H 82.765666 Z"
               id="path1465"
               style="stroke-width:0.352778" />
          </g>
        </g>
      </g>
    </clipPath>
  </defs>
  <g
     inkscape:label="Capa 1"
     inkscape:groupmode="layer"
     id="layer1"
     transform="translate(-42.684611,-27.406319)">
    <path
       style="color:#000000;fill:#231f20;stroke-linecap:square;stroke-miterlimit:3.86;-inkscape-stroke:none"
       d="m 101.15234,97.400391 v 0.08789 7.226559 0.0879 h 0.17579 v -0.0879 -7.226559 -0.08789 z"
       id="path320"
       transform="translate(-40.271191,-68.663012)" />
    <path
       d="m 101.1528,96.709269 v -0.587022 c -0.27764,0 -0.50236,0.263172 -0.50236,0.587022 0,0.323497 0.22472,0.58667 0.50236,0.58667 0.27798,0 0.50341,-0.263173 0.50341,-0.58667 0,-0.32385 -0.22543,-0.587022 -0.50341,-0.587022 v 0.587022"
       style="fill:#ffffff;fill-opacity:1;fill-rule:nonzero;stroke:none;stroke-width:0.352778"
       id="path322"
       clip-path="url(#clipPath1533)"
       transform="translate(-40.271191,-68.663012)" />
    <path
       style="color:#000000;fill:#231f20;stroke-linecap:square;stroke-miterlimit:3.86;-inkscape-stroke:none"
       d="m 101.11523,96.068359 c -0.34844,0 -0.63085,0.295933 -0.63085,0.652344 0,0.355811 0.28248,0.648438 0.63085,0.648438 0.34837,0 0.62891,-0.292627 0.62891,-0.648438 0,-0.356411 -0.28047,-0.652344 -0.62891,-0.652344 z m 0,0.177735 c 0.24917,0 0.45313,0.210133 0.45313,0.474609 0,0.263666 -0.20389,0.472656 -0.45313,0.472656 -0.24924,0 -0.45312,-0.20899 -0.45312,-0.472656 0,-0.264476 0.20395,-0.474609 0.45312,-0.474609 z"
       id="path324"
       transform="translate(-40.271191,-68.663012)" />
    <text
       xml:space="preserve"
       style="font-style:italic;font-variant:normal;font-size:2.82222px;font-family:'Times New Roman';-inkscape-font-specification:Times-Italic;writing-mode:lr-tb;fill:#231f20;fill-opacity:1;fill-rule:nonzero;stroke:none;stroke-width:0.352778"
       id="text328"
       x="62.914379"
       y="29.991476"><tspan
         x="62.914379"
         y="29.991476"
         id="tspan326"
         style="stroke-width:0.352778">D</tspan></text>
    <path
       style="color:#000000;fill:#231f20;stroke-linecap:square;stroke-miterlimit:3.86;-inkscape-stroke:none"
       d="m 101.14844,104.75586 -0.004,0.0879 -0.0625,1.75 -0.0195,0.0742 0.0176,0.006 v 0.0293 l 0.12109,0.004 0.44336,0.12695 -0.49805,0.14258 -1.09179,0.3125 1.00976,0.28321 -0.002,0.006 0.084,0.0254 0.49415,0.14062 -0.49415,0.14063 -1.08984,0.31054 1.00586,0.28907 v 0.002 l 0.084,0.0254 0.49219,0.14062 -0.49219,0.14063 -1.08789,0.31055 1.00391,0.28906 v 0.002 l 0.084,0.0254 0.49219,0.14063 -0.49219,0.14062 -1.08984,0.31055 1.00586,0.28906 v 0.002 l 0.084,0.0254 0.49415,0.14257 -0.49415,0.14258 -1.09179,0.31055 1.08984,0.30859 v 2.01367 0.0898 h 0.17774 v -0.0898 -2.09765 -0.0898 h -0.14063 l -0.48047,-0.13476 0.49414,-0.14258 1.08399,-0.3125 -1,-0.28711 v -0.002 l -0.084,-0.0254 -0.49609,-0.14258 0.49609,-0.14063 1.08594,-0.30859 -1.00195,-0.28906 v -0.002 l -0.084,-0.0254 -0.49609,-0.14257 0.49609,-0.14258 1.08594,-0.30664 -1.00391,-0.28907 0.002,-0.004 -0.084,-0.0234 -0.49609,-0.14258 0.49609,-0.14258 1.08985,-0.30664 -1.00782,-0.28906 0.002,-0.006 -0.084,-0.0254 -0.49218,-0.13867 0.49218,-0.14063 1.08789,-0.3125 -1.02148,-0.29296 0.0606,-1.69141 0.002,-0.0879 z"
       id="path330"
       transform="translate(-40.271191,-68.663012)" />
    <text
       xml:space="preserve"
       style="font-style:italic;font-variant:normal;font-size:2.82222px;font-family:'Times New Roman';-inkscape-font-specification:Times-Italic;writing-mode:lr-tb;fill:#231f20;fill-opacity:1;fill-rule:nonzero;stroke:none;stroke-width:0.352778"
       id="text334"
       x="63.05772"
       y="41.317753"><tspan
         x="63.05772"
         y="41.317753"
         id="tspan332"
         style="stroke-width:0.352778">R</tspan></text>
    <text
       xml:space="preserve"
       style="font-variant:normal;font-weight:normal;font-size:2.29306px;font-family:'Times New Roman';-inkscape-font-specification:Times-Roman;writing-mode:lr-tb;fill:#231f20;fill-opacity:1;fill-rule:nonzero;stroke:none;stroke-width:0.352778"
       id="text338"
       x="64.782059"
       y="42.199696"><tspan
         x="64.782059 66.437645"
         y="42.199696"
         sodipodi:role="line"
         id="tspan336"
         style="stroke-width:0.352778">ON</tspan></text>
    <path
       style="color:#000000;fill:#231f20;stroke-linecap:square;stroke-miterlimit:3.86;-inkscape-stroke:none"
       d="m 85.576172,109.66992 v 0.17578 h 0.08789 7.777344 0.08789 v -0.17578 h -0.08789 -7.777344 z m 15.552738,3.62891 v 0.0879 12.18164 0.0352 c -0.29399,0.0556 -0.56055,0.26137 -0.56055,0.57812 0,0.35642 0.28249,0.65039 0.63086,0.65039 0.34836,0 0.62891,-0.29391 0.62891,-0.65039 0,-0.29661 -0.25726,-0.46427 -0.52344,-0.54101 v -0.0723 -12.18164 -0.0879 z m 0.0703,12.41015 c 0.24923,0 0.45312,0.20826 0.45312,0.47266 0,0.26442 -0.20389,0.47461 -0.45312,0.47461 -0.24925,0 -0.45313,-0.21013 -0.45313,-0.47461 0,-0.26447 0.20388,-0.47266 0.45313,-0.47266 z"
       id="path364"
       transform="translate(-40.271191,-68.663012)" />
    <path
       d="m 85.688782,109.69467 v -0.58703 c -0.277989,0 -0.503414,0.26318 -0.503414,0.58703 0,0.32385 0.225425,0.58667 0.503414,0.58667 0.277284,0 0.502356,-0.26282 0.502356,-0.58667 0,-0.32385 -0.225072,-0.58703 -0.502356,-0.58703 v 0.58703"
       style="fill:#ffffff;fill-opacity:1;fill-rule:nonzero;stroke:none;stroke-width:0.352778"
       id="path366"
       clip-path="url(#clipPath1493)"
       transform="translate(-40.271191,-68.663012)" />
    <path
       style="color:#000000;fill:#231f20;stroke-linecap:square;stroke-miterlimit:3.86;-inkscape-stroke:none"
       d="m 85.691406,109.06055 c -0.348367,0 -0.628906,0.296 -0.628906,0.65234 0,0.35635 0.28061,0.64844 0.628906,0.64844 0.348297,0 0.63086,-0.29202 0.63086,-0.64844 0,-0.35641 -0.282492,-0.65234 -0.63086,-0.65234 z m 0,0.17773 c 0.249238,0 0.453125,0.21014 0.453125,0.47461 0,0.26448 -0.203816,0.47266 -0.453125,0.47266 -0.249307,0 -0.453125,-0.20811 -0.453125,-0.47266 0,-0.26454 0.203889,-0.47461 0.453125,-0.47461 z"
       id="path368"
       transform="translate(-40.271191,-68.663012)" />
    <text
       xml:space="preserve"
       style="font-style:italic;font-variant:normal;font-size:2.82222px;font-family:'Times New Roman';-inkscape-font-specification:Times-Italic;writing-mode:lr-tb;fill:#231f20;fill-opacity:1;fill-rule:nonzero;stroke:none;stroke-width:0.352778"
       id="text374"
       x="63.10696"
       y="57.93536"><tspan
         x="63.10696"
         y="57.93536"
         id="tspan370"
         style="stroke-width:0.352778">S</tspan><tspan
         x="45.48698"
         y="39.93494"
         id="tspan372"
         style="stroke-width:0.352778">G</tspan></text>
    <path
       style="color:#000000;fill:#231f20;stroke-linecap:square;stroke-miterlimit:3.86;-inkscape-stroke:none"
       d="m 91.349609,109.80469 v 0.0879 3.39844 0.0879 0.65625 0.0898 1.57617 h -2.792968 -0.08789 v 0.17578 h 0.08789 2.792968 0.175782 2.792968 0.08789 v -0.17578 h -0.08789 -2.792968 v -1.57617 -0.74609 -0.0879 -3.39844 -0.0879 z m -2.880859,7.10156 v 0.17578 h 0.08789 2.792968 v 2.28906 0.0332 0.0547 0.0332 4.49414 0.0879 h 0.175782 v -0.0879 -4.49414 -0.0332 -0.0879 -2.28906 h 2.792968 0.08789 v -0.17578 h -0.08789 -2.792968 -0.175782 -2.792968 z"
       id="path376"
       transform="translate(-40.271191,-68.663012)" />
    <text
       xml:space="preserve"
       style="font-style:italic;font-variant:normal;font-size:2.82222px;font-family:'Times New Roman';-inkscape-font-specification:Times-Italic;writing-mode:lr-tb;fill:#231f20;fill-opacity:1;fill-rule:nonzero;stroke:none;stroke-width:0.352778"
       id="text380"
       x="42.494442"
       y="48.38319"><tspan
         x="42.494442"
         y="48.38319"
         id="tspan378"
         style="stroke-width:0.352778">C</tspan></text>
    <text
       xml:space="preserve"
       style="font-style:italic;font-variant:normal;font-size:2.29306px;font-family:'Times New Roman';-inkscape-font-specification:Times-Italic;writing-mode:lr-tb;fill:#231f20;fill-opacity:1;fill-rule:nonzero;stroke:none;stroke-width:0.352778"
       id="text384"
       x="44.376827"
       y="49.265133"><tspan
         x="44.376827 46.032413"
         y="49.265133"
         sodipodi:role="line"
         id="tspan382"
         style="stroke-width:0.352778">GS</tspan></text>
    <path
       style="color:#000000;fill:#231f20;stroke-linecap:square;stroke-miterlimit:3.86;-inkscape-stroke:none"
       d="m 91.470703,123.83398 v 0.17774 h 0.08789 9.703126 0.0879 v -0.17774 h -0.0879 -9.703126 z"
       id="path386"
       transform="translate(-40.271191,-68.663012)" />
  </g>
</svg>
