<?xml version="1.0" encoding="UTF-8" standalone="no"?>
<!-- Created with Inkscape (http://www.inkscape.org/) -->

<svg
   width="217.203mm"
   height="141.511mm"
   viewBox="0 0 217.203 141.511"
   version="1.1"
   id="svg5"
   xmlns="http://www.w3.org/2000/svg"
   xmlns:svg="http://www.w3.org/2000/svg">
  <defs
     id="defs2" />
  <g
     id="layer6"
     style="display:inline">
    <path
       d="m 523.5,679.5 h 1 1 v 0 h 1 1 1 1 1 1 1 v 0 h 1 1 1 1 1 l 1,-15 v 0 h 1 1 1 1 1 1 v 0 h 1 1 1 1 1 1 1 v 0 h 1 1 1 1 1 1 v 0 h 1 1 1 1 1 1 1 v 0 l 1,-15 h 1 1 1 1 1 v 0 h 1 1 1 1 1 1 v 0 h 1 1 1 1 1 1 1 v 0 h 1 1 1 1 1 1 v 0 h 1 1 1 l 1,-16 h 1 1 1 v 0 h 1 1 1 1 1 1 v 0 h 1 1 1 1 1 1 v 0 h 1 1 1 1 1 1 1 v 0 h 1 1 1 1 1 l 1,-15 v 0 h 1 1 1 1 1 1 v 0 h 1 1 1 1 1 1 1 v 0 h 1 1 1 1 1 1 v 0 h 1 1 1 1 1 1 1 v 0 h 1 l 1,-15 h 1 1 1 1 v 0 h 1 1 1 1 1 1 v 0 h 1 1 1 1 1 1 1 v 0 h 1 1 1 1 1 1 v 0 h 1 1 1 1 l 1,-16 h 1 v 0 h 1 1 1 1 1 1 1 v 0 h 1 1 1 1 1 1 v 0 h 1 1 1 1 1 1 1 v 0 h 1 1 1 1 1 1 v -15 h 1 1 1 1 1 1 v 0 h 1 1 1 1 1 1 1 v 0 h 1 1 1 1 1 1 v 0 h 1 1 1 1 1 1 1 v 0 h 1 l 1,-15 h 1 1 1 1 v 0 h 1 1 1 1 1 1 v 0 h 1 1 1 1 1 1 1 v 0 h 1 1 1 1 1 1 v 0 h 1 1 1 1 1 l 1,-16 v 0 h 1 1 1 1 1 1 1 v 0 h 1 1 1 1 1 1 v 0 h 1 1 1 1 1 1 1 v 0 h 1 1 1 1 1 1 v 0 l 1,-15 h 1 1 1 1 1 v 0 h 1 1 1 1 1 1 1 v 0 h 1 1 1 1 1 1 v 0 h 1 1 1 1 1 1 v 0 h 1 1 1 l 1,-16 h 1 1 1 v 0 h 1 1 1 1 1 1 v 0 h 1 1 1 1 1 1 1 v 0 h 1 1 1 1 1 1 v 0 h 1 1 1 1 1 l 1,-15 v 0 h 1 1 1 1 1 1 1 v 0 h 1 1 1 1 1 1 v 0 h 1 1 1 1 1 1 1 v 0 h 1 1 1 1 1 1 v 0 h 1 l 1,-15 h 1 1 1 1 v 0 h 1 1 1 1 1 1 1 v 0 h 1 1 1 1 1 1 v 0 h 1 1 1 1 1 1 v 0 h 1 1 1 1 l 1,-16 h 1 1 v 0 h 1 1 1 1 1 1 v 0 h 1 1 1 1 1 1 1 v 0 h 1 1 1 1 1 1 v 0 h 1 1 1 1 1 1 v -15 h 1 1 1 1 1 1 1 v 0 h 1 1 1 1 1 1 v 0 h 1 1 1 1 1 1 v 0 h 1 1 1 1 1 1 1 v 0 h 1 l 1,-15 h 1 1 1 1 v 0 h 1 1 1 1 1 1 1 v 0 h 1 1 1 1 1 1 v 0 h 1 1 1 1 1 1 v 0 h 1 1 1 1 1 l 1,-16 h 1 v 0 h 1 1 1 1 1 1 v 0 h 1 1 1 1 1 1 1 v 0 h 1 1 1 1 1 1 v 0 h 1 1 1 1 1 1 v 0 l 1,-15 h 1 1 1 1 1 1 v 0 h 1 1 1 1 1 1 v 0 h 1 1 1 1 1 1 v 0 h 1 1 1 1 1 1 1 v 0 h 1 1 l 1,-15 h 1 1 1 v 0 h 1 1 1 1 1 1 1 v 0 h 1 1 1 1 1 1 v 0 h 1 1 1 1 1 1 v 0 h 1 1 1 1 1 1 l 1,-16 v 0 h 1 1 1 1 1 1 v 0 h 1 1 1 1 1 1 v 0 h 1 1 1 1 1 1 1 v 0 h 1 1 1 1 1 1 v 0 h 1 l 1,-15 h 1 1 1 1 1 v 0 h 1 1 1 1 1 1 v 0 h 1 1 1 1 1 1 v 0 h 1 1 1 1 1 1 1 v 0 h 1 1 1 l 1,-16 h 1 1 v 0 h 1 1 1 1 1 1 1 v 0 h 1 1 1 1 1 1 v 0 h 1 1 1 1 1 1 v 0 h 1 1 1 1 1 1 l 1,-15 v 0 h 1 1 1 1 1 1 v 0 h 1 1 1 1 1 1 v 0 h 1 1 1 1 1 1 1 v 0 h 1 1 1 1 1 1 v 0 h 1 1 l 1,-15 h 1 1 1 1 v 0 h 1 1 1 1 1 1 v 0 h 1 1 1 1 1 1 v 0 h 1 1 1 1 1 1 1 v 0 h 1 1 1 1 l 1,-16 h 1 v 0 h 1 1 1 1 1 1 v 0 h 1 1 1 1 1 1 1 v 0 h 1 1 1 1 1 1 v 0 h 1 1 1 1 1 1 1 v -15 h 1 1 1 1 1 1 v 0 h 1 1 1 1 1 1 v 0 h 1 1 1 1 1 1 1 v 0 h 1 1 1 1 1 1 v 0 h 1 1 l 1,-15 h 1 1 1 1 v 0 h 1 1 1 1 1 1 v 0 h 1 1 1 1 1 1 v 0 h 1 1 1 1 1 1 1 v 0 h 1 1 1 1 1 l 1,-16 v 0 h 1 1 1 1 1 1 v 0 h 1 1 1 1 1 1 1 v 0 h 1 1 1 1 1 1 v 0 h 1 1 1 1 1 1 1 v 0 l 1,-15 h 1 1 1 1 1 v 0 h 1 1 1 1 1 1 v 0 h 1 1 1 1 1 1 1 v 0 h 1 1 1 1 1 1 v 0 h 1 1 1 l 1,-15 h 1 1 v 0 h 1 1 1 1 1 1 1 v 0 h 1 1 1 1 1 1 v 0 h 1 1 1 1 1 1 1 v 0 h 1 1 1 1 1 l 1,-16 v 0 h 1 1 1 1 1 1 v 0 h 1 1 1 1 1 1 1 v 0"
       stroke="#5b9bd5"
       stroke-width="3"
       stroke-linecap="round"
       stroke-linejoin="round"
       stroke-miterlimit="10"
       fill="none"
       id="path213"
       style="display:inline"
       transform="matrix(0.22925812,0,0,0.22752102,-114.23697,-26.368691)" />
  </g>
</svg>
