<?xml version="1.0" encoding="UTF-8" standalone="no"?>
<!-- Created with Inkscape (http://www.inkscape.org/) -->

<svg
   width="217.203mm"
   height="141.511mm"
   viewBox="0 0 217.203 141.511"
   version="1.1"
   id="svg5"
   xmlns="http://www.w3.org/2000/svg"
   xmlns:svg="http://www.w3.org/2000/svg">
  <defs
     id="defs2">
    <clipPath
       clipPathUnits="userSpaceOnUse"
       id="clipPath1524">
      <g
         id="g1528"
         transform="matrix(4.3618957,0,0,4.3951983,488.00099,-90.585222)">
        <rect
           x="-0.00022744"
           y="34.033783"
           width="210.00044"
           height="158.35463"
           id="rect1526"
           style="stroke-width:0.228388" />
      </g>
    </clipPath>
  </defs>
  <g
     id="layer7"
     style="display:inline">
    <g
       id="g5066"
       style="display:inline;fill:#a5a5a5;fill-opacity:1;stroke:#a5a5a5;stroke-opacity:0.901961"
       transform="translate(-1.0238747,-37.271939)">
      <text
         xml:space="preserve"
         style="font-style:normal;font-variant:normal;font-weight:normal;font-stretch:normal;font-size:7.05556px;font-family:Arial;-inkscape-font-specification:Arial;text-align:center;text-anchor:middle;fill:#a5a5a5;fill-opacity:1;stroke:#a5a5a5;stroke-width:0.1;stroke-linejoin:bevel;stroke-miterlimit:4.4;stroke-dasharray:none;stroke-opacity:0.901961"
         x="12.534979"
         y="165.50378"
         id="text4136-1"><tspan
           id="tspan4134-8"
           style="font-size:7.05556px;fill:#a5a5a5;fill-opacity:1;stroke:#a5a5a5;stroke-width:0.1;stroke-opacity:0.901961"
           x="12.534979"
           y="165.50378">000</tspan></text>
      <text
         xml:space="preserve"
         style="font-style:normal;font-variant:normal;font-weight:normal;font-stretch:normal;font-size:7.05556px;font-family:Arial;-inkscape-font-specification:Arial;text-align:center;text-anchor:middle;fill:#a5a5a5;fill-opacity:1;stroke:#a5a5a5;stroke-width:0.1;stroke-linejoin:bevel;stroke-miterlimit:4.4;stroke-dasharray:none;stroke-opacity:0.901961"
         x="39.751537"
         y="150.03235"
         id="text4136-6-3"><tspan
           id="tspan4134-5-4"
           style="font-size:7.05556px;fill:#a5a5a5;fill-opacity:1;stroke:#a5a5a5;stroke-width:0.1;stroke-opacity:0.901961"
           x="39.751537"
           y="150.03235">001</tspan></text>
      <text
         xml:space="preserve"
         style="font-style:normal;font-variant:normal;font-weight:normal;font-stretch:normal;font-size:7.05556px;font-family:Arial;-inkscape-font-specification:Arial;text-align:center;text-anchor:middle;fill:#a5a5a5;fill-opacity:1;stroke:#a5a5a5;stroke-width:0.1;stroke-linejoin:bevel;stroke-miterlimit:4.4;stroke-dasharray:none;stroke-opacity:0.901961"
         x="64.675041"
         y="134.56093"
         id="text4136-64-6"><tspan
           id="tspan4134-6-4"
           style="font-size:7.05556px;fill:#a5a5a5;fill-opacity:1;stroke:#a5a5a5;stroke-width:0.1;stroke-opacity:0.901961"
           x="64.675041"
           y="134.56093">010</tspan></text>
      <text
         xml:space="preserve"
         style="font-style:normal;font-variant:normal;font-weight:normal;font-stretch:normal;font-size:7.05556px;font-family:Arial;-inkscape-font-specification:Arial;text-align:center;text-anchor:middle;fill:#a5a5a5;fill-opacity:1;stroke:#a5a5a5;stroke-width:0.1;stroke-linejoin:bevel;stroke-miterlimit:4.4;stroke-dasharray:none;stroke-opacity:0.901961"
         x="90.711998"
         y="119.08949"
         id="text4136-67-6"><tspan
           id="tspan4134-64-3"
           style="font-size:7.05556px;fill:#a5a5a5;fill-opacity:1;stroke:#a5a5a5;stroke-width:0.1;stroke-opacity:0.901961"
           x="90.711998"
           y="119.08949">011</tspan></text>
      <text
         xml:space="preserve"
         style="font-style:normal;font-variant:normal;font-weight:normal;font-stretch:normal;font-size:7.05556px;font-family:Arial;-inkscape-font-specification:Arial;text-align:center;text-anchor:middle;fill:#a5a5a5;fill-opacity:1;stroke:#a5a5a5;stroke-width:0.1;stroke-linejoin:bevel;stroke-miterlimit:4.4;stroke-dasharray:none;stroke-opacity:0.901961"
         x="120.76097"
         y="103.61808"
         id="text4136-1-5"><tspan
           id="tspan4134-8-6"
           style="font-size:7.05556px;fill:#a5a5a5;fill-opacity:1;stroke:#a5a5a5;stroke-width:0.1;stroke-opacity:0.901961"
           x="120.76097"
           y="103.61808">100</tspan></text>
      <text
         xml:space="preserve"
         style="font-style:normal;font-variant:normal;font-weight:normal;font-stretch:normal;font-size:7.05556px;font-family:Arial;-inkscape-font-specification:Arial;text-align:center;text-anchor:middle;fill:#a5a5a5;fill-opacity:1;stroke:#a5a5a5;stroke-width:0.1;stroke-linejoin:bevel;stroke-miterlimit:4.4;stroke-dasharray:none;stroke-opacity:0.901961"
         x="147.97752"
         y="88.146645"
         id="text4136-6-3-4"><tspan
           id="tspan4134-5-4-2"
           style="font-size:7.05556px;fill:#a5a5a5;fill-opacity:1;stroke:#a5a5a5;stroke-width:0.1;stroke-opacity:0.901961"
           x="147.97752"
           y="88.146645">101</tspan></text>
      <text
         xml:space="preserve"
         style="font-style:normal;font-variant:normal;font-weight:normal;font-stretch:normal;font-size:7.05556px;font-family:Arial;-inkscape-font-specification:Arial;text-align:center;text-anchor:middle;fill:#a5a5a5;fill-opacity:1;stroke:#a5a5a5;stroke-width:0.1;stroke-linejoin:bevel;stroke-miterlimit:4.4;stroke-dasharray:none;stroke-opacity:0.901961"
         x="172.90103"
         y="72.675209"
         id="text4136-64-6-2"><tspan
           id="tspan4134-6-4-7"
           style="font-size:7.05556px;fill:#a5a5a5;fill-opacity:1;stroke:#a5a5a5;stroke-width:0.1;stroke-opacity:0.901961"
           x="172.90103"
           y="72.675209">110</tspan></text>
      <text
         xml:space="preserve"
         style="font-style:normal;font-variant:normal;font-weight:normal;font-stretch:normal;font-size:7.05556px;font-family:Arial;-inkscape-font-specification:Arial;text-align:center;text-anchor:middle;fill:#a5a5a5;fill-opacity:1;stroke:#a5a5a5;stroke-width:0.1;stroke-linejoin:bevel;stroke-miterlimit:4.4;stroke-dasharray:none;stroke-opacity:0.901961"
         x="198.93799"
         y="57.203777"
         id="text4136-67-6-8"><tspan
           id="tspan4134-64-3-4"
           style="font-size:7.05556px;fill:#a5a5a5;fill-opacity:1;stroke:#a5a5a5;stroke-width:0.1;stroke-opacity:0.901961"
           x="198.93799"
           y="57.203777">111</tspan></text>
    </g>
    <g
       id="g207"
       transform="matrix(0.22925812,0,0,0.22752102,-114.23697,-26.368691)"
       clip-path="url(#clipPath1524)"
       style="display:inline" />
    <path
       d="m 523.5,679.5 h 1 1 v 0 h 1 1 1 1 1 1 1 v 0 h 1 1 1 1 1 1 v 0 h 1 1 1 1 1 1 v 0 h 1 1 1 1 1 1 1 v 0 h 1 1 1 1 1 1 v 0 h 1 1 1 1 1 1 1 v 0 h 1 1 1 1 1 1 v 0 h 1 1 1 1 1 1 v 0 h 1 1 1 1 1 1 1 v 0 h 1 l 1,-68 h 1 1 1 1 v 0 h 1 1 1 1 1 1 1 v 0 h 1 1 1 1 1 1 v 0 h 1 1 1 1 1 1 v 0 h 1 1 1 1 1 1 1 v 0 h 1 1 1 1 1 1 v 0 h 1 1 1 1 1 1 v 0 h 1 1 1 1 1 1 1 v 0 h 1 1 1 1 1 1 v 0 h 1 1 1 1 1 1 1 v 0 h 1 1 1 1 1 1 v 0 h 1 1 1 1 1 1 v 0 h 1 1 1 1 1 1 1 v 0 h 1 1 1 1 1 1 v 0 h 1 1 1 1 1 1 v 0 h 1 1 1 1 1 1 1 v 0 h 1 1 1 1 1 1 v 0 h 1 1 1 1 1 1 1 v 0 h 1 1 1 1 1 1 v 0 h 1 1 1 1 l 1,-68 h 1 v 0 h 1 1 1 1 1 1 1 v 0 h 1 1 1 1 1 1 v 0 h 1 1 1 1 1 1 1 v 0 h 1 1 1 1 1 1 v 0 h 1 1 1 1 1 1 v 0 h 1 1 1 1 1 1 1 v 0 h 1 1 1 1 1 1 v 0 h 1 1 1 1 1 1 v 0 h 1 1 1 1 1 1 1 v 0 h 1 1 1 1 1 1 v 0 h 1 1 1 1 1 1 1 v 0 h 1 1 1 1 1 1 v 0 h 1 1 1 1 1 1 v 0 h 1 1 1 1 1 1 1 v 0 h 1 1 1 1 1 1 v 0 h 1 1 1 1 1 1 v 0 h 1 1 1 1 1 1 1 v 0 h 1 1 1 1 1 1 v 0 h 1 1 1 1 1 1 1 v -68 h 1 1 1 1 1 1 v 0 h 1 1 1 1 1 1 v 0 h 1 1 1 1 1 1 1 v 0 h 1 1 1 1 1 1 v 0 h 1 1 1 1 1 1 1 v 0 h 1 1 1 1 1 1 v 0 h 1 1 1 1 1 1 v 0 h 1 1 1 1 1 1 1 v 0 h 1 1 1 1 1 1 v 0 h 1 1 1 1 1 1 v 0 h 1 1 1 1 1 1 1 v 0 h 1 1 1 1 1 1 v 0 h 1 1 1 1 1 1 1 v 0 h 1 1 1 1 1 1 v 0 h 1 1 1 1 1 1 v 0 h 1 1 1 1 1 1 1 v 0 h 1 1 1 1 1 1 v 0 h 1 1 1 1 1 1 v 0 h 1 1 1 1 1 1 1 v 0 h 1 l 1,-68 h 1 1 1 1 v 0 h 1 1 1 1 1 1 1 v 0 h 1 1 1 1 1 1 v 0 h 1 1 1 1 1 1 v 0 h 1 1 1 1 1 1 1 v 0 h 1 1 1 1 1 1 v 0 h 1 1 1 1 1 1 1 v 0 h 1 1 1 1 1 1 v 0 h 1 1 1 1 1 1 v 0 h 1 1 1 1 1 1 1 v 0 h 1 1 1 1 1 1 v 0 h 1 1 1 1 1 1 v 0 h 1 1 1 1 1 1 1 v 0 h 1 1 1 1 1 1 v 0 h 1 1 1 1 1 1 1 v 0 h 1 1 1 1 1 1 v 0 h 1 1 1 1 1 1 v 0 h 1 1 1 1 1 1 1 v 0 h 1 1 1 1 1 1 v 0 h 1 1 1 1 l 1,-68 h 1 v 0 h 1 1 1 1 1 1 1 v 0 h 1 1 1 1 1 1 v 0 h 1 1 1 1 1 1 1 v 0 h 1 1 1 1 1 1 v 0 h 1 1 1 1 1 1 v 0 h 1 1 1 1 1 1 1 v 0 h 1 1 1 1 1 1 v 0 h 1 1 1 1 1 1 1 v 0 h 1 1 1 1 1 1 v 0 h 1 1 1 1 1 1 v 0 h 1 1 1 1 1 1 1 v 0 h 1 1 1 1 1 1 v 0 h 1 1 1 1 1 1 v 0 h 1 1 1 1 1 1 1 v 0 h 1 1 1 1 1 1 v 0 h 1 1 1 1 1 1 1 v 0 h 1 1 1 1 1 1 v 0 h 1 1 1 1 1 1 v 0 h 1 1 1 1 1 1 1 v -68 h 1 1 1 1 1 1 v 0 h 1 1 1 1 1 1 v 0 h 1 1 1 1 1 1 1 v 0 h 1 1 1 1 1 1 v 0 h 1 1 1 1 1 1 1 v 0 h 1 1 1 1 1 1 v 0 h 1 1 1 1 1 1 v 0 h 1 1 1 1 1 1 1 v 0 h 1 1 1 1 1 1 v 0 h 1 1 1 1 1 1 1 v 0 h 1 1 1 1 1 1 v 0 h 1 1 1 1 1 1 v 0 h 1 1 1 1 1 1 1 v 0 h 1 1 1 1 1 1 v 0 h 1 1 1 1 1 1 v 0 h 1 1 1 1 1 1 1 v 0 h 1 1 1 1 1 1 v 0 h 1 1 1 1 1 1 1 v 0 h 1 1 1 1 1 1 v 0 h 1 1 l 1,-68 h 1 1 1 v 0 h 1 1 1 1 1 1 1 v 0 h 1 1 1 1 1 1 v 0 h 1 1 1 1 1 1 v 0 h 1 1 1 1 1 1 1 v 0 h 1 1 1 1 1 1 v 0 h 1 1 1 1 1 1 1 v 0 h 1 1 1 1 1 1 v 0 h 1 1 1 1 1 1 v 0 h 1 1 1 1 1 1 1 v 0"
       stroke="#a5a5a5"
       stroke-width="3"
       stroke-linecap="round"
       stroke-linejoin="round"
       stroke-miterlimit="10"
       fill="none"
       id="path205"
       style="display:inline"
       transform="matrix(0.22925812,0,0,0.22752102,-114.23697,-26.368691)" />
  </g>
</svg>
