<?xml version="1.0" encoding="UTF-8" standalone="no"?>
<!-- Created with Inkscape (http://www.inkscape.org/) -->

<svg
   width="217.203mm"
   height="141.511mm"
   viewBox="0 0 217.203 141.511"
   version="1.1"
   id="svg5"
   xmlns="http://www.w3.org/2000/svg"
   xmlns:svg="http://www.w3.org/2000/svg">
  <defs
     id="defs2" />
  <g
     id="layer5"
     style="display:inline">
    <g
       id="g4849"
       style="display:inline"
       transform="translate(-1.0238747,-37.271939)">
      <text
         xml:space="preserve"
         style="font-style:normal;font-variant:normal;font-weight:normal;font-stretch:normal;font-size:11.2889px;font-family:Arial;-inkscape-font-specification:Arial;text-align:center;text-anchor:middle;fill:#ed7d31;fill-opacity:1;stroke:#ed7d31;stroke-width:0.1;stroke-linejoin:bevel;stroke-miterlimit:4.4;stroke-dasharray:none;stroke-opacity:1"
         x="24.580482"
         y="161.39821"
         id="text4136"><tspan
           id="tspan4134"
           style="fill:#ed7d31;fill-opacity:1;stroke:#ed7d31;stroke-width:0.1;stroke-opacity:1"
           x="24.580482"
           y="161.39821">00</tspan></text>
      <text
         xml:space="preserve"
         style="font-style:normal;font-variant:normal;font-weight:normal;font-stretch:normal;font-size:11.2889px;font-family:Arial;-inkscape-font-specification:Arial;text-align:center;text-anchor:middle;fill:#ed7d31;fill-opacity:1;stroke:#ed7d31;stroke-width:0.1;stroke-linejoin:bevel;stroke-miterlimit:4.4;stroke-dasharray:none;stroke-opacity:1"
         x="74.196266"
         y="124.36441"
         id="text4136-6"><tspan
           id="tspan4134-5"
           style="fill:#ed7d31;fill-opacity:1;stroke:#ed7d31;stroke-width:0.1;stroke-opacity:1"
           x="74.196266"
           y="124.36441">01</tspan></text>
      <text
         xml:space="preserve"
         style="font-style:normal;font-variant:normal;font-weight:normal;font-stretch:normal;font-size:11.2889px;font-family:Arial;-inkscape-font-specification:Arial;text-align:center;text-anchor:middle;fill:#ed7d31;fill-opacity:1;stroke:#ed7d31;stroke-width:0.1;stroke-linejoin:bevel;stroke-miterlimit:4.4;stroke-dasharray:none;stroke-opacity:1"
         x="137.96707"
         y="89.6129"
         id="text4136-64"><tspan
           id="tspan4134-6"
           style="fill:#ed7d31;fill-opacity:1;stroke:#ed7d31;stroke-width:0.1;stroke-opacity:1"
           x="137.96707"
           y="89.6129">10</tspan></text>
      <text
         xml:space="preserve"
         style="font-style:normal;font-variant:normal;font-weight:normal;font-stretch:normal;font-size:11.2889px;font-family:Arial;-inkscape-font-specification:Arial;text-align:center;text-anchor:middle;fill:#ed7d31;fill-opacity:1;stroke:#ed7d31;stroke-width:0.1;stroke-linejoin:bevel;stroke-miterlimit:4.4;stroke-dasharray:none;stroke-opacity:1"
         x="188.1239"
         y="55.087189"
         id="text4136-67"><tspan
           id="tspan4134-64"
           style="fill:#ed7d31;fill-opacity:1;stroke:#ed7d31;stroke-width:0.1;stroke-opacity:1"
           x="188.1239"
           y="55.087189">11</tspan></text>
    </g>
    <path
       d="m 523.5,679.5 h 1 1 v 0 h 1 1 1 1 1 1 1 v 0 h 1 1 1 1 1 1 v 0 h 1 1 1 1 1 1 v 0 h 1 1 1 1 1 1 1 v 0 h 1 1 1 1 1 1 v 0 h 1 1 1 1 1 1 1 v 0 h 1 1 1 1 1 1 v 0 h 1 1 1 1 1 1 v 0 h 1 1 1 1 1 1 1 v 0 h 1 1 1 1 1 1 v 0 h 1 1 1 1 1 1 1 v 0 h 1 1 1 1 1 1 v 0 h 1 1 1 1 1 1 v 0 h 1 1 1 1 1 1 1 v 0 h 1 1 1 1 1 1 v 0 h 1 1 1 1 1 1 v 0 h 1 1 1 1 1 1 1 v 0 h 1 1 1 1 1 1 v 0 h 1 1 1 1 1 1 1 v 0 h 1 1 1 1 1 1 v 0 h 1 1 1 1 1 1 v 0 h 1 1 1 1 1 1 1 v 0 l 1,-158 h 1 1 1 1 1 v 0 h 1 1 1 1 1 1 v 0 h 1 1 1 1 1 1 1 v 0 h 1 1 1 1 1 1 v 0 h 1 1 1 1 1 1 1 v 0 h 1 1 1 1 1 1 v 0 h 1 1 1 1 1 1 v 0 h 1 1 1 1 1 1 1 v 0 h 1 1 1 1 1 1 v 0 h 1 1 1 1 1 1 1 v 0 h 1 1 1 1 1 1 v 0 h 1 1 1 1 1 1 v 0 h 1 1 1 1 1 1 1 v 0 h 1 1 1 1 1 1 v 0 h 1 1 1 1 1 1 v 0 h 1 1 1 1 1 1 1 v 0 h 1 1 1 1 1 1 v 0 h 1 1 1 1 1 1 1 v 0 h 1 1 1 1 1 1 v 0 h 1 1 1 1 1 1 v 0 h 1 1 1 1 1 1 1 v 0 h 1 1 1 1 1 1 v 0 h 1 1 1 1 1 1 v 0 h 1 1 1 1 1 1 1 v 0 h 1 1 1 1 1 1 v 0 h 1 1 1 1 1 1 1 v 0 h 1 1 1 1 1 1 v 0 h 1 1 1 1 1 1 v 0 h 1 1 1 1 1 1 1 v 0 h 1 1 1 1 1 1 v 0 h 1 1 1 1 1 1 1 v 0 h 1 1 1 1 1 1 v 0 h 1 1 1 1 1 1 v 0 h 1 1 1 1 1 1 1 v 0 h 1 1 1 1 1 1 v 0 h 1 1 1 1 1 1 v 0 h 1 1 1 1 1 1 1 v 0 h 1 1 1 1 1 1 v 0 h 1 1 1 1 1 1 1 v 0 h 1 1 1 1 1 1 v 0 h 1 1 1 1 1 1 v 0 h 1 1 1 1 1 1 1 v 0 h 1 1 1 1 1 1 v 0 h 1 1 1 1 1 1 v 0 h 1 1 1 1 1 1 1 v 0 h 1 l 1,-159 h 1 1 1 1 v 0 h 1 1 1 1 1 1 1 v 0 h 1 1 1 1 1 1 v 0 h 1 1 1 1 1 1 v 0 h 1 1 1 1 1 1 1 v 0 h 1 1 1 1 1 1 v 0 h 1 1 1 1 1 1 1 v 0 h 1 1 1 1 1 1 v 0 h 1 1 1 1 1 1 v 0 h 1 1 1 1 1 1 1 v 0 h 1 1 1 1 1 1 v 0 h 1 1 1 1 1 1 v 0 h 1 1 1 1 1 1 1 v 0 h 1 1 1 1 1 1 v 0 h 1 1 1 1 1 1 1 v 0 h 1 1 1 1 1 1 v 0 h 1 1 1 1 1 1 v 0 h 1 1 1 1 1 1 1 v 0 h 1 1 1 1 1 1 v 0 h 1 1 1 1 1 1 v 0 h 1 1 1 1 1 1 1 v 0 h 1 1 1 1 1 1 v 0 h 1 1 1 1 1 1 1 v 0 h 1 1 1 1 1 1 v 0 h 1 1 1 1 1 1 v 0 h 1 1 1 1 1 1 1 v 0 h 1 1 1 1 1 1 v 0 h 1 1 1 1 1 1 1 v 0 h 1 1 1 1 1 1 v 0 h 1 1 1 1 1 1 v 0 h 1 1 1 1 1 1 1 v 0 h 1 1 1 1 1 1 v 0 h 1 1 1 1 1 1 v 0 h 1 1 1 1 1 1 1 v 0 h 1 1 1 1 1 1 v 0 h 1 1 1 1 1 1 1 v 0 h 1 1 1 1 1 1 v 0 h 1 1 1 1 1 1 v 0 h 1 1 1 1 1 1 1 v 0 h 1 1 1 1 1 1 v 0 h 1 1 1 1 1 1 v 0 h 1 1 1 1 1 1 1 v 0 h 1 1 1 1 1 1 v 0 h 1 1 1 1 1 1 1 v 0 h 1 1 1 1 1 1 v 0 h 1 1 1 l 1,-159 h 1 1 v 0 h 1 1 1 1 1 1 1 v 0 h 1 1 1 1 1 1 v 0 h 1 1 1 1 1 1 1 v 0 h 1 1 1 1 1 1 v 0 h 1 1 1 1 1 1 v 0 h 1 1 1 1 1 1 1 v 0 h 1 1 1 1 1 1 v 0 h 1 1 1 1 1 1 v 0 h 1 1 1 1 1 1 1 v 0 h 1 1 1 1 1 1 v 0 h 1 1 1 1 1 1 1 v 0 h 1 1 1 1 1 1 v 0 h 1 1 1 1 1 1 v 0 h 1 1 1 1 1 1 1 v 0 h 1 1 1 1 1 1 v 0 h 1 1 1 1 1 1 v 0 h 1 1 1 1 1 1 1 v 0 h 1 1 1 1 1 1 v 0 h 1 1 1 1 1 1 1 v 0 h 1 1 1 1 1 1 v 0 h 1 1 1 1 1 1 v 0 h 1 1 1 1 1 1 1 v 0"
       stroke="#ed7d31"
       stroke-width="3"
       stroke-linecap="round"
       stroke-linejoin="round"
       stroke-miterlimit="10"
       fill="none"
       id="path201"
       style="display:inline"
       transform="matrix(0.22925812,0,0,0.22752102,-114.23697,-26.368691)" />
  </g>
</svg>
