<?xml version="1.0" encoding="UTF-8" standalone="no"?>
<!-- Created with Inkscape (http://www.inkscape.org/) -->

<svg
   width="217.203mm"
   height="141.511mm"
   viewBox="0 0 217.203 141.511"
   version="1.1"
   id="svg5"
   xmlns="http://www.w3.org/2000/svg"
   xmlns:svg="http://www.w3.org/2000/svg">
  <defs
     id="defs2" />
  <g
     id="layer9"
     style="display:inline">
    <path
       style="color:#000000;fill:#264478;stroke-linecap:round;stroke-linejoin:round;stroke-miterlimit:10;-inkscape-stroke:none"
       d="m 204.42383,56.861328 a 0.34261625,0.34261625 0 0 0 -0.33203,0.257813 l -0.16407,0.652343 h -0.1914 -0.22852 -0.23047 -0.22851 -0.23047 a 0.34261625,0.34261625 0 0 0 -0.33203,0.257813 l -0.16406,0.652344 h -0.19141 -0.22852 -0.22851 -0.23047 -0.22852 a 0.34261625,0.34261625 0 0 0 -0.32422,0.232421 l -0.15234,0.449219 h -0.21094 -0.23047 -0.22851 -0.23047 -0.22852 a 0.34261625,0.34261625 0 0 0 -0.33203,0.259766 l -0.16406,0.65039 h -0.19141 -0.22851 -0.23047 -0.22852 -0.23046 a 0.34261625,0.34261625 0 0 0 -0.33204,0.259766 l -0.16406,0.650391 h -0.1914 -0.22852 -0.22852 -0.23046 -0.22852 a 0.34261625,0.34261625 0 0 0 -0.33203,0.259765 l -0.16406,0.650391 h -0.19141 -0.23047 -0.22851 -0.22852 -0.23047 a 0.34261625,0.34261625 0 0 0 -0.32422,0.234375 l -0.15039,0.449219 h -0.21289 -0.22851 -0.23047 -0.22852 -0.23047 a 0.34261625,0.34261625 0 0 0 -0.34179,0.341797 V 63.6875 h -0.11524 -0.23047 -0.22851 -0.22852 -0.23047 a 0.34261625,0.34261625 0 0 0 -0.33203,0.257812 l -0.16406,0.652344 h -0.19141 -0.22851 -0.23047 -0.22852 -0.22851 a 0.34261625,0.34261625 0 0 0 -0.34375,0.341797 v 0.568359 h -0.11524 -0.23047 -0.22851 -0.22852 -0.23047 a 0.34261625,0.34261625 0 0 0 -0.32421,0.232422 l -0.1504,0.449219 h -0.21289 -0.22851 -0.23047 -0.22852 -0.22851 a 0.34261625,0.34261625 0 0 0 -0.33203,0.259766 l -0.16407,0.65039 h -0.19335 -0.22852 -0.22852 -0.23046 -0.22852 a 0.34261625,0.34261625 0 0 0 -0.33203,0.259766 l -0.16406,0.650391 h -0.19141 -0.23047 -0.22851 -0.22852 -0.23047 a 0.34261625,0.34261625 0 0 0 -0.33203,0.259765 l -0.16406,0.650391 h -0.19141 -0.22851 -0.23047 -0.22852 -0.22851 a 0.34261625,0.34261625 0 0 0 -0.32618,0.232422 l -0.15039,0.449218 h -0.21289 -0.22851 -0.22852 -0.23047 -0.22851 a 0.34261625,0.34261625 0 0 0 -0.33203,0.259766 l -0.16407,0.650391 h -0.1914 -0.23047 -0.22852 -0.22851 a 0.34261625,0.34261625 0 0 0 -0.33203,0.259765 l -0.16407,0.650391 h -0.1914 -0.23047 -0.22852 -0.23047 -0.22851 a 0.34261625,0.34261625 0 0 0 -0.33203,0.259766 l -0.16407,0.65039 h -0.1914 -0.23047 -0.22852 -0.22851 -0.23047 a 0.34261625,0.34261625 0 0 0 -0.32422,0.234375 L 175.75,73.015625 h -0.21289 -0.22852 -0.23047 -0.22851 -0.22852 a 0.34261625,0.34261625 0 0 0 -0.33203,0.257812 l -0.16406,0.652344 h -0.19141 -0.23047 -0.22851 -0.23047 -0.22852 a 0.34261625,0.34261625 0 0 0 -0.33203,0.257813 l -0.16406,0.652343 h -0.19141 -0.23046 -0.22852 -0.22852 -0.23046 a 0.34261625,0.34261625 0 0 0 -0.33204,0.257813 l -0.16406,0.652344 h -0.1914 -0.22852 -0.23047 -0.22851 -0.22852 a 0.34261625,0.34261625 0 0 0 -0.34375,0.341797 v 0.339843 h -0.11523 -0.22852 -0.23047 -0.22851 -0.23047 -0.22852 a 0.34261625,0.34261625 0 0 0 -0.3418,0.34375 v 0.566407 h -0.11718 -0.22852 -0.22851 -0.23047 -0.22852 a 0.34261625,0.34261625 0 0 0 -0.34375,0.34375 v 0.566406 h -0.11523 -0.22852 -0.23047 -0.22851 -0.23047 -0.22852 a 0.34261625,0.34261625 0 0 0 -0.34179,0.341797 v 0.568359 h -0.11719 -0.22852 -0.22851 -0.23047 -0.22852 a 0.34261625,0.34261625 0 0 0 -0.32422,0.234375 l -0.15234,0.447266 h -0.21094 -0.23047 -0.22851 -0.22852 -0.23047 a 0.34261625,0.34261625 0 0 0 -0.33203,0.259765 L 161.74414,80.75 h -0.19141 -0.22851 -0.23047 -0.22852 -0.23046 a 0.34261625,0.34261625 0 0 0 -0.33204,0.259766 l -0.16406,0.65039 h -0.1914 -0.22852 -0.22852 -0.23046 -0.22852 a 0.34261625,0.34261625 0 0 0 -0.33203,0.259766 l -0.16406,0.65039 h -0.19141 -0.23047 -0.22851 -0.22852 -0.23047 a 0.34261625,0.34261625 0 0 0 -0.32422,0.234375 l -0.15039,0.449219 h -0.21289 -0.22851 -0.23047 -0.22852 -0.22851 a 0.34261625,0.34261625 0 0 0 -0.33399,0.257813 l -0.16406,0.652343 h -0.19141 -0.22851 -0.22852 -0.23047 a 0.34261625,0.34261625 0 0 0 -0.33203,0.257813 l -0.16406,0.652344 h -0.19141 -0.22851 -0.23047 -0.22852 -0.22851 a 0.34261625,0.34261625 0 0 0 -0.33399,0.257812 l -0.16406,0.652344 h -0.19141 -0.22851 -0.22852 -0.23047 -0.22851 a 0.34261625,0.34261625 0 0 0 -0.32422,0.232422 l -0.15234,0.449219 h -0.21094 -0.23047 -0.22852 -0.22851 -0.23047 a 0.34261625,0.34261625 0 0 0 -0.33203,0.259765 l -0.16406,0.650391 h -0.19141 -0.22852 -0.23047 -0.22851 -0.22852 a 0.34261625,0.34261625 0 0 0 -0.33398,0.259765 l -0.16211,0.650391 h -0.19336 -0.22852 -0.22851 -0.23047 -0.22852 a 0.34261625,0.34261625 0 0 0 -0.34179,0.34375 v 0.566406 h -0.11719 -0.22852 -0.23046 -0.22852 -0.22852 -0.23046 a 0.34261625,0.34261625 0 0 0 -0.3418,0.34375 v 0.339844 h -0.11524 -0.23046 -0.22852 -0.23047 -0.22851 a 0.34261625,0.34261625 0 0 0 -0.33204,0.257813 l -0.16406,0.652343 h -0.1914 -0.23047 -0.22852 -0.22851 -0.23047 a 0.34261625,0.34261625 0 0 0 -0.3418,0.341797 v 0.56836 h -0.11523 -0.23047 -0.22852 -0.23047 -0.22851 a 0.34261625,0.34261625 0 0 0 -0.33203,0.257812 l -0.16407,0.650391 h -0.1914 -0.22852 -0.23047 -0.22851 -0.23047 a 0.34261625,0.34261625 0 0 0 -0.32422,0.234375 l -0.15039,0.449218 h -0.21289 -0.22852 -0.23047 -0.22851 -0.22852 A 0.34261625,0.34261625 0 0 0 136.91992,93.75 l -0.16406,0.652344 h -0.19141 -0.23047 -0.22851 -0.23047 -0.22852 a 0.34261625,0.34261625 0 0 0 -0.33203,0.257812 l -0.16406,0.652344 h -0.19141 -0.22851 -0.23047 -0.22852 -0.23046 a 0.34261625,0.34261625 0 0 0 -0.33204,0.257812 l -0.16406,0.652344 h -0.1914 -0.22852 -0.23047 -0.22851 -0.22852 a 0.34261625,0.34261625 0 0 0 -0.32617,0.232422 l -0.15039,0.449219 h -0.21094 -0.23047 -0.22851 -0.23047 -0.22852 A 0.34261625,0.34261625 0 0 0 130.5,97.164062 l -0.16406,0.650391 h -0.19141 -0.22851 -0.23047 -0.22852 a 0.34261625,0.34261625 0 0 0 -0.33203,0.259766 l -0.16406,0.65039 h -0.19141 -0.23047 -0.22851 -0.22852 -0.23047 a 0.34261625,0.34261625 0 0 0 -0.33203,0.259766 l -0.16406,0.650391 h -0.19141 -0.22851 -0.23047 -0.22852 -0.23047 a 0.34261625,0.34261625 0 0 0 -0.32421,0.234375 l -0.1504,0.449219 h -0.21289 -0.22851 -0.22852 -0.23047 -0.22851 a 0.34261625,0.34261625 0 0 0 -0.33203,0.25781 l -0.16407,0.65235 h -0.1914 -0.23047 -0.22852 -0.22851 -0.23047 a 0.34261625,0.34261625 0 0 0 -0.33203,0.25781 l -0.16406,0.65234 h -0.19141 -0.22852 -0.23046 -0.22852 -0.23047 a 0.34261625,0.34261625 0 0 0 -0.3418,0.3418 v 0.56836 h -0.11523 -0.23047 -0.22851 -0.22852 -0.23047 a 0.34261625,0.34261625 0 0 0 -0.32422,0.23242 l -0.15039,0.44922 h -0.21289 -0.22851 -0.23047 -0.22852 -0.22851 a 0.34261625,0.34261625 0 0 0 -0.33399,0.25976 l -0.16406,0.6504 h -0.19141 -0.22851 -0.22852 -0.23047 a 0.34261625,0.34261625 0 0 0 -0.33203,0.25976 l -0.16406,0.65039 h -0.19141 -0.22851 -0.23047 -0.22852 -0.22851 a 0.34261625,0.34261625 0 0 0 -0.33203,0.25977 l -0.16407,0.65039 h -0.19336 -0.22851 -0.22852 -0.23047 -0.22851 a 0.34261625,0.34261625 0 0 0 -0.32422,0.23242 l -0.15234,0.44922 h -0.21094 -0.23047 -0.22852 -0.22851 -0.23047 a 0.34261625,0.34261625 0 0 0 -0.33203,0.25976 l -0.16406,0.65039 h -0.19141 -0.22852 -0.23047 -0.22851 -0.22852 a 0.34261625,0.34261625 0 0 0 -0.33203,0.25977 l -0.16406,0.65039 h -0.19336 -0.22852 -0.22851 -0.23047 -0.22852 a 0.34261625,0.34261625 0 0 0 -0.33203,0.25977 l -0.16406,0.65039 h -0.19141 -0.23046 -0.22852 -0.22852 -0.23046 a 0.34261625,0.34261625 0 0 0 -0.32422,0.23437 l -0.15039,0.44922 h -0.21289 -0.22852 -0.23047 -0.22851 -0.22852 a 0.34261625,0.34261625 0 0 0 -0.33203,0.25781 l -0.16406,0.65235 h -0.19336 -0.22852 -0.22851 -0.23047 a 0.34261625,0.34261625 0 0 0 -0.33203,0.25781 l -0.16407,0.65234 h -0.1914 -0.22852 -0.23047 -0.22851 -0.22852 a 0.34261625,0.34261625 0 0 0 -0.33203,0.25782 l -0.16406,0.65234 h -0.19141 -0.23047 -0.22851 -0.23047 -0.22852 a 0.34261625,0.34261625 0 0 0 -0.32422,0.23242 l -0.15039,0.44922 h -0.21289 -0.22851 -0.23047 -0.228518 -0.230468 a 0.34261625,0.34261625 0 0 0 -0.332032,0.25977 l -0.164062,0.65039 h -0.191406 -0.228516 -0.230469 -0.228515 -0.228516 a 0.34261625,0.34261625 0 0 0 -0.34375,0.34179 v 0.56836 h -0.115234 -0.228516 -0.230469 -0.228515 -0.230469 a 0.34261625,0.34261625 0 0 0 -0.332031,0.25977 l -0.164063,0.65039 h -0.191406 -0.228516 -0.228515 -0.230469 -0.228516 a 0.34261625,0.34261625 0 0 0 -0.326172,0.23437 l -0.15039,0.44727 h -0.210938 -0.230468 -0.228516 -0.230469 a 0.34261625,0.34261625 0 0 0 -0.332031,0.25977 l -0.164063,0.65039 h -0.191406 -0.228515 -0.228516 -0.230469 -0.228515 a 0.34261625,0.34261625 0 0 0 -0.332032,0.25976 l -0.164062,0.65039 h -0.191406 -0.230469 -0.228516 -0.228515 -0.230469 a 0.34261625,0.34261625 0 0 0 -0.332031,0.25977 l -0.164063,0.65039 h -0.191406 -0.228516 -0.230469 -0.228515 -0.228516 a 0.34261625,0.34261625 0 0 0 -0.326172,0.23437 l -0.15039,0.44922 h -0.212891 -0.228516 -0.228515 -0.230469 -0.228516 a 0.34261625,0.34261625 0 0 0 -0.332031,0.25781 l -0.164062,0.65235 h -0.191407 -0.230468 -0.228516 -0.228516 -0.230468 a 0.34261625,0.34261625 0 0 0 -0.332032,0.25781 l -0.164062,0.65234 h -0.191406 -0.228516 -0.230469 -0.228515 -0.228516 a 0.34261625,0.34261625 0 0 0 -0.333984,0.25782 l -0.164063,0.65234 H 83.375 83.146484 82.917969 82.6875 82.458984 a 0.34261625,0.34261625 0 0 0 -0.324218,0.23242 l -0.152344,0.44922 H 81.771484 81.541016 81.3125 81.083984 A 0.34261625,0.34261625 0 0 0 80.75,124.4668 l -0.164063,0.65039 H 80.394531 80.166016 79.9375 79.707031 79.478516 a 0.34261625,0.34261625 0 0 0 -0.332032,0.25976 l -0.164062,0.65039 h -0.191406 -0.230469 -0.228516 -0.228515 -0.230469 a 0.34261625,0.34261625 0 0 0 -0.332031,0.25977 l -0.164063,0.65039 h -0.191406 -0.228516 -0.230469 -0.228515 -0.228516 a 0.34261625,0.34261625 0 0 0 -0.326172,0.23438 l -0.15039,0.44921 h -0.212891 -0.228516 -0.228515 -0.230469 -0.228516 a 0.34261625,0.34261625 0 0 0 -0.341796,0.3418 v 0.56836 h -0.117188 -0.228516 -0.230468 -0.228516 -0.228516 -0.230468 a 0.34261625,0.34261625 0 0 0 -0.341797,0.3418 v 0.5664 h -0.115235 -0.230468 -0.228516 -0.230469 -0.228515 a 0.34261625,0.34261625 0 0 0 -0.332032,0.25977 l -0.164062,0.65039 h -0.191406 -0.230469 -0.228516 -0.228515 -0.230469 a 0.34261625,0.34261625 0 0 0 -0.324219,0.23437 l -0.15039,0.44922 h -0.212891 -0.228516 -0.230468 -0.228516 a 0.34261625,0.34261625 0 0 0 -0.332031,0.25782 l -0.164063,0.65234 h -0.191406 -0.228516 -0.230468 -0.228516 -0.230469 a 0.34261625,0.34261625 0 0 0 -0.332031,0.25781 l -0.164063,0.65235 h -0.191406 -0.228515 -0.230469 -0.228516 -0.228515 a 0.34261625,0.34261625 0 0 0 -0.332032,0.25781 l -0.164062,0.65234 h -0.191406 -0.230469 -0.228516 -0.230469 -0.228515 a 0.34261625,0.34261625 0 0 0 -0.324219,0.23242 l -0.150391,0.44922 h -0.21289 -0.228516 -0.230469 -0.228515 -0.230469 a 0.34261625,0.34261625 0 0 0 -0.332031,0.25977 l -0.164063,0.65039 h -0.191406 -0.228516 -0.228515 -0.230469 -0.228516 a 0.34261625,0.34261625 0 0 0 -0.332031,0.25976 l -0.164062,0.65039 h -0.191407 -0.230468 -0.228516 -0.230469 -0.228515 a 0.34261625,0.34261625 0 0 0 -0.332032,0.25977 l -0.164062,0.65039 H 58.386719 58.158203 57.927734 57.699219 57.46875 a 0.34261625,0.34261625 0 0 0 -0.324219,0.23438 l -0.15039,0.44921 H 56.78125 56.552734 56.324219 56.09375 a 0.34261625,0.34261625 0 0 0 -0.332031,0.25782 l -0.164063,0.65234 H 55.40625 55.177734 54.947266 54.71875 54.488281 a 0.34261625,0.34261625 0 0 0 -0.332031,0.25781 l -0.164063,0.65235 H 53.800781 53.572266 53.34375 53.113281 52.884766 a 0.34261625,0.34261625 0 0 0 -0.332032,0.25781 l -0.164062,0.65234 h -0.191406 -0.230469 -0.228516 -0.228515 -0.230469 a 0.34261625,0.34261625 0 0 0 -0.341797,0.3418 v 0.33984 h -0.117188 -0.228515 -0.228516 -0.230469 -0.228515 -0.230469 a 0.34261625,0.34261625 0 0 0 -0.341797,0.3418 v 0.56836 h -0.115234 -0.230469 -0.228516 -0.228515 -0.230469 a 0.34261625,0.34261625 0 0 0 -0.332031,0.25977 l -0.164063,0.65039 h -0.191406 -0.228516 -0.230468 -0.228516 -0.228516 a 0.34261625,0.34261625 0 0 0 -0.333984,0.25781 l -0.164062,0.65234 h -0.191407 -0.228515 -0.228516 -0.230469 -0.228515 a 0.34261625,0.34261625 0 0 0 -0.324219,0.23242 l -0.152344,0.44922 h -0.210937 -0.230469 -0.228516 -0.228515 a 0.34261625,0.34261625 0 0 0 -0.332032,0.25977 l -0.164062,0.65039 h -0.193359 -0.228516 -0.228516 -0.230468 -0.228516 a 0.34261625,0.34261625 0 0 0 -0.332031,0.25977 l -0.164063,0.65039 h -0.191406 -0.230469 -0.228515 -0.228516 -0.230469 a 0.34261625,0.34261625 0 0 0 -0.332031,0.25976 l -0.164063,0.65039 h -0.191406 -0.228515 -0.230469 -0.228516 -0.228515 a 0.34261625,0.34261625 0 0 0 -0.326172,0.23438 l -0.150391,0.44922 h -0.212891 -0.228515 -0.228516 -0.230469 -0.228515 a 0.34261625,0.34261625 0 0 0 -0.332031,0.25781 l -0.164063,0.65234 h -0.191406 -0.230469 -0.228516 -0.228515 -0.230469 a 0.34261625,0.34261625 0 0 0 -0.332031,0.25781 l -0.164063,0.65235 h -0.191406 -0.228516 -0.230468 -0.228516 -0.228516 a 0.34261625,0.34261625 0 0 0 -0.332031,0.25781 l -0.164062,0.65234 h -0.191407 -0.230468 -0.228516 -0.230469 -0.228515 a 0.34261625,0.34261625 0 0 0 -0.324219,0.23243 l -0.152344,0.44922 H 31.792969 31.5625 31.333984 31.105469 a 0.34261625,0.34261625 0 0 0 -0.332032,0.25976 l -0.164062,0.65039 H 30.417969 30.1875 29.958984 29.728516 29.5 a 0.34261625,0.34261625 0 0 0 -0.332031,0.25977 l -0.164063,0.65039 H 28.8125 28.583984 28.353516 28.125 27.894531 a 0.34261625,0.34261625 0 0 0 -0.341797,0.34179 v 0.56836 H 27.4375 27.207031 26.978516 26.748047 26.519531 26.291016 a 0.34261625,0.34261625 0 0 0 -0.34375,0.3418 v 0.33984 h -0.115235 -0.228515 -0.230469 -0.228516 -0.230469 a 0.34261625,0.34261625 0 0 0 -0.332031,0.25977 l -0.164062,0.65039 h -0.191407 -0.228515 -0.228516 -0.230469 -0.228515 a 0.34261625,0.34261625 0 0 0 -0.332031,0.25977 l -0.164063,0.65039 h -0.191406 -0.230469 -0.228516 -0.230468 -0.228516 a 0.34261625,0.34261625 0 0 0 -0.332031,0.25976 l -0.164063,0.65039 h -0.191406 -0.228516 -0.230468 -0.228516 -0.230469 a 0.34261625,0.34261625 0 0 0 -0.324218,0.23438 L 19.625,158.33594 h -0.212891 -0.228515 -0.228516 -0.230469 a 0.34261625,0.34261625 0 0 0 -0.332031,0.25781 l -0.164062,0.65234 h -0.191407 -0.228515 -0.230469 -0.228516 -0.228515 a 0.34261625,0.34261625 0 0 0 -0.333985,0.25782 l -0.164062,0.65234 h -0.191406 -0.228516 -0.228516 -0.230468 -0.228516 a 0.34261625,0.34261625 0 0 0 -0.332031,0.25781 l -0.164063,0.65235 h -0.191406 -0.230469 -0.228515 -0.228516 -0.230469 a 0.34261625,0.34261625 0 0 0 -0.324218,0.23242 l -0.150391,0.44922 h -0.212891 -0.228515 -0.230469 -0.228516 -0.228515 a 0.34261625,0.34261625 0 0 0 -0.333985,0.25976 l -0.164062,0.65039 h -0.191406 -0.228516 -0.228516 -0.230468 -0.228516 a 0.34261625,0.34261625 0 0 0 -0.332031,0.25977 l -0.164063,0.65039 H 10.013672 9.7832031 9.5546875 9.3261719 9.0957031 a 0.34261625,0.34261625 0 0 0 -0.3320312,0.25976 l -0.1640625,0.6504 H 8.4082031 8.1796875 7.9492187 7.7207031 7.4921875 a 0.34261625,0.34261625 0 0 0 -0.3261719,0.23437 L 7.015625,165.16211 H 6.8027344 a 0.34258199,0.34258199 0 0 0 -0.3417969,0.3418 0.34258199,0.34258199 0 0 0 0.3417969,0.34179 h 0.2304687 0.2285156 a 0.34261625,0.34261625 0 0 0 0.3242188,-0.23242 l 0.1523437,-0.44922 h 0.2109375 0.2304688 0.2285156 0.2285157 0.2304687 a 0.34261625,0.34261625 0 0 0 0.3320313,-0.25976 l 0.1640625,-0.65039 h 0.1914062 0.2285156 0.2304689 0.228516 0.228515 a 0.34261625,0.34261625 0 0 0 0.333985,-0.25977 l 0.164062,-0.65039 h 0.191406 0.228516 0.228516 0.230468 0.228516 a 0.34261625,0.34261625 0 0 0 0.332031,-0.25977 l 0.164063,-0.65039 h 0.191406 0.230469 0.228515 0.228516 0.230469 a 0.34261625,0.34261625 0 0 0 0.324218,-0.23437 l 0.150391,-0.44727 h 0.212891 0.228515 0.230469 0.228516 0.228515 a 0.34261625,0.34261625 0 0 0 0.333985,-0.25976 l 0.164062,-0.65039 h 0.191406 0.228516 0.228516 0.230468 0.228516 a 0.34261625,0.34261625 0 0 0 0.332031,-0.25977 l 0.164063,-0.65039 h 0.191406 0.230469 0.228515 0.228516 0.230469 a 0.34261625,0.34261625 0 0 0 0.332031,-0.25977 l 0.164062,-0.65039 h 0.191407 0.228515 0.230469 0.228516 a 0.34261625,0.34261625 0 0 0 0.324218,-0.23437 l 0.152344,-0.44922 h 0.210938 0.230468 0.228516 0.228516 0.230468 a 0.34261625,0.34261625 0 0 0 0.332032,-0.25781 l 0.164062,-0.65235 h 0.191406 0.228516 0.230469 0.228515 0.228516 a 0.34261625,0.34261625 0 0 0 0.332031,-0.25781 l 0.164063,-0.65234 h 0.193359 0.228516 0.228515 0.230469 0.228516 a 0.34261625,0.34261625 0 0 0 0.332031,-0.25781 l 0.164063,-0.65235 h 0.191406 0.230469 0.228515 0.228516 0.230469 a 0.34261625,0.34261625 0 0 0 0.341796,-0.3418 v -0.33984 h 0.115235 0.230469 0.228515 0.230469 0.228516 0.228515 a 0.34261625,0.34261625 0 0 0 0.34375,-0.34375 v -0.56641 h 0.115235 0.230468 0.228516 0.228516 0.230468 a 0.34261625,0.34261625 0 0 0 0.332032,-0.25976 l 0.164062,-0.65039 h 0.191406 0.228516 0.230469 0.228515 0.228516 a 0.34261625,0.34261625 0 0 0 0.332031,-0.25977 l 0.164063,-0.65039 h 0.191406 0.230469 0.228515 0.230469 a 0.34261625,0.34261625 0 0 0 0.324219,-0.23437 l 0.15039,-0.44922 h 0.212891 0.228516 0.230468 0.228516 0.228516 a 0.34261625,0.34261625 0 0 0 0.332031,-0.25781 l 0.164062,-0.65235 h 0.191407 0.230468 0.228516 0.230469 0.228515 a 0.34261625,0.34261625 0 0 0 0.332032,-0.25781 l 0.164062,-0.65234 h 0.191406 0.228516 0.230469 0.228515 0.230469 a 0.34261625,0.34261625 0 0 0 0.332031,-0.25782 L 37.5625,148.7832 h 0.191406 0.228516 0.228515 0.230469 0.228516 a 0.34261625,0.34261625 0 0 0 0.326172,-0.23437 l 0.15039,-0.44922 h 0.210938 0.230469 0.228515 0.230469 0.228516 a 0.34261625,0.34261625 0 0 0 0.332031,-0.25781 l 0.164062,-0.65235 h 0.191407 0.228515 0.230469 0.228516 0.230468 a 0.34261625,0.34261625 0 0 0 0.332032,-0.25781 l 0.164062,-0.65234 h 0.191406 0.228516 0.228516 0.230468 0.228516 a 0.34261625,0.34261625 0 0 0 0.332031,-0.25782 l 0.164063,-0.65234 h 0.191406 0.230469 0.228515 0.230469 a 0.34261625,0.34261625 0 0 0 0.324219,-0.23242 l 0.15039,-0.44922 h 0.212891 0.228516 0.228515 0.230469 0.228516 a 0.34261625,0.34261625 0 0 0 0.332031,-0.25977 l 0.164062,-0.65039 h 0.191407 0.230468 0.228516 0.228516 0.230468 a 0.34261625,0.34261625 0 0 0 0.332032,-0.25976 l 0.164062,-0.65039 h 0.191406 0.228516 0.230469 0.228515 0.228516 a 0.34261625,0.34261625 0 0 0 0.34375,-0.34375 v -0.56641 h 0.115234 0.230469 0.228516 0.228515 0.230469 0.228516 a 0.34261625,0.34261625 0 0 0 0.34375,-0.34375 v -0.33984 h 0.115234 0.228516 0.230469 0.228515 0.228516 a 0.34261625,0.34261625 0 0 0 0.333984,-0.25782 l 0.164063,-0.65234 h 0.191406 0.228516 0.228515 0.230469 0.228516 a 0.34261625,0.34261625 0 0 0 0.332031,-0.25781 l 0.164062,-0.65235 h 0.191407 0.230468 0.228516 0.228516 0.230468 a 0.34261625,0.34261625 0 0 0 0.332032,-0.25781 l 0.164062,-0.65234 h 0.191406 0.228516 0.230469 0.228515 a 0.34261625,0.34261625 0 0 0 0.324219,-0.23242 l 0.152344,-0.44922 h 0.210937 0.230469 0.228516 0.228515 0.230469 a 0.34261625,0.34261625 0 0 0 0.332031,-0.25977 l 0.164063,-0.65039 h 0.191406 0.228516 0.230468 0.228516 0.228516 a 0.34261625,0.34261625 0 0 0 0.332031,-0.25976 l 0.164062,-0.65039 h 0.19336 0.228515 0.228516 0.230469 0.228515 a 0.34261625,0.34261625 0 0 0 0.332032,-0.25977 l 0.164062,-0.65039 h 0.191406 0.230469 0.228516 0.228515 0.230469 a 0.34261625,0.34261625 0 0 0 0.324219,-0.23242 l 0.150391,-0.44922 h 0.21289 0.228516 0.230469 0.228515 0.228516 a 0.34261625,0.34261625 0 0 0 0.332031,-0.25977 l 0.164063,-0.65039 h 0.191406 0.230469 0.228515 0.230469 0.228516 a 0.34261625,0.34261625 0 0 0 0.332031,-0.25976 l 0.164062,-0.65039 h 0.191407 0.230468 0.228516 0.228516 0.230468 a 0.34261625,0.34261625 0 0 0 0.332032,-0.25977 l 0.164062,-0.65039 h 0.191406 0.228516 0.230469 0.228515 a 0.34261625,0.34261625 0 0 0 0.324219,-0.23438 l 0.150391,-0.44921 h 0.21289 0.228516 0.230469 0.228515 0.230469 a 0.34261625,0.34261625 0 0 0 0.332031,-0.25782 l 0.164063,-0.65234 h 0.191406 0.228516 0.230468 0.228516 0.228516 a 0.34261625,0.34261625 0 0 0 0.34375,-0.3418 v -0.56836 h 0.115234 0.228516 0.230468 0.228516 0.230469 0.228515 a 0.34261625,0.34261625 0 0 0 0.341797,-0.34179 v -0.56836 h 0.117188 0.228515 0.228516 0.230469 0.228515 a 0.34261625,0.34261625 0 0 0 0.324219,-0.23242 l 0.152344,-0.44922 h 0.210937 0.230469 0.228516 0.228515 0.230469 a 0.34261625,0.34261625 0 0 0 0.332031,-0.25977 l 0.164063,-0.65039 h 0.191406 0.228516 0.230469 0.228515 H 79.25 a 0.34261625,0.34261625 0 0 0 0.332031,-0.25976 l 0.164063,-0.6504 h 0.191406 0.228516 0.228515 0.230469 0.228516 a 0.34261625,0.34261625 0 0 0 0.332031,-0.25976 l 0.164062,-0.65039 H 81.541016 81.771484 82 82.228516 a 0.34261625,0.34261625 0 0 0 0.326171,-0.23438 l 0.150391,-0.44726 h 0.212891 0.228515 0.228516 0.230469 0.228515 a 0.34261625,0.34261625 0 0 0 0.332032,-0.25977 l 0.164062,-0.65039 h 0.191406 0.230469 0.228516 0.228515 0.230469 a 0.34261625,0.34261625 0 0 0 0.332031,-0.25976 l 0.164063,-0.65039 h 0.191406 0.228516 0.230468 0.228516 0.228516 a 0.34261625,0.34261625 0 0 0 0.333984,-0.25977 l 0.164063,-0.65039 h 0.191406 0.228515 0.228516 0.230469 0.228515 a 0.34261625,0.34261625 0 0 0 0.324219,-0.23438 L 89.125,120.79688 h 0.210937 0.230469 0.228516 0.228515 0.230469 a 0.34261625,0.34261625 0 0 0 0.332031,-0.25782 L 90.75,119.88672 h 0.191406 0.228516 0.230469 0.228515 0.228516 a 0.34261625,0.34261625 0 0 0 0.333984,-0.25781 l 0.164063,-0.65235 h 0.191406 0.228516 0.228515 0.230469 0.228516 a 0.34261625,0.34261625 0 0 0 0.332031,-0.25781 l 0.164062,-0.65234 h 0.191407 0.230468 0.228516 0.228516 a 0.34261625,0.34261625 0 0 0 0.326171,-0.23243 l 0.150391,-0.44921 h 0.212891 0.228515 0.228516 0.230469 0.228515 a 0.34261625,0.34261625 0 0 0 0.332032,-0.25977 l 0.164062,-0.65039 h 0.191406 0.230469 0.228516 0.228515 0.230469 a 0.34261625,0.34261625 0 0 0 0.341797,-0.34375 v -0.56641 h 0.115234 0.230469 0.228516 0.230468 0.228516 a 0.34261625,0.34261625 0 0 0 0.332031,-0.25976 l 0.164063,-0.65039 h 0.191408 0.23047 0.22851 0.22852 0.23047 a 0.34261625,0.34261625 0 0 0 0.32422,-0.23438 l 0.15039,-0.44922 h 0.21289 0.22851 0.23047 0.22852 0.22851 a 0.34261625,0.34261625 0 0 0 0.33203,-0.25781 l 0.16407,-0.65234 h 0.1914 0.23047 0.22852 0.23047 0.22851 a 0.34261625,0.34261625 0 0 0 0.33203,-0.25782 l 0.16407,-0.65039 h 0.1914 0.22852 0.23047 0.22851 a 0.34261625,0.34261625 0 0 0 0.33203,-0.25976 l 0.16407,-0.65039 h 0.1914 0.23047 0.22852 0.23046 0.22852 a 0.34261625,0.34261625 0 0 0 0.32422,-0.23438 l 0.15039,-0.44922 h 0.21289 0.22852 0.23046 0.22852 0.23047 a 0.34261625,0.34261625 0 0 0 0.33203,-0.25781 l 0.16406,-0.65234 h 0.19141 0.22851 0.22852 0.23047 0.22851 a 0.34261625,0.34261625 0 0 0 0.33204,-0.25781 l 0.16406,-0.65235 h 0.1914 0.23047 0.22852 0.23047 0.22851 a 0.34261625,0.34261625 0 0 0 0.33203,-0.25781 l 0.16407,-0.65234 h 0.1914 0.22852 0.23047 0.22851 0.23047 a 0.34261625,0.34261625 0 0 0 0.32422,-0.23243 l 0.15039,-0.44922 h 0.21289 0.22852 0.22851 0.23047 0.22852 a 0.34261625,0.34261625 0 0 0 0.33203,-0.25976 l 0.16406,-0.65039 h 0.19141 0.23047 0.22851 0.23047 0.22852 a 0.34261625,0.34261625 0 0 0 0.33203,-0.25977 l 0.16406,-0.65039 h 0.19141 0.22851 0.23047 0.22852 a 0.34261625,0.34261625 0 0 0 0.33203,-0.25976 l 0.16406,-0.65039 h 0.19141 0.23047 0.22851 0.22852 0.23047 a 0.34261625,0.34261625 0 0 0 0.32421,-0.23438 l 0.15039,-0.44922 h 0.2129 0.22851 0.23047 0.22852 0.22851 a 0.34261625,0.34261625 0 0 0 0.34375,-0.34179 v -0.56836 h 0.11524 0.23046 0.22852 0.22852 0.23046 a 0.34261625,0.34261625 0 0 0 0.33204,-0.25782 l 0.16406,-0.65234 h 0.1914 0.22852 0.23047 0.22851 0.22852 a 0.34261625,0.34261625 0 0 0 0.33398,-0.25781 l 0.16407,-0.65235 h 0.1914 0.22852 0.22851 0.23047 0.22852 a 0.34261625,0.34261625 0 0 0 0.32422,-0.23242 l 0.15234,-0.44922 h 0.21094 0.23047 0.22851 0.22852 0.23047 a 0.34261625,0.34261625 0 0 0 0.33203,-0.25976 l 0.16406,-0.650394 h 0.19141 0.22851 0.23047 0.22852 0.22851 a 0.34261625,0.34261625 0 0 0 0.33203,-0.259765 L 129.72266,98.5 h 0.19336 0.22851 0.22852 0.23047 a 0.34261625,0.34261625 0 0 0 0.33203,-0.257813 l 0.16406,-0.652343 h 0.19141 0.22851 0.23047 0.22852 0.22851 a 0.34261625,0.34261625 0 0 0 0.32617,-0.232422 l 0.15039,-0.449219 h 0.21094 0.23047 0.22852 0.23046 0.22852 a 0.34261625,0.34261625 0 0 0 0.33203,-0.259766 l 0.16406,-0.65039 h 0.19141 0.23047 0.22851 0.22852 0.23047 A 0.34261625,0.34261625 0 0 0 135.75,95.738281 l 0.16406,-0.65039 h 0.19141 0.22851 0.23047 0.22852 0.22851 a 0.34261625,0.34261625 0 0 0 0.33204,-0.259766 l 0.16406,-0.650391 h 0.1914 0.23047 0.22852 0.23047 0.22851 a 0.34261625,0.34261625 0 0 0 0.32422,-0.234375 l 0.15039,-0.449218 h 0.21289 0.23047 0.22852 0.22851 0.23047 a 0.34261625,0.34261625 0 0 0 0.33203,-0.257813 l 0.16407,-0.652344 h 0.1914 0.22852 0.23047 0.22851 0.22852 a 0.34261625,0.34261625 0 0 0 0.34375,-0.341797 v -0.568359 h 0.11523 0.22852 0.23047 0.22851 0.23047 a 0.34261625,0.34261625 0 0 0 0.33203,-0.257812 l 0.16406,-0.652344 h 0.19141 0.22852 0.23046 0.22852 0.22852 a 0.34261625,0.34261625 0 0 0 0.34375,-0.341797 v -0.339844 h 0.11523 0.22852 0.23046 0.22852 0.23047 0.22851 a 0.34261625,0.34261625 0 0 0 0.3418,-0.341797 v -0.568359 h 0.11719 0.22851 0.22852 0.23047 0.22851 a 0.34261625,0.34261625 0 0 0 0.33204,-0.259766 l 0.16406,-0.65039 h 0.1914 0.23047 0.22852 0.22851 0.23047 a 0.34261625,0.34261625 0 0 0 0.33203,-0.259766 l 0.16407,-0.650391 h 0.1914 0.22852 0.23047 0.22851 0.23047 a 0.34261625,0.34261625 0 0 0 0.32422,-0.234375 l 0.15039,-0.447265 h 0.21289 0.22852 0.22851 0.23047 0.22852 a 0.34261625,0.34261625 0 0 0 0.33203,-0.259766 l 0.16406,-0.65039 h 0.19141 0.23047 0.22851 0.22852 0.23047 A 0.34261625,0.34261625 0 0 0 154.54883,85.5 l 0.16406,-0.650391 h 0.19141 0.22851 0.23047 0.22852 a 0.34261625,0.34261625 0 0 0 0.33203,-0.259765 l 0.16406,-0.650391 h 0.19141 0.23047 0.22851 0.22852 0.23047 a 0.34261625,0.34261625 0 0 0 0.32421,-0.234375 l 0.15039,-0.449219 h 0.2129 0.22851 0.23047 0.22852 0.22851 a 0.34261625,0.34261625 0 0 0 0.33399,-0.257812 l 0.16406,-0.652344 h 0.1914 0.22852 0.22852 0.23046 0.22852 a 0.34261625,0.34261625 0 0 0 0.33203,-0.257812 l 0.16406,-0.652344 h 0.19141 0.23047 0.22851 0.22852 0.23047 a 0.34261625,0.34261625 0 0 0 0.33203,-0.257813 l 0.16406,-0.652343 h 0.19141 0.22851 0.23047 0.22852 0.22851 a 0.34261625,0.34261625 0 0 0 0.32618,-0.232422 l 0.15039,-0.449219 h 0.21289 0.22851 0.22852 0.23047 0.22851 A 0.34261625,0.34261625 0 0 0 165.5625,79.5 v -0.566406 h 0.11719 0.22851 0.23047 0.22852 0.22851 0.23047 a 0.34261625,0.34261625 0 0 0 0.3418,-0.34375 v -0.566407 h 0.11719 0.22851 0.22852 0.23047 0.22851 a 0.34261625,0.34261625 0 0 0 0.3418,-0.341796 v -0.56836 h 0.11719 0.22851 0.23047 0.22852 0.22851 0.23047 a 0.34261625,0.34261625 0 0 0 0.3418,-0.341797 v -0.341797 h 0.11523 0.23047 0.22852 0.23046 0.22852 a 0.34261625,0.34261625 0 0 0 0.33203,-0.257812 l 0.16406,-0.650391 h 0.19141 0.22852 0.23046 0.22852 0.23047 a 0.34261625,0.34261625 0 0 0 0.33203,-0.259765 l 0.16406,-0.650391 h 0.19141 0.22851 0.23047 0.22852 0.22851 a 0.34261625,0.34261625 0 0 0 0.33204,-0.259766 l 0.16406,-0.65039 h 0.1914 0.23047 0.22852 0.23047 0.22851 a 0.34261625,0.34261625 0 0 0 0.32422,-0.234375 l 0.15039,-0.449219 h 0.21289 0.22852 0.23047 0.22851 0.23047 a 0.34261625,0.34261625 0 0 0 0.33203,-0.257812 l 0.16407,-0.652344 h 0.1914 0.22852 0.23047 0.22851 0.22852 a 0.34261625,0.34261625 0 0 0 0.33203,-0.257813 l 0.16406,-0.652343 h 0.19141 0.23047 0.22851 0.23047 a 0.34261625,0.34261625 0 0 0 0.33203,-0.257813 l 0.16406,-0.652344 h 0.19141 0.22852 0.22851 0.23047 0.22852 a 0.34261625,0.34261625 0 0 0 0.32617,-0.232422 l 0.15039,-0.449218 h 0.21094 0.23047 0.22851 0.23047 0.22852 a 0.34261625,0.34261625 0 0 0 0.33203,-0.259766 l 0.16406,-0.650391 h 0.19141 0.22851 0.23047 0.22852 0.23046 a 0.34261625,0.34261625 0 0 0 0.33204,-0.259765 l 0.16406,-0.650391 h 0.1914 0.22852 0.22852 0.23046 H 187 a 0.34261625,0.34261625 0 0 0 0.33203,-0.259765 L 187.49609,66.875 h 0.19141 0.23047 0.22851 0.22852 0.23047 a 0.34261625,0.34261625 0 0 0 0.32422,-0.234375 l 0.15039,-0.449219 h 0.21289 0.22851 0.23047 0.22852 0.23047 a 0.34261625,0.34261625 0 0 0 0.34179,-0.341797 V 65.28125 h 0.11524 0.23047 0.22851 0.22852 0.23047 a 0.34261625,0.34261625 0 0 0 0.33203,-0.257813 l 0.16406,-0.652343 h 0.19141 0.22851 0.23047 0.22852 0.22851 a 0.34261625,0.34261625 0 0 0 0.34375,-0.341797 v -0.56836 h 0.11524 0.23047 0.22851 0.22852 0.23047 a 0.34261625,0.34261625 0 0 0 0.32421,-0.232421 l 0.1504,-0.449219 h 0.21289 0.22851 0.23047 0.22852 0.22851 a 0.34261625,0.34261625 0 0 0 0.33399,-0.259766 l 0.16211,-0.65039 h 0.19335 0.22852 0.22852 0.23046 0.22852 a 0.34261625,0.34261625 0 0 0 0.33203,-0.257813 l 0.16406,-0.652344 h 0.19141 0.23047 0.22851 0.22852 0.23047 a 0.34261625,0.34261625 0 0 0 0.33203,-0.257812 l 0.16406,-0.652344 h 0.19141 0.22851 0.23047 0.22852 0.22851 a 0.34261625,0.34261625 0 0 0 0.32618,-0.232422 l 0.15039,-0.449219 h 0.21289 0.22851 0.22852 0.23047 0.22851 a 0.34261625,0.34261625 0 0 0 0.33203,-0.259765 l 0.16407,-0.650391 h 0.1914 0.23047 0.22852 0.22851 0.23047 a 0.34261625,0.34261625 0 0 0 0.33203,-0.259765 l 0.16407,-0.650391 h 0.1914 a 0.34258199,0.34258199 0 0 0 0.3418,-0.34375 0.34258199,0.34258199 0 0 0 -0.3418,-0.341797 h -0.23047 z"
       id="path221"
       transform="translate(-1.0238747,-37.271939)" />
  </g>
</svg>
