<?xml version="1.0" encoding="UTF-8" standalone="no"?>
<!-- Created with Inkscape (http://www.inkscape.org/) -->

<svg
   width="217.203mm"
   height="141.511mm"
   viewBox="0 0 217.203 141.511"
   version="1.1"
   id="svg5"
   xmlns="http://www.w3.org/2000/svg"
   xmlns:svg="http://www.w3.org/2000/svg">
  <defs
     id="defs2">
    <clipPath
       clipPathUnits="userSpaceOnUse"
       id="clipPath1530">
      <g
         id="g1534"
         transform="matrix(4.3618957,0,0,4.3951983,488.00099,-90.585222)">
        <rect
           x="-0.00022744"
           y="34.033783"
           width="210.00044"
           height="158.35463"
           id="rect1532"
           style="stroke-width:0.228388" />
      </g>
    </clipPath>
  </defs>
  <g
     id="layer4"
     style="display:inline">
    <path
       d="m 523.5,679.5 h 1 1 v 0 h 1 1 1 1 1 1 1 v 0 h 1 1 1 1 1 1 v 0 h 1 1 1 1 1 1 v 0 h 1 1 1 1 1 1 1 v 0 h 1 1 1 1 1 1 v 0 h 1 1 1 1 1 1 1 v 0 h 1 1 1 1 1 1 v 0 h 1 1 1 1 1 1 v 0 h 1 1 1 1 1 1 1 v 0 h 1 1 1 1 1 1 v 0 h 1 1 1 1 1 1 1 v 0 h 1 1 1 1 1 1 v 0 h 1 1 1 1 1 1 v 0 h 1 1 1 1 1 1 1 v 0 h 1 1 1 1 1 1 v 0 h 1 1 1 1 1 1 v 0 h 1 1 1 1 1 1 1 v 0 h 1 1 1 1 1 1 v 0 h 1 1 1 1 1 1 1 v 0 h 1 1 1 1 1 1 v 0 h 1 1 1 1 1 1 v 0 h 1 1 1 1 1 1 1 v 0 h 1 1 1 1 1 1 v 0 h 1 1 1 1 1 1 v 0 h 1 1 1 1 1 1 1 v 0 h 1 1 1 1 1 1 v 0 h 1 1 1 1 1 1 1 v 0 h 1 1 1 1 1 1 v 0 h 1 1 1 1 1 1 v 0 h 1 1 1 1 1 1 1 v 0 h 1 1 1 1 1 1 v 0 h 1 1 1 1 1 1 1 v 0 h 1 1 1 1 1 1 v 0 h 1 1 1 1 1 1 v 0 h 1 1 1 1 1 1 1 v 0 h 1 1 1 1 1 1 v 0 h 1 1 1 1 1 1 v 0 h 1 1 1 1 1 1 1 v 0 h 1 1 1 1 1 1 v 0 h 1 1 1 1 1 1 1 v 0 h 1 1 1 1 1 1 v 0 h 1 1 1 1 1 1 v 0 h 1 1 1 1 1 1 1 v 0 h 1 1 1 1 1 1 v 0 h 1 1 1 1 1 1 v 0 h 1 1 1 1 1 1 1 v 0 h 1 1 1 1 1 1 v 0 h 1 1 1 1 1 1 1 v 0 h 1 1 1 1 1 1 v 0 h 1 1 1 1 1 1 v 0 h 1 1 1 1 1 1 1 v 0 h 1 1 1 1 1 1 v 0 h 1 1 1 1 1 1 1 v 0 h 1 1 1 1 1 1 v 0 h 1 1 1 1 1 1 v 0 h 1 1 1 1 1 1 1 v 0 h 1 1 1 1 1 1 v 0 h 1 1 1 1 1 1 v 0 h 1 1 1 1 1 1 1 v 0 h 1 1 1 1 1 1 v 0 h 1 1 1 1 1 1 1 v 0 h 1 1 1 1 1 1 v 0 h 1 1 1 1 1 1 v 0 h 1 1 1 1 1 1 1 v 0 h 1 1 1 1 1 1 v 0 h 1 1 1 1 1 1 v 0 h 1 1 1 1 1 1 1 v 0 h 1 l 1,-476 h 1 1 1 1 v 0 h 1 1 1 1 1 1 1 v 0 h 1 1 1 1 1 1 v 0 h 1 1 1 1 1 1 v 0 h 1 1 1 1 1 1 1 v 0 h 1 1 1 1 1 1 v 0 h 1 1 1 1 1 1 1 v 0 h 1 1 1 1 1 1 v 0 h 1 1 1 1 1 1 v 0 h 1 1 1 1 1 1 1 v 0 h 1 1 1 1 1 1 v 0 h 1 1 1 1 1 1 v 0 h 1 1 1 1 1 1 1 v 0 h 1 1 1 1 1 1 v 0 h 1 1 1 1 1 1 1 v 0 h 1 1 1 1 1 1 v 0 h 1 1 1 1 1 1 v 0 h 1 1 1 1 1 1 1 v 0 h 1 1 1 1 1 1 v 0 h 1 1 1 1 1 1 v 0 h 1 1 1 1 1 1 1 v 0 h 1 1 1 1 1 1 v 0 h 1 1 1 1 1 1 1 v 0 h 1 1 1 1 1 1 v 0 h 1 1 1 1 1 1 v 0 h 1 1 1 1 1 1 1 v 0 h 1 1 1 1 1 1 v 0 h 1 1 1 1 1 1 1 v 0 h 1 1 1 1 1 1 v 0 h 1 1 1 1 1 1 v 0 h 1 1 1 1 1 1 1 v 0 h 1 1 1 1 1 1 v 0 h 1 1 1 1 1 1 v 0 h 1 1 1 1 1 1 1 v 0 h 1 1 1 1 1 1 v 0 h 1 1 1 1 1 1 1 v 0 h 1 1 1 1 1 1 v 0 h 1 1 1 1 1 1 v 0 h 1 1 1 1 1 1 1 v 0 h 1 1 1 1 1 1 v 0 h 1 1 1 1 1 1 v 0 h 1 1 1 1 1 1 1 v 0 h 1 1 1 1 1 1 v 0 h 1 1 1 1 1 1 1 v 0 h 1 1 1 1 1 1 v 0 h 1 1 1 1 1 1 v 0 h 1 1 1 1 1 1 1 v 0 h 1 1 1 1 1 1 v 0 h 1 1 1 1 1 1 1 v 0 h 1 1 1 1 1 1 v 0 h 1 1 1 1 1 1 v 0 h 1 1 1 1 1 1 1 v 0 h 1 1 1 1 1 1 v 0 h 1 1 1 1 1 1 v 0 h 1 1 1 1 1 1 1 v 0 h 1 1 1 1 1 1 v 0 h 1 1 1 1 1 1 1 v 0 h 1 1 1 1 1 1 v 0 h 1 1 1 1 1 1 v 0 h 1 1 1 1 1 1 1 v 0 h 1 1 1 1 1 1 v 0 h 1 1 1 1 1 1 v 0 h 1 1 1 1 1 1 1 v 0 h 1 1 1 1 1 1 v 0 h 1 1 1 1 1 1 1 v 0 h 1 1 1 1 1 1 v 0 h 1 1 1 1 1 1 v 0 h 1 1 1 1 1 1 1 v 0"
       stroke="#4472c4"
       stroke-width="3"
       stroke-linecap="round"
       stroke-linejoin="round"
       stroke-miterlimit="10"
       fill="none"
       id="path197"
       style="display:inline"
       transform="matrix(0.22925812,0,0,0.22752102,-114.23697,-26.368691)" />
    <g
       id="g203"
       transform="matrix(0.22925812,0,0,0.22752102,-114.23697,-26.368691)"
       clip-path="url(#clipPath1530)"
       style="display:inline">
      <g
         id="g4080"
         style="display:inline"
         transform="matrix(4.3618957,0,0,4.3951983,493.82373,-47.921941)">
        <text
           xml:space="preserve"
           style="font-style:normal;font-variant:normal;font-weight:normal;font-stretch:normal;font-size:11.2889px;font-family:Arial;-inkscape-font-specification:Arial;text-align:center;text-anchor:middle;fill:#4472c4;fill-opacity:1;stroke:#797979;stroke-width:0.1;stroke-linejoin:bevel;stroke-miterlimit:4.4;stroke-dasharray:none;stroke-opacity:1"
           x="60.29258"
           y="159.59801"
           id="text3771"><tspan
             id="tspan3769"
             style="font-style:normal;font-variant:normal;font-weight:normal;font-stretch:normal;font-family:Arial;-inkscape-font-specification:Arial;fill:#4472c4;fill-opacity:1;stroke-width:0.1;stroke-dasharray:none"
             x="60.29258"
             y="159.59801">0</tspan></text>
        <text
           xml:space="preserve"
           style="font-style:normal;font-variant:normal;font-weight:normal;font-stretch:normal;font-size:11.2889px;font-family:Arial;-inkscape-font-specification:Arial;text-align:center;text-anchor:middle;fill:#4472c4;fill-opacity:1;stroke:#797979;stroke-width:0.1;stroke-linejoin:bevel;stroke-miterlimit:4.4;stroke-dasharray:none;stroke-opacity:1"
           x="152.28726"
           y="54.913033"
           id="text3771-6"><tspan
             id="tspan3769-7"
             style="font-style:normal;font-variant:normal;font-weight:normal;font-stretch:normal;font-family:Arial;-inkscape-font-specification:Arial;fill:#4472c4;fill-opacity:1;stroke-width:0.1;stroke-dasharray:none"
             x="152.28726"
             y="54.913033">1</tspan></text>
      </g>
    </g>
  </g>
</svg>
