<?xml version="1.0" encoding="UTF-8" standalone="no"?>
<!-- Created with Inkscape (http://www.inkscape.org/) -->

<svg
   width="217.203mm"
   height="141.511mm"
   viewBox="0 0 217.203 141.511"
   version="1.1"
   id="svg5"
   xmlns="http://www.w3.org/2000/svg"
   xmlns:svg="http://www.w3.org/2000/svg">
  <defs
     id="defs2" />
  <g
     id="layer10"
     style="display:inline">
    <path
       style="color:#000000;fill:#9e480e;stroke-linecap:round;stroke-linejoin:round;stroke-miterlimit:10;-inkscape-stroke:none"
       d="m 204.77539,56.878906 a 0.34258199,0.34258199 0 0 0 -0.19922,0.169922 l -0.13476,0.267578 h -0.0176 -0.22852 -0.23047 a 0.34261625,0.34261625 0 0 0 -0.30468,0.1875 l -0.13477,0.267578 h -0.0176 -0.23047 a 0.34261625,0.34261625 0 0 0 -0.30468,0.1875 l -0.13477,0.267578 h -0.0195 -0.22852 -0.22851 a 0.34261625,0.34261625 0 0 0 -0.30664,0.1875 l -0.13477,0.267579 h -0.0176 -0.22851 a 0.34261625,0.34261625 0 0 0 -0.30664,0.1875 l -0.13477,0.267578 h -0.0176 -0.23047 -0.22851 a 0.34261625,0.34261625 0 0 0 -0.24219,0.09961 l -0.1289,0.126953 h -0.0879 -0.22851 a 0.34261625,0.34261625 0 0 0 -0.30664,0.189453 l -0.13477,0.265625 h -0.0176 -0.22851 -0.23047 a 0.34261625,0.34261625 0 0 0 -0.30469,0.189453 l -0.13476,0.265625 h -0.0176 -0.23047 a 0.34261625,0.34261625 0 0 0 -0.30469,0.189454 l -0.13476,0.265625 h -0.0195 -0.22852 -0.22852 a 0.34261625,0.34261625 0 0 0 -0.34375,0.34375 v 0.111328 h -0.11523 -0.22852 a 0.34261625,0.34261625 0 0 0 -0.30664,0.189453 l -0.13476,0.265625 h -0.0176 -0.23047 -0.22851 a 0.34261625,0.34261625 0 0 0 -0.3418,0.34375 v 0.111328 h -0.11719 -0.22851 a 0.34261625,0.34261625 0 0 0 -0.24219,0.09961 l -0.12891,0.128907 h -0.0879 -0.22851 a 0.34261625,0.34261625 0 0 0 -0.34375,0.341796 v 0.113282 h -0.11524 -0.22851 a 0.34261625,0.34261625 0 0 0 -0.30664,0.1875 l -0.13477,0.267578 h -0.0176 -0.23047 a 0.34261625,0.34261625 0 0 0 -0.30468,0.1875 L 192.75,63.6875 h -0.0176 -0.23047 -0.22851 a 0.34261625,0.34261625 0 0 0 -0.30664,0.1875 l -0.13282,0.267578 h -0.0195 -0.22851 a 0.34261625,0.34261625 0 0 0 -0.30664,0.1875 l -0.13477,0.267578 h -0.0176 -0.22851 -0.23047 a 0.34261625,0.34261625 0 0 0 -0.30469,0.1875 l -0.13476,0.267578 h -0.0176 -0.23047 a 0.34261625,0.34261625 0 0 0 -0.30469,0.1875 l -0.13476,0.267578 h -0.0195 -0.22851 -0.22852 a 0.34261625,0.34261625 0 0 0 -0.24218,0.09766 l -0.12891,0.128906 h -0.0879 -0.23047 a 0.34261625,0.34261625 0 0 0 -0.30469,0.189453 l -0.13476,0.265625 h -0.0176 -0.23047 -0.22852 a 0.34261625,0.34261625 0 0 0 -0.30664,0.189453 l -0.13281,0.265625 H 187 186.77148 a 0.34261625,0.34261625 0 0 0 -0.30664,0.189453 l -0.13476,0.265625 h -0.0176 -0.22852 -0.23046 a 0.34261625,0.34261625 0 0 0 -0.3418,0.341797 v 0.113281 h -0.11524 -0.23046 a 0.34261625,0.34261625 0 0 0 -0.30469,0.1875 l -0.13477,0.267579 h -0.0195 -0.22851 a 0.34261625,0.34261625 0 0 0 -0.30665,0.1875 l -0.13281,0.267578 h -0.0195 -0.22851 a 0.34261625,0.34261625 0 0 0 -0.24219,0.09961 l -0.12891,0.126953 h -0.0879 -0.22851 -0.23047 a 0.34261625,0.34261625 0 0 0 -0.3418,0.34375 v 0.111328 h -0.11523 -0.23047 a 0.34261625,0.34261625 0 0 0 -0.30469,0.189453 l -0.13477,0.265625 h -0.0195 -0.22851 a 0.34261625,0.34261625 0 0 0 -0.30664,0.189454 l -0.13282,0.265625 h -0.0195 -0.22851 -0.22852 a 0.34261625,0.34261625 0 0 0 -0.30664,0.189453 l -0.13477,0.265625 h -0.0176 -0.23047 a 0.34261625,0.34261625 0 0 0 -0.30469,0.189453 l -0.13477,0.265625 h -0.0176 -0.23047 -0.22852 a 0.34261625,0.34261625 0 0 0 -0.30664,0.189453 l -0.13476,0.265625 h -0.0176 -0.22852 a 0.34261625,0.34261625 0 0 0 -0.30664,0.189453 l -0.13476,0.265625 h -0.0176 -0.22852 -0.23047 a 0.34261625,0.34261625 0 0 0 -0.24023,0.09961 l -0.12891,0.128907 h -0.0898 -0.22852 a 0.34261625,0.34261625 0 0 0 -0.30664,0.1875 l -0.13281,0.267578 h -0.0195 -0.22852 -0.22851 a 0.34261625,0.34261625 0 0 0 -0.30664,0.1875 l -0.13477,0.267578 h -0.0176 a 0.34261625,0.34261625 0 0 0 -0.30664,0.1875 l -0.13476,0.267578 h -0.0176 -0.22852 -0.23047 a 0.34261625,0.34261625 0 0 0 -0.30468,0.1875 l -0.13477,0.267578 h -0.0176 -0.23047 a 0.34261625,0.34261625 0 0 0 -0.30468,0.1875 l -0.13477,0.267578 h -0.0195 -0.22852 -0.22851 a 0.34261625,0.34261625 0 0 0 -0.30664,0.1875 l -0.13477,0.267578 h -0.0176 -0.23046 a 0.34261625,0.34261625 0 0 0 -0.24024,0.09961 l -0.1289,0.126953 h -0.0879 -0.23046 -0.22852 a 0.34261625,0.34261625 0 0 0 -0.3418,0.34375 v 0.111328 h -0.11718 -0.22852 a 0.34261625,0.34261625 0 0 0 -0.30664,0.189453 l -0.13477,0.265625 h -0.0176 -0.22852 A 0.34261625,0.34261625 0 0 0 169.5,76.162109 l -0.13477,0.265625 h -0.0176 -0.22852 -0.23047 a 0.34261625,0.34261625 0 0 0 -0.30469,0.189453 l -0.13476,0.265625 h -0.0195 -0.22852 a 0.34261625,0.34261625 0 0 0 -0.30664,0.189454 l -0.13281,0.265625 h -0.0195 -0.22852 -0.22851 a 0.34261625,0.34261625 0 0 0 -0.30664,0.189453 l -0.13477,0.265625 h -0.0176 -0.23047 a 0.34261625,0.34261625 0 0 0 -0.30468,0.189453 l -0.13477,0.265625 h -0.0176 -0.23047 -0.22851 a 0.34261625,0.34261625 0 0 0 -0.24219,0.09961 l -0.12891,0.128906 h -0.0879 a 0.34261625,0.34261625 0 0 0 -0.30664,0.1875 l -0.13281,0.267579 h -0.0195 -0.22852 -0.22851 a 0.34261625,0.34261625 0 0 0 -0.30664,0.1875 l -0.13477,0.267578 h -0.0176 -0.23047 a 0.34261625,0.34261625 0 0 0 -0.30468,0.1875 l -0.13477,0.265625 h -0.0176 -0.23047 -0.22851 a 0.34261625,0.34261625 0 0 0 -0.30664,0.189453 l -0.13477,0.265625 h -0.0176 -0.22851 a 0.34261625,0.34261625 0 0 0 -0.30664,0.189453 L 161.57031,80.75 h -0.0176 -0.22851 -0.23047 a 0.34261625,0.34261625 0 0 0 -0.30469,0.189453 l -0.13476,0.265625 h -0.0195 -0.22852 a 0.34261625,0.34261625 0 0 0 -0.30664,0.189453 l -0.13281,0.265625 h -0.0195 -0.22852 -0.22852 a 0.34261625,0.34261625 0 0 0 -0.22851,0.228516 0.34261625,0.34261625 0 0 0 -0.002,0 h -0.22852 -0.23047 a 0.34261625,0.34261625 0 0 0 -0.30469,0.1875 l -0.13476,0.267578 h -0.0176 -0.23047 a 0.34261625,0.34261625 0 0 0 -0.30469,0.1875 l -0.13476,0.267578 h -0.0176 -0.23047 -0.22851 a 0.34261625,0.34261625 0 0 0 -0.30665,0.1875 l -0.13476,0.267578 h -0.0176 -0.22851 a 0.34261625,0.34261625 0 0 0 -0.30665,0.1875 l -0.13476,0.267578 h -0.0176 -0.22851 -0.23047 a 0.34261625,0.34261625 0 0 0 -0.30664,0.1875 l -0.13282,0.267578 h -0.0195 a 0.34261625,0.34261625 0 0 0 -0.30469,0.1875 l -0.13476,0.267579 h -0.0176 -0.23047 -0.22851 a 0.34261625,0.34261625 0 0 0 -0.24219,0.09961 l -0.12891,0.126953 h -0.0879 -0.22851 a 0.34261625,0.34261625 0 0 0 -0.30664,0.189453 l -0.13477,0.265625 h -0.0176 -0.22851 -0.23047 a 0.34261625,0.34261625 0 0 0 -0.30469,0.189453 l -0.13477,0.265625 h -0.0195 -0.22851 a 0.34261625,0.34261625 0 0 0 -0.30664,0.189453 l -0.13282,0.265625 h -0.0195 -0.22851 -0.22852 a 0.34261625,0.34261625 0 0 0 -0.30664,0.189454 l -0.13476,0.265625 h -0.0176 -0.23047 a 0.34261625,0.34261625 0 0 0 -0.30469,0.189453 l -0.13476,0.265625 h -0.0176 -0.23047 -0.22852 a 0.34261625,0.34261625 0 0 0 -0.30664,0.189453 l -0.13476,0.265625 h -0.0176 -0.22852 a 0.34261625,0.34261625 0 0 0 -0.30664,0.189453 l -0.13476,0.265625 h -0.0176 -0.22852 -0.23047 a 0.34261625,0.34261625 0 0 0 -0.22656,0.228516 0.34261625,0.34261625 0 0 0 -0.002,0 h -0.23047 -0.22852 a 0.34261625,0.34261625 0 0 0 -0.30664,0.1875 l -0.13281,0.267578 h -0.0195 -0.22852 a 0.34261625,0.34261625 0 0 0 -0.30664,0.1875 l -0.13281,0.267578 h -0.0195 -0.22852 -0.23046 a 0.34261625,0.34261625 0 0 0 -0.30469,0.1875 L 145.06445,89.625 h -0.0176 -0.23046 a 0.34261625,0.34261625 0 0 0 -0.3418,0.341797 v 0.113281 h -0.11524 -0.23046 a 0.34261625,0.34261625 0 0 0 -0.30664,0.1875 l -0.13282,0.267578 h -0.0195 -0.22851 a 0.34261625,0.34261625 0 0 0 -0.30664,0.1875 l -0.13282,0.267578 h -0.0195 -0.22851 -0.23047 a 0.34261625,0.34261625 0 0 0 -0.24024,0.09766 l -0.1289,0.128906 h -0.0879 -0.23047 a 0.34261625,0.34261625 0 0 0 -0.30469,0.189453 l -0.13477,0.265625 h -0.0176 -0.23047 -0.22852 a 0.34261625,0.34261625 0 0 0 -0.30664,0.1875 l -0.13476,0.267578 h -0.0176 -0.22852 a 0.34261625,0.34261625 0 0 0 -0.30664,0.1875 l -0.13476,0.267578 h -0.0176 -0.22852 -0.23047 a 0.34261625,0.34261625 0 0 0 -0.30664,0.1875 l -0.13281,0.267578 h -0.0195 -0.22852 a 0.34261625,0.34261625 0 0 0 -0.30664,0.1875 l -0.13281,0.267578 h -0.0195 -0.22852 -0.23047 a 0.34261625,0.34261625 0 0 0 -0.30468,0.1875 l -0.13477,0.267579 h -0.0176 -0.23047 a 0.34261625,0.34261625 0 0 0 -0.30468,0.1875 l -0.13477,0.267578 h -0.0176 -0.23047 -0.22851 a 0.34261625,0.34261625 0 0 0 -0.22852,0.226562 h -0.002 -0.22852 a 0.34261625,0.34261625 0 0 0 -0.30664,0.189453 l -0.13281,0.265625 h -0.0195 -0.22852 -0.22851 a 0.34261625,0.34261625 0 0 0 -0.30664,0.189453 l -0.13477,0.265625 h -0.0176 -0.23046 a 0.34261625,0.34261625 0 0 0 -0.30469,0.189454 l -0.13477,0.265625 h -0.0176 -0.23046 -0.22852 a 0.34261625,0.34261625 0 0 0 -0.34375,0.34375 v 0.111328 h -0.11523 -0.22852 a 0.34261625,0.34261625 0 0 0 -0.30664,0.189453 l -0.13477,0.265625 h -0.0176 -0.22852 a 0.34261625,0.34261625 0 0 0 -0.30664,0.189453 l -0.13477,0.265625 h -0.0176 -0.23047 -0.22852 a 0.34261625,0.34261625 0 0 0 -0.24023,0.09961 l -0.13086,0.128907 h -0.0879 -0.22852 a 0.34261625,0.34261625 0 0 0 -0.30664,0.1875 l -0.13281,0.267578 h -0.0195 -0.22852 -0.23047 a 0.34261625,0.34261625 0 0 0 -0.30469,0.1875 l -0.13476,0.267578 h -0.0176 -0.23047 a 0.34261625,0.34261625 0 0 0 -0.30469,0.1875 l -0.13476,0.267578 h -0.0176 -0.23047 -0.22851 a 0.34261625,0.34261625 0 0 0 -0.30664,0.1875 l -0.13477,0.267578 h -0.0176 -0.22851 a 0.34261625,0.34261625 0 0 0 -0.30664,0.1875 l -0.13477,0.267578 h -0.0176 -0.23047 -0.22851 a 0.34261625,0.34261625 0 0 0 -0.30664,0.187499 l -0.13281,0.26758 h -0.0195 a 0.34261625,0.34261625 0 0 0 -0.30468,0.1875 l -0.13477,0.26758 h -0.0176 -0.23047 -0.22851 a 0.34261625,0.34261625 0 0 0 -0.24219,0.0996 L 124.27148,101 h -0.0879 -0.22851 a 0.34261625,0.34261625 0 0 0 -0.30664,0.18945 l -0.13477,0.26563 h -0.0176 -0.22851 -0.23047 a 0.34261625,0.34261625 0 0 0 -0.30664,0.18945 l -0.13281,0.26563 h -0.0195 -0.22852 a 0.34261625,0.34261625 0 0 0 -0.30664,0.18945 l -0.13281,0.26562 h -0.0195 -0.22852 -0.23047 a 0.34261625,0.34261625 0 0 0 -0.3418,0.3418 v 0.11328 h -0.11523 -0.23047 a 0.34261625,0.34261625 0 0 0 -0.30469,0.18946 l -0.13476,0.26562 h -0.0176 -0.23047 a 0.34261625,0.34261625 0 0 0 -0.30469,0.18945 l -0.13476,0.26563 h -0.0195 -0.22852 -0.22851 a 0.34261625,0.34261625 0 0 0 -0.24219,0.0996 l -0.12891,0.1289 h -0.0879 -0.22851 a 0.34261625,0.34261625 0 0 0 -0.30665,0.1875 l -0.13476,0.26758 h -0.0176 -0.23047 -0.22851 a 0.34261625,0.34261625 0 0 0 -0.30664,0.1875 l -0.13282,0.26563 h -0.0195 -0.22851 a 0.34261625,0.34261625 0 0 0 -0.30664,0.18945 l -0.13477,0.26563 h -0.0176 -0.22851 -0.23047 a 0.34261625,0.34261625 0 0 0 -0.30469,0.18945 l -0.13477,0.26562 h -0.0176 a 0.34261625,0.34261625 0 0 0 -0.30664,0.18946 l -0.13477,0.26562 h -0.0176 -0.23047 -0.22851 a 0.34261625,0.34261625 0 0 0 -0.30664,0.18946 l -0.13282,0.26562 h -0.0195 -0.22851 a 0.34261625,0.34261625 0 0 0 -0.30664,0.18945 l -0.13282,0.26563 h -0.0195 -0.22851 -0.23047 a 0.34261625,0.34261625 0 0 0 -0.24024,0.0996 l -0.1289,0.1289 h -0.0879 -0.23047 a 0.34261625,0.34261625 0 0 0 -0.30469,0.1875 l -0.13476,0.26758 h -0.0176 -0.23047 -0.22852 a 0.34261625,0.34261625 0 0 0 -0.30664,0.1875 l -0.13476,0.26758 h -0.0176 -0.22852 a 0.34261625,0.34261625 0 0 0 -0.30664,0.1875 l -0.13476,0.26758 h -0.0176 -0.23047 -0.22852 a 0.34261625,0.34261625 0 0 0 -0.34179,0.3418 v 0.11328 h -0.11719 -0.22852 a 0.34261625,0.34261625 0 0 0 -0.30664,0.1875 l -0.13281,0.26757 h -0.0195 -0.22852 a 0.34261625,0.34261625 0 0 0 -0.30664,0.1875 l -0.13476,0.26758 h -0.0176 -0.22852 -0.23046 a 0.34261625,0.34261625 0 0 0 -0.24024,0.0996 l -0.1289,0.12696 h -0.0879 -0.23046 a 0.34261625,0.34261625 0 0 0 -0.30469,0.18945 l -0.13477,0.26562 h -0.0195 -0.22851 -0.22852 a 0.34261625,0.34261625 0 0 0 -0.30664,0.18946 l -0.13477,0.26562 h -0.0176 a 0.34261625,0.34261625 0 0 0 -0.30664,0.18945 l -0.13477,0.26563 h -0.0176 -0.22851 -0.23047 a 0.34261625,0.34261625 0 0 0 -0.30469,0.18945 l -0.13477,0.26563 h -0.0176 -0.23047 a 0.34261625,0.34261625 0 0 0 -0.30469,0.18945 l -0.13477,0.26563 h -0.0195 -0.22851 -0.22852 a 0.34261625,0.34261625 0 0 0 -0.30664,0.18945 l -0.13476,0.26562 h -0.0176 -0.22852 a 0.34261625,0.34261625 0 0 0 -0.30664,0.18946 l -0.13476,0.26562 h -0.0176 -0.23047 -0.22852 a 0.34261625,0.34261625 0 0 0 -0.24218,0.0996 l -0.12891,0.12891 h -0.0879 -0.22852 a 0.34261625,0.34261625 0 0 0 -0.30664,0.1875 l -0.13476,0.26758 h -0.0176 -0.228518 -0.230468 a 0.34261625,0.34261625 0 0 0 -0.304688,0.1875 l -0.134765,0.26757 h -0.01758 -0.230468 a 0.34261625,0.34261625 0 0 0 -0.304688,0.1875 l -0.134765,0.26758 h -0.01953 -0.228515 -0.228516 a 0.34261625,0.34261625 0 0 0 -0.34375,0.3418 v 0.11328 h -0.115234 -0.228516 a 0.34261625,0.34261625 0 0 0 -0.306641,0.1875 l -0.134765,0.26758 h -0.01758 -0.230469 a 0.34261625,0.34261625 0 0 0 -0.304688,0.1875 l -0.134765,0.26758 h -0.01758 -0.230469 a 0.34261625,0.34261625 0 0 0 -0.304688,0.1875 l -0.134765,0.26562 h -0.01758 -0.230469 -0.228516 a 0.34261625,0.34261625 0 0 0 -0.228515,0.22852 0.34261625,0.34261625 0 0 0 -0.002,0 h -0.228516 -0.228516 a 0.34261625,0.34261625 0 0 0 -0.30664,0.1875 l -0.134766,0.26758 h -0.01758 -0.230469 a 0.34261625,0.34261625 0 0 0 -0.304687,0.1875 l -0.134766,0.26757 h -0.01758 -0.230469 -0.228515 a 0.34261625,0.34261625 0 0 0 -0.306641,0.1875 l -0.132813,0.26758 h -0.01953 -0.228515 a 0.34261625,0.34261625 0 0 0 -0.306641,0.1875 l -0.134766,0.26758 h -0.01758 -0.228515 -0.230469 a 0.34261625,0.34261625 0 0 0 -0.304688,0.1875 l -0.134765,0.26758 h -0.01758 -0.230469 a 0.34261625,0.34261625 0 0 0 -0.304688,0.1875 l -0.134765,0.26758 h -0.01953 -0.228515 -0.228516 a 0.34261625,0.34261625 0 0 0 -0.242187,0.0996 l -0.128907,0.12695 h -0.08789 -0.228516 a 0.34261625,0.34261625 0 0 0 -0.30664,0.18945 l -0.134766,0.26563 h -0.01758 -0.230469 -0.228516 a 0.34261625,0.34261625 0 0 0 -0.30664,0.18945 l -0.132813,0.26562 h -0.01953 -0.228516 a 0.34261625,0.34261625 0 0 0 -0.30664,0.18946 l -0.134766,0.26562 h -0.01758 -0.228516 -0.230468 a 0.34261625,0.34261625 0 0 0 -0.341797,0.34375 v 0.11133 h -0.115235 a 0.34261625,0.34261625 0 0 0 -0.30664,0.18945 l -0.134766,0.26563 h -0.01758 -0.230469 -0.228515 a 0.34261625,0.34261625 0 0 0 -0.341797,0.34375 v 0.11133 h -0.117188 -0.228515 a 0.34261625,0.34261625 0 0 0 -0.306641,0.18945 l -0.134766,0.26563 H 83.833984 83.605469 83.375 a 0.34261625,0.34261625 0 0 0 -0.226563,0.22851 0.34261625,0.34261625 0 0 0 -0.002,0 H 82.917969 82.6875 a 0.34261625,0.34261625 0 0 0 -0.304688,0.1875 l -0.134765,0.26758 H 82.228516 82 a 0.34261625,0.34261625 0 0 0 -0.306641,0.1875 l -0.132812,0.26758 H 81.541016 81.3125 81.083984 a 0.34261625,0.34261625 0 0 0 -0.30664,0.1875 l -0.134766,0.26758 H 80.625 80.394531 a 0.34261625,0.34261625 0 0 0 -0.304687,0.1875 l -0.134766,0.26757 H 79.9375 79.707031 79.478516 a 0.34261625,0.34261625 0 0 0 -0.306641,0.1875 l -0.134766,0.26758 h -0.01758 -0.228515 a 0.34261625,0.34261625 0 0 0 -0.306641,0.1875 l -0.134766,0.26758 h -0.01758 -0.228515 -0.230469 a 0.34261625,0.34261625 0 0 0 -0.240235,0.0996 l -0.128906,0.12695 h -0.08984 -0.228515 a 0.34261625,0.34261625 0 0 0 -0.306641,0.18946 l -0.132812,0.26562 h -0.01953 -0.228515 -0.228516 a 0.34261625,0.34261625 0 0 0 -0.30664,0.18945 l -0.134766,0.26563 h -0.01758 a 0.34261625,0.34261625 0 0 0 -0.306641,0.18945 l -0.134765,0.26563 h -0.01758 -0.228515 -0.230469 a 0.34261625,0.34261625 0 0 0 -0.304687,0.18945 l -0.134766,0.26562 h -0.01758 -0.230469 a 0.34261625,0.34261625 0 0 0 -0.304687,0.18946 l -0.134766,0.26562 h -0.01953 -0.228516 -0.228516 a 0.34261625,0.34261625 0 0 0 -0.30664,0.1875 l -0.134766,0.26758 h -0.01758 -0.228516 a 0.34261625,0.34261625 0 0 0 -0.30664,0.1875 l -0.134766,0.26758 h -0.01758 -0.230469 -0.228515 a 0.34261625,0.34261625 0 0 0 -0.226563,0.22656 0.34261625,0.34261625 0 0 0 -0.002,0 h -0.230469 -0.228515 a 0.34261625,0.34261625 0 0 0 -0.306641,0.18945 l -0.134766,0.26563 h -0.01758 -0.228515 a 0.34261625,0.34261625 0 0 0 -0.306641,0.18945 l -0.134766,0.26563 h -0.01758 -0.228515 -0.230469 a 0.34261625,0.34261625 0 0 0 -0.304688,0.18945 l -0.134765,0.26563 h -0.01953 -0.228516 a 0.34261625,0.34261625 0 0 0 -0.306641,0.18945 l -0.132812,0.26562 h -0.01953 -0.228516 -0.228516 a 0.34261625,0.34261625 0 0 0 -0.30664,0.18946 l -0.134766,0.26562 h -0.01758 -0.230469 a 0.34261625,0.34261625 0 0 0 -0.304687,0.18945 l -0.134766,0.26563 h -0.01758 -0.230469 -0.228515 a 0.34261625,0.34261625 0 0 0 -0.242188,0.0996 l -0.128906,0.12891 h -0.08789 a 0.34261625,0.34261625 0 0 0 -0.30664,0.1875 l -0.132813,0.26757 h -0.01953 -0.228516 -0.228515 A 0.34261625,0.34261625 0 0 0 64.5,133.49609 l -0.134766,0.26758 h -0.01758 -0.230469 a 0.34261625,0.34261625 0 0 0 -0.304687,0.1875 l -0.134766,0.26758 h -0.01758 -0.230469 -0.228515 a 0.34261625,0.34261625 0 0 0 -0.306641,0.1875 l -0.132812,0.26758 h -0.01953 -0.228515 a 0.34261625,0.34261625 0 0 0 -0.306641,0.1875 l -0.134765,0.26758 h -0.01758 -0.228515 -0.230469 a 0.34261625,0.34261625 0 0 0 -0.304687,0.1875 l -0.134766,0.26757 h -0.01758 -0.230469 a 0.34261625,0.34261625 0 0 0 -0.306641,0.1875 l -0.132812,0.26758 h -0.01953 -0.228516 -0.228516 a 0.34261625,0.34261625 0 0 0 -0.228515,0.22656 h -0.002 -0.228516 -0.230469 a 0.34261625,0.34261625 0 0 0 -0.304687,0.18946 l -0.134766,0.26562 h -0.01758 -0.230469 a 0.34261625,0.34261625 0 0 0 -0.304687,0.18946 l -0.134766,0.26562 h -0.01758 -0.230469 -0.228515 a 0.34261625,0.34261625 0 0 0 -0.306641,0.18945 l -0.134766,0.26563 h -0.01758 -0.228515 a 0.34261625,0.34261625 0 0 0 -0.306641,0.18945 l -0.134766,0.26563 h -0.01758 -0.228515 a 0.34261625,0.34261625 0 0 0 -0.306641,0.18945 l -0.134766,0.26563 h -0.01758 -0.230468 a 0.34261625,0.34261625 0 0 0 -0.304688,0.18945 l -0.134766,0.26562 h -0.01758 -0.230468 -0.228516 a 0.34261625,0.34261625 0 0 0 -0.242188,0.0996 l -0.128906,0.12891 h -0.08789 -0.228516 a 0.34261625,0.34261625 0 0 0 -0.306641,0.1875 l -0.134765,0.26758 h -0.01758 -0.228516 -0.230469 a 0.34261625,0.34261625 0 0 0 -0.304687,0.1875 l -0.134766,0.26758 h -0.01953 -0.228516 a 0.34261625,0.34261625 0 0 0 -0.30664,0.1875 l -0.132813,0.26757 h -0.01953 -0.228516 -0.228515 a 0.34261625,0.34261625 0 0 0 -0.306641,0.1875 l -0.134766,0.26758 h -0.01758 -0.230469 a 0.34261625,0.34261625 0 0 0 -0.304687,0.1875 l -0.134766,0.26563 h -0.01758 -0.230469 -0.228515 a 0.34261625,0.34261625 0 0 0 -0.306641,0.18945 l -0.134765,0.26562 h -0.01758 -0.228515 a 0.34261625,0.34261625 0 0 0 -0.306641,0.18946 l -0.134765,0.26562 h -0.01758 -0.228515 -0.230469 a 0.34261625,0.34261625 0 0 0 -0.226562,0.22852 0.34261625,0.34261625 0 0 0 -0.002,0 h -0.230468 -0.228516 a 0.34261625,0.34261625 0 0 0 -0.306641,0.1875 l -0.132812,0.26758 h -0.01953 -0.228516 a 0.34261625,0.34261625 0 0 0 -0.306641,0.1875 l -0.132812,0.26757 h -0.01953 -0.228516 a 0.34261625,0.34261625 0 0 0 -0.306641,0.1875 l -0.134765,0.26758 h -0.01758 -0.228516 -0.230469 a 0.34261625,0.34261625 0 0 0 -0.341797,0.3418 v 0.11328 h -0.115234 -0.230469 a 0.34261625,0.34261625 0 0 0 -0.30664,0.1875 l -0.132813,0.26758 h -0.01953 -0.228516 a 0.34261625,0.34261625 0 0 0 -0.30664,0.1875 l -0.132813,0.26758 h -0.01953 -0.228516 -0.230468 a 0.34261625,0.34261625 0 0 0 -0.240235,0.0996 l -0.128906,0.12695 h -0.08789 -0.230468 a 0.34261625,0.34261625 0 0 0 -0.304688,0.18945 l -0.134766,0.26563 h -0.01758 -0.230468 -0.228516 a 0.34261625,0.34261625 0 0 0 -0.306641,0.18945 l -0.134765,0.26563 h -0.01758 -0.228516 a 0.34261625,0.34261625 0 0 0 -0.306641,0.18945 l -0.134765,0.26562 h -0.01758 -0.228516 -0.230469 a 0.34261625,0.34261625 0 0 0 -0.304687,0.18946 l -0.134766,0.26562 h -0.01953 -0.228516 a 0.34261625,0.34261625 0 0 0 -0.30664,0.18946 l -0.132813,0.26562 h -0.01953 -0.228516 -0.230469 a 0.34261625,0.34261625 0 0 0 -0.304687,0.18945 l -0.134766,0.26563 h -0.01758 -0.230469 a 0.34261625,0.34261625 0 0 0 -0.304687,0.18945 l -0.134766,0.26563 h -0.01758 -0.230469 -0.228515 a 0.34261625,0.34261625 0 0 0 -0.228516,0.22851 0.34261625,0.34261625 0 0 0 -0.002,0 h -0.228516 a 0.34261625,0.34261625 0 0 0 -0.30664,0.1875 l -0.132813,0.26758 h -0.01953 -0.228516 -0.228515 a 0.34261625,0.34261625 0 0 0 -0.34375,0.3418 v 0.11328 h -0.115235 -0.230468 a 0.34261625,0.34261625 0 0 0 -0.304688,0.1875 l -0.134765,0.26758 h -0.01758 -0.230468 -0.228516 a 0.34261625,0.34261625 0 0 0 -0.34375,0.34179 v 0.11328 h -0.115234 -0.228516 a 0.34261625,0.34261625 0 0 0 -0.306641,0.1875 l -0.134765,0.26758 h -0.01758 -0.228516 a 0.34261625,0.34261625 0 0 0 -0.306641,0.1875 l -0.134765,0.26758 H 31.792969 31.5625 31.333984 a 0.34261625,0.34261625 0 0 0 -0.30664,0.1875 l -0.132813,0.26758 H 30.875 30.646484 a 0.34261625,0.34261625 0 0 0 -0.242187,0.0977 l -0.128906,0.1289 H 30.1875 29.958984 29.728516 a 0.34261625,0.34261625 0 0 0 -0.304688,0.18945 l -0.134766,0.26563 h -0.01758 -0.230468 a 0.34261625,0.34261625 0 0 0 -0.304688,0.18945 l -0.134766,0.26563 H 28.583984 28.353516 28.125 a 0.34261625,0.34261625 0 0 0 -0.306641,0.1875 l -0.134765,0.26758 H 27.666016 27.4375 a 0.34261625,0.34261625 0 0 0 -0.306641,0.1875 l -0.134765,0.26757 h -0.01758 -0.230469 -0.228516 a 0.34261625,0.34261625 0 0 0 -0.30664,0.1875 l -0.132813,0.26758 h -0.01953 a 0.34261625,0.34261625 0 0 0 -0.304688,0.1875 l -0.134765,0.26758 h -0.01758 -0.230469 -0.228516 a 0.34261625,0.34261625 0 0 0 -0.242187,0.0996 l -0.128907,0.12695 h -0.08789 -0.228516 a 0.34261625,0.34261625 0 0 0 -0.30664,0.18946 l -0.134766,0.26562 h -0.01758 -0.228516 -0.230469 a 0.34261625,0.34261625 0 0 0 -0.341796,0.34375 v 0.11133 h -0.117188 -0.228516 a 0.34261625,0.34261625 0 0 0 -0.30664,0.18945 l -0.132813,0.26563 h -0.01953 -0.228516 -0.230468 a 0.34261625,0.34261625 0 0 0 -0.341797,0.34375 v 0.11133 h -0.115235 -0.230468 a 0.34261625,0.34261625 0 0 0 -0.304688,0.18945 l -0.134765,0.26562 h -0.01758 -0.230468 a 0.34261625,0.34261625 0 0 0 -0.304688,0.18946 l -0.134765,0.26562 h -0.01953 -0.228515 -0.228516 a 0.34261625,0.34261625 0 0 0 -0.306641,0.18945 l -0.134765,0.26563 h -0.01758 -0.228516 a 0.34261625,0.34261625 0 0 0 -0.242187,0.0996 l -0.128907,0.12891 h -0.08789 -0.230469 -0.228516 a 0.34261625,0.34261625 0 0 0 -0.30664,0.1875 l -0.132813,0.26757 h -0.01953 -0.228516 a 0.34261625,0.34261625 0 0 0 -0.30664,0.1875 l -0.134766,0.26758 h -0.01758 -0.228516 a 0.34261625,0.34261625 0 0 0 -0.30664,0.1875 l -0.134766,0.26758 h -0.01758 -0.228516 a 0.34261625,0.34261625 0 0 0 -0.30664,0.1875 l -0.134766,0.26758 h -0.01758 -0.230469 -0.228515 A 0.34261625,0.34261625 0 0 0 14.75,160.79883 l -0.132812,0.26758 h -0.01953 -0.228515 a 0.34261625,0.34261625 0 0 0 -0.306641,0.1875 l -0.132812,0.26757 h -0.01953 -0.228515 -0.230469 a 0.34261625,0.34261625 0 0 0 -0.240234,0.0996 l -0.128907,0.12696 h -0.08789 -0.230469 a 0.34261625,0.34261625 0 0 0 -0.304688,0.18945 l -0.134765,0.26562 h -0.01758 -0.230469 -0.228516 a 0.34261625,0.34261625 0 0 0 -0.30664,0.18946 l -0.134766,0.26562 h -0.01758 -0.228516 a 0.34261625,0.34261625 0 0 0 -0.30664,0.18946 l -0.134766,0.26562 h -0.01758 -0.230469 -0.228515 a 0.34261625,0.34261625 0 0 0 -0.3417974,0.34375 v 0.11133 H 9.7832031 9.5546875 a 0.34261625,0.34261625 0 0 0 -0.3066406,0.18945 l -0.1328125,0.26563 H 9.0957031 8.8671875 a 0.34261625,0.34261625 0 0 0 -0.3066406,0.18945 l -0.1347656,0.26563 H 8.4082031 8.1796875 7.9492187 a 0.34261625,0.34261625 0 0 0 -0.3046875,0.18945 l -0.1347656,0.26562 H 7.4921875 7.2617187 a 0.34261625,0.34261625 0 0 0 -0.2402343,0.0996 l -0.1289063,0.12891 h -0.089844 a 0.34258199,0.34258199 0 0 0 -0.3417969,0.3418 0.34258199,0.34258199 0 0 0 0.3417969,0.34179 h 0.2304687 a 0.34261625,0.34261625 0 0 0 0.2402344,-0.0996 l 0.1289062,-0.12695 h 0.089844 0.2285156 a 0.34261625,0.34261625 0 0 0 0.3066407,-0.18945 l 0.1328125,-0.26563 h 0.019531 0.2285156 0.2285157 a 0.34261625,0.34261625 0 0 0 0.3066406,-0.18945 l 0.1347656,-0.26563 h 0.017578 0.2304688 a 0.34261625,0.34261625 0 0 0 0.3046875,-0.18945 l 0.1347656,-0.26562 h 0.017578 0.2304689 0.228516 a 0.34261625,0.34261625 0 0 0 0.34375,-0.34375 v -0.11133 h 0.115234 0.228516 a 0.34261625,0.34261625 0 0 0 0.30664,-0.18946 l 0.134766,-0.26562 h 0.01758 0.228516 a 0.34261625,0.34261625 0 0 0 0.30664,-0.18945 l 0.134766,-0.26563 h 0.01758 0.230469 0.228515 a 0.34261625,0.34261625 0 0 0 0.306641,-0.18945 l 0.132812,-0.26563 h 0.01953 0.228515 a 0.34261625,0.34261625 0 0 0 0.242188,-0.0996 l 0.128906,-0.1289 h 0.08789 0.228515 0.230469 a 0.34261625,0.34261625 0 0 0 0.304688,-0.1875 l 0.134765,-0.26563 h 0.01758 0.230469 a 0.34261625,0.34261625 0 0 0 0.304688,-0.18945 l 0.134765,-0.26563 h 0.01758 0.230469 0.228516 a 0.34261625,0.34261625 0 0 0 0.30664,-0.18945 l 0.134766,-0.26562 h 0.01758 0.228516 a 0.34261625,0.34261625 0 0 0 0.30664,-0.18946 l 0.134766,-0.26562 h 0.01758 0.230469 a 0.34261625,0.34261625 0 0 0 0.304687,-0.18945 l 0.134766,-0.26563 h 0.01758 0.230469 a 0.34261625,0.34261625 0 0 0 0.304687,-0.18945 l 0.134766,-0.26563 h 0.01758 0.230469 0.228515 a 0.34261625,0.34261625 0 0 0 0.242188,-0.0996 l 0.128906,-0.1289 h 0.08789 0.228515 a 0.34261625,0.34261625 0 0 0 0.306641,-0.1875 l 0.134766,-0.26758 h 0.01758 0.228515 0.230469 a 0.34261625,0.34261625 0 0 0 0.304688,-0.1875 l 0.134765,-0.26758 h 0.01953 0.228516 a 0.34261625,0.34261625 0 0 0 0.306641,-0.1875 l 0.132812,-0.26758 h 0.01953 0.228516 0.228516 a 0.34261625,0.34261625 0 0 0 0.34375,-0.34179 v -0.11329 h 0.115234 0.230469 a 0.34261625,0.34261625 0 0 0 0.304687,-0.1875 l 0.134766,-0.26757 h 0.01758 0.230469 0.228515 a 0.34261625,0.34261625 0 0 0 0.34375,-0.3418 v -0.11328 h 0.115235 0.228515 a 0.34261625,0.34261625 0 0 0 0.306641,-0.1875 l 0.134766,-0.26758 h 0.01758 0.228515 a 0.34261625,0.34261625 0 0 0 0.242188,-0.0996 l 0.128906,-0.12695 h 0.08789 0.230469 0.228515 a 0.34261625,0.34261625 0 0 0 0.306641,-0.18946 l 0.132812,-0.26562 h 0.01953 a 0.34261625,0.34261625 0 0 0 0.304687,-0.18945 l 0.134766,-0.26563 h 0.01758 0.230469 0.228515 a 0.34261625,0.34261625 0 0 0 0.306641,-0.18945 l 0.134765,-0.26563 h 0.01758 0.228515 a 0.34261625,0.34261625 0 0 0 0.306641,-0.18945 l 0.134765,-0.26563 h 0.01758 0.230468 0.228516 a 0.34261625,0.34261625 0 0 0 0.306641,-0.18945 l 0.132812,-0.26562 H 29.271484 29.5 a 0.34261625,0.34261625 0 0 0 0.306641,-0.18946 l 0.132812,-0.26562 h 0.01953 0.228516 0.230469 a 0.34261625,0.34261625 0 0 0 0.240234,-0.0996 l 0.128906,-0.12891 h 0.08789 0.230469 a 0.34261625,0.34261625 0 0 0 0.304687,-0.1875 l 0.134766,-0.26758 h 0.01758 0.230469 0.228515 a 0.34261625,0.34261625 0 0 0 0.306641,-0.1875 l 0.134766,-0.26757 h 0.01758 0.228515 a 0.34261625,0.34261625 0 0 0 0.306641,-0.1875 l 0.134766,-0.26758 h 0.01758 0.230468 0.228516 a 0.34261625,0.34261625 0 0 0 0.341797,-0.3418 v -0.11328 h 0.117187 0.228516 a 0.34261625,0.34261625 0 0 0 0.306641,-0.1875 l 0.132812,-0.26758 h 0.01953 0.228516 0.230469 a 0.34261625,0.34261625 0 0 0 0.341797,-0.34179 v -0.11329 h 0.115234 0.230469 a 0.34261625,0.34261625 0 0 0 0.304687,-0.1875 l 0.134766,-0.26757 h 0.01758 0.230469 a 0.34261625,0.34261625 0 0 0 0.226562,-0.22657 0.34261625,0.34261625 0 0 0 0.002,0 h 0.230469 0.228516 a 0.34261625,0.34261625 0 0 0 0.30664,-0.1875 l 0.132813,-0.26757 h 0.01953 0.228516 a 0.34261625,0.34261625 0 0 0 0.30664,-0.1875 l 0.134766,-0.26758 h 0.01758 0.228516 0.230469 a 0.34261625,0.34261625 0 0 0 0.304687,-0.1875 l 0.134766,-0.26758 h 0.01758 0.230469 a 0.34261625,0.34261625 0 0 0 0.304687,-0.1875 l 0.134766,-0.26758 h 0.01953 0.228516 0.228515 a 0.34261625,0.34261625 0 0 0 0.306641,-0.1875 l 0.134765,-0.26758 h 0.01758 0.228515 a 0.34261625,0.34261625 0 0 0 0.306641,-0.1875 l 0.134765,-0.26758 h 0.01758 0.230468 0.228516 a 0.34261625,0.34261625 0 0 0 0.306641,-0.1875 l 0.132812,-0.26757 h 0.01953 0.228516 a 0.34261625,0.34261625 0 0 0 0.242187,-0.0996 l 0.128907,-0.12696 h 0.08789 0.228516 0.230469 a 0.34261625,0.34261625 0 0 0 0.304687,-0.18945 l 0.134766,-0.26562 h 0.01758 0.230469 a 0.34261625,0.34261625 0 0 0 0.304687,-0.18946 l 0.134766,-0.26562 h 0.01953 0.228516 0.228515 a 0.34261625,0.34261625 0 0 0 0.34375,-0.34375 v -0.11133 h 0.115235 0.228515 a 0.34261625,0.34261625 0 0 0 0.306641,-0.18945 l 0.134766,-0.26563 h 0.01758 0.230468 A 0.34261625,0.34261625 0 0 0 47,144.04297 l 0.134766,-0.26563 h 0.01758 0.230468 a 0.34261625,0.34261625 0 0 0 0.304688,-0.18945 l 0.134766,-0.26562 h 0.01758 0.230468 0.228516 a 0.34261625,0.34261625 0 0 0 0.228516,-0.22852 0.34261625,0.34261625 0 0 0 0.002,0 h 0.228515 0.228516 a 0.34261625,0.34261625 0 0 0 0.306641,-0.1875 l 0.134765,-0.26758 h 0.01758 0.228516 a 0.34261625,0.34261625 0 0 0 0.306641,-0.1875 l 0.134765,-0.26758 h 0.01758 0.230469 0.228516 a 0.34261625,0.34261625 0 0 0 0.30664,-0.1875 l 0.132813,-0.26757 h 0.01953 0.228516 a 0.34261625,0.34261625 0 0 0 0.30664,-0.1875 l 0.134766,-0.26758 h 0.01758 0.228516 0.230469 a 0.34261625,0.34261625 0 0 0 0.304687,-0.1875 l 0.134766,-0.26758 h 0.01758 0.230469 a 0.34261625,0.34261625 0 0 0 0.304687,-0.1875 l 0.134766,-0.26758 h 0.01953 0.228516 0.228515 a 0.34261625,0.34261625 0 0 0 0.306641,-0.1875 l 0.134765,-0.26758 h 0.01758 0.228515 a 0.34261625,0.34261625 0 0 0 0.242188,-0.0996 l 0.128906,-0.12695 h 0.08789 0.230468 0.228516 a 0.34261625,0.34261625 0 0 0 0.306641,-0.18945 l 0.132812,-0.26563 h 0.01953 0.228516 a 0.34261625,0.34261625 0 0 0 0.306641,-0.18945 l 0.134765,-0.26563 h 0.01758 0.228516 a 0.34261625,0.34261625 0 0 0 0.306641,-0.18945 l 0.134765,-0.26562 h 0.01758 0.228516 a 0.34261625,0.34261625 0 0 0 0.306641,-0.18946 l 0.134765,-0.26562 h 0.01758 0.230469 0.228516 a 0.34261625,0.34261625 0 0 0 0.30664,-0.18946 l 0.132813,-0.26562 h 0.01953 0.228516 a 0.34261625,0.34261625 0 0 0 0.30664,-0.1875 l 0.132813,-0.26758 h 0.01953 0.228516 0.230468 a 0.34261625,0.34261625 0 0 0 0.226563,-0.22656 0.34261625,0.34261625 0 0 0 0.002,0 h 0.228516 0.230468 a 0.34261625,0.34261625 0 0 0 0.304688,-0.18945 l 0.134766,-0.26563 h 0.01953 0.228515 a 0.34261625,0.34261625 0 0 0 0.306641,-0.18945 l 0.132813,-0.26563 h 0.01953 0.228515 0.228516 a 0.34261625,0.34261625 0 0 0 0.306641,-0.18945 l 0.134765,-0.26563 h 0.01758 0.230469 a 0.34261625,0.34261625 0 0 0 0.304688,-0.18945 l 0.134765,-0.26562 h 0.01758 0.230469 0.228516 a 0.34261625,0.34261625 0 0 0 0.30664,-0.18946 l 0.132813,-0.26562 h 0.01953 0.228516 a 0.34261625,0.34261625 0 0 0 0.30664,-0.18945 l 0.134766,-0.26563 h 0.01758 0.228516 0.230469 a 0.34261625,0.34261625 0 0 0 0.304687,-0.18945 l 0.134766,-0.26563 h 0.01758 a 0.34261625,0.34261625 0 0 0 0.242187,-0.0996 l 0.128907,-0.1289 h 0.08789 0.230469 0.228516 a 0.34261625,0.34261625 0 0 0 0.30664,-0.1875 l 0.132813,-0.26758 h 0.01953 0.228516 a 0.34261625,0.34261625 0 0 0 0.30664,-0.1875 l 0.134766,-0.26758 h 0.01758 0.228516 0.230468 a 0.34261625,0.34261625 0 0 0 0.304688,-0.1875 l 0.134765,-0.26758 h 0.01758 0.230468 a 0.34261625,0.34261625 0 0 0 0.304688,-0.1875 l 0.134765,-0.26758 h 0.01953 0.228515 0.228516 a 0.34261625,0.34261625 0 0 0 0.306641,-0.1875 l 0.134765,-0.26757 h 0.01758 0.228516 a 0.34261625,0.34261625 0 0 0 0.306641,-0.1875 l 0.134765,-0.26758 h 0.01758 0.230469 0.228516 a 0.34261625,0.34261625 0 0 0 0.226562,-0.22656 0.34261625,0.34261625 0 0 0 0.002,0 h 0.230469 0.228516 a 0.34261625,0.34261625 0 0 0 0.30664,-0.18946 l 0.134766,-0.26562 h 0.01758 0.228516 a 0.34261625,0.34261625 0 0 0 0.30664,-0.18946 L 73.5,129.44336 h 0.01758 0.228516 0.230468 a 0.34261625,0.34261625 0 0 0 0.304688,-0.18945 l 0.134766,-0.26563 h 0.01953 0.228515 a 0.34261625,0.34261625 0 0 0 0.306641,-0.18945 l 0.132813,-0.26563 h 0.01953 0.228515 0.228516 a 0.34261625,0.34261625 0 0 0 0.306641,-0.18945 l 0.134765,-0.26563 h 0.01758 a 0.34261625,0.34261625 0 0 0 0.306641,-0.18945 l 0.134766,-0.26562 h 0.01758 0.228515 0.230469 a 0.34261625,0.34261625 0 0 0 0.304688,-0.18946 l 0.134765,-0.26562 h 0.01758 0.230469 a 0.34261625,0.34261625 0 0 0 0.240235,-0.0996 l 0.130859,-0.12891 h 0.08789 0.228515 0.228516 a 0.34261625,0.34261625 0 0 0 0.30664,-0.1875 l 0.134766,-0.26757 H 79.019531 79.25 a 0.34261625,0.34261625 0 0 0 0.304687,-0.1875 l 0.134766,-0.26758 h 0.01758 0.230469 0.228516 a 0.34261625,0.34261625 0 0 0 0.30664,-0.1875 l 0.132813,-0.26758 h 0.01953 0.228516 a 0.34261625,0.34261625 0 0 0 0.30664,-0.1875 l 0.134766,-0.26758 h 0.01758 0.228516 0.230468 a 0.34261625,0.34261625 0 0 0 0.304688,-0.1875 l 0.134765,-0.26562 h 0.01758 0.230468 a 0.34261625,0.34261625 0 0 0 0.306641,-0.18946 l 0.132812,-0.26562 h 0.01953 0.228515 0.228516 a 0.34261625,0.34261625 0 0 0 0.228516,-0.22852 0.34261625,0.34261625 0 0 0 0.002,0 h 0.228515 0.230469 a 0.34261625,0.34261625 0 0 0 0.304688,-0.1875 l 0.134765,-0.26758 h 0.01758 0.230469 0.228516 a 0.34261625,0.34261625 0 0 0 0.341797,-0.34179 v -0.11328 h 0.117187 0.228516 a 0.34261625,0.34261625 0 0 0 0.30664,-0.1875 l 0.134766,-0.26758 h 0.01758 0.228516 a 0.34261625,0.34261625 0 0 0 0.34375,-0.3418 v -0.11328 h 0.115234 0.228516 a 0.34261625,0.34261625 0 0 0 0.30664,-0.1875 l 0.134766,-0.26758 h 0.01758 0.230469 a 0.34261625,0.34261625 0 0 0 0.304687,-0.1875 l 0.134766,-0.26758 h 0.01758 0.230469 0.228515 a 0.34261625,0.34261625 0 0 0 0.306641,-0.1875 l 0.134766,-0.26757 h 0.01758 0.228515 a 0.34261625,0.34261625 0 0 0 0.242188,-0.0996 l 0.128906,-0.12696 h 0.08789 0.228515 0.230469 a 0.34261625,0.34261625 0 0 0 0.304688,-0.18945 l 0.134765,-0.26563 h 0.01953 0.228515 a 0.34261625,0.34261625 0 0 0 0.306641,-0.18945 l 0.132812,-0.26562 h 0.01953 0.228515 0.228516 a 0.34261625,0.34261625 0 0 0 0.30664,-0.18946 l 0.134766,-0.26562 h 0.01758 0.230469 a 0.34261625,0.34261625 0 0 0 0.304687,-0.18945 L 92.986328,118.75 h 0.01758 0.230469 0.228516 a 0.34261625,0.34261625 0 0 0 0.30664,-0.18945 l 0.134766,-0.26563 h 0.01758 0.228516 a 0.34261625,0.34261625 0 0 0 0.30664,-0.18945 l 0.134766,-0.26563 h 0.01758 0.228516 0.230468 a 0.34261625,0.34261625 0 0 0 0.226563,-0.22851 0.34261625,0.34261625 0 0 0 0.002,0 h 0.230469 0.228515 a 0.34261625,0.34261625 0 0 0 0.306641,-0.1875 l 0.132812,-0.26758 h 0.01953 0.228515 A 0.34261625,0.34261625 0 0 0 96.75,116.96875 l 0.132812,-0.26758 h 0.01953 0.228515 a 0.34261625,0.34261625 0 0 0 0.306641,-0.1875 l 0.134766,-0.26758 h 0.01758 0.228515 0.230469 a 0.34261625,0.34261625 0 0 0 0.341797,-0.34179 v -0.11328 h 0.115234 0.230469 a 0.34261625,0.34261625 0 0 0 0.304688,-0.1875 l 0.134765,-0.26758 h 0.01953 0.228516 a 0.34261625,0.34261625 0 0 0 0.306641,-0.1875 l 0.132812,-0.26758 h 0.01953 0.228518 0.23047 a 0.34261625,0.34261625 0 0 0 0.30468,-0.1875 l 0.13477,-0.26758 h 0.0176 0.23047 a 0.34261625,0.34261625 0 0 0 0.24023,-0.0977 l 0.12891,-0.12891 h 0.0879 0.23047 0.22851 a 0.34261625,0.34261625 0 0 0 0.30664,-0.18945 l 0.13477,-0.26563 h 0.0176 0.22851 a 0.34261625,0.34261625 0 0 0 0.30664,-0.18945 l 0.13477,-0.26563 h 0.0176 0.22851 0.23047 a 0.34261625,0.34261625 0 0 0 0.30469,-0.18945 l 0.13476,-0.26563 h 0.0195 0.22851 a 0.34261625,0.34261625 0 0 0 0.30664,-0.1875 l 0.13281,-0.26757 h 0.0195 0.22851 0.22852 a 0.34261625,0.34261625 0 0 0 0.30664,-0.1875 l 0.13476,-0.26758 h 0.0176 a 0.34261625,0.34261625 0 0 0 0.30664,-0.1875 l 0.13477,-0.26758 h 0.0176 0.22851 0.23047 a 0.34261625,0.34261625 0 0 0 0.30469,-0.1875 l 0.13476,-0.26758 h 0.0195 0.22852 a 0.34261625,0.34261625 0 0 0 0.24023,-0.0996 l 0.13086,-0.12695 h 0.0879 0.22852 0.22852 a 0.34261625,0.34261625 0 0 0 0.30664,-0.18945 l 0.13476,-0.26563 h 0.0176 0.23047 a 0.34261625,0.34261625 0 0 0 0.30469,-0.18945 l 0.13476,-0.26563 h 0.0176 0.23047 0.22851 a 0.34261625,0.34261625 0 0 0 0.3418,-0.34375 v -0.11132 h 0.11719 0.22851 a 0.34261625,0.34261625 0 0 0 0.30665,-0.18946 l 0.13476,-0.26562 h 0.0176 0.22851 a 0.34261625,0.34261625 0 0 0 0.30665,-0.18946 l 0.13476,-0.26562 h 0.0176 0.23047 0.22851 a 0.34261625,0.34261625 0 0 0 0.30664,-0.18945 l 0.13282,-0.26563 h 0.0195 0.22851 a 0.34261625,0.34261625 0 0 0 0.24219,-0.0996 l 0.12891,-0.1289 h 0.0879 0.22851 0.23047 a 0.34261625,0.34261625 0 0 0 0.30469,-0.1875 l 0.13477,-0.26758 h 0.0176 0.23047 a 0.34261625,0.34261625 0 0 0 0.30469,-0.1875 l 0.13477,-0.26758 h 0.0176 0.23047 0.22852 a 0.34261625,0.34261625 0 0 0 0.30664,-0.1875 l 0.13476,-0.26758 h 0.0176 a 0.34261625,0.34261625 0 0 0 0.30664,-0.1875 l 0.13282,-0.26758 h 0.0195 0.22851 0.23047 a 0.34261625,0.34261625 0 0 0 0.30469,-0.1875 l 0.13476,-0.26758 h 0.0176 0.23047 a 0.34261625,0.34261625 0 0 0 0.30469,-0.1875 l 0.13476,-0.26757 h 0.0176 0.23047 0.22852 a 0.34261625,0.34261625 0 0 0 0.30664,-0.1875 l 0.13476,-0.26758 h 0.0176 0.22852 a 0.34261625,0.34261625 0 0 0 0.24218,-0.0996 l 0.12891,-0.12695 h 0.0879 0.22852 0.23047 a 0.34261625,0.34261625 0 0 0 0.30468,-0.18946 l 0.13477,-0.26562 h 0.0195 0.22852 a 0.34261625,0.34261625 0 0 0 0.30664,-0.18946 l 0.13281,-0.26562 h 0.0195 0.22852 0.22851 a 0.34261625,0.34261625 0 0 0 0.34375,-0.34375 v -0.11133 h 0.11524 0.23046 a 0.34261625,0.34261625 0 0 0 0.30469,-0.18945 l 0.13477,-0.26563 h 0.0176 0.23046 a 0.34261625,0.34261625 0 0 0 0.30469,-0.18945 l 0.13477,-0.26562 h 0.0195 0.22851 0.22852 a 0.34261625,0.34261625 0 0 0 0.30664,-0.18946 l 0.13477,-0.26562 h 0.0176 0.22852 a 0.34261625,0.34261625 0 0 0 0.24219,-0.0996 l 0.1289,-0.12891 h 0.0879 0.23047 0.22852 a 0.34261625,0.34261625 0 0 0 0.30664,-0.1875 l 0.13281,-0.26758 h 0.0195 a 0.34261625,0.34261625 0 0 0 0.30469,-0.1875 l 0.13477,-0.26757 h 0.0176 0.23047 0.22852 a 0.34261625,0.34261625 0 0 0 0.30664,-0.1875 l 0.13476,-0.26563 h 0.0176 0.22852 a 0.34261625,0.34261625 0 0 0 0.30664,-0.189453 l 0.13476,-0.265625 h 0.0176 0.23047 0.22852 a 0.34261625,0.34261625 0 0 0 0.30664,-0.189453 L 128.75,99.183594 h 0.0195 0.22852 a 0.34261625,0.34261625 0 0 0 0.30664,-0.189453 l 0.13281,-0.265625 h 0.0195 0.22852 0.23047 a 0.34261625,0.34261625 0 0 0 0.30468,-0.189454 l 0.13477,-0.265625 h 0.0176 0.23047 a 0.34261625,0.34261625 0 0 0 0.24023,-0.09961 l 0.12891,-0.128906 h 0.0879 0.23047 0.22851 a 0.34261625,0.34261625 0 0 0 0.30664,-0.1875 l 0.13477,-0.267578 h 0.0176 0.22851 a 0.34261625,0.34261625 0 0 0 0.30664,-0.1875 l 0.13477,-0.267578 h 0.0176 0.22851 0.23047 a 0.34261625,0.34261625 0 0 0 0.3418,-0.341797 v -0.113282 h 0.11718 0.22852 a 0.34261625,0.34261625 0 0 0 0.30664,-0.1875 l 0.13281,-0.267578 h 0.0195 0.22852 a 0.34261625,0.34261625 0 0 0 0.30664,-0.1875 l 0.13477,-0.267578 h 0.0176 0.22852 0.23047 a 0.34261625,0.34261625 0 0 0 0.30469,-0.1875 l 0.13476,-0.267578 h 0.0176 0.23047 a 0.34261625,0.34261625 0 0 0 0.22656,-0.226562 0.34261625,0.34261625 0 0 0 0.002,0 h 0.23047 0.22852 a 0.34261625,0.34261625 0 0 0 0.30664,-0.189454 l 0.13281,-0.265625 h 0.0195 0.22852 a 0.34261625,0.34261625 0 0 0 0.30664,-0.189453 l 0.13476,-0.265625 h 0.0176 0.22852 0.23047 a 0.34261625,0.34261625 0 0 0 0.30468,-0.189453 l 0.13477,-0.265625 h 0.0176 0.23047 a 0.34261625,0.34261625 0 0 0 0.30468,-0.189453 l 0.13477,-0.265625 h 0.0195 0.22852 0.22851 a 0.34261625,0.34261625 0 0 0 0.30664,-0.189453 l 0.13477,-0.265625 h 0.0176 0.22851 a 0.34261625,0.34261625 0 0 0 0.30664,-0.189453 l 0.13477,-0.265625 h 0.0176 0.23047 0.22851 a 0.34261625,0.34261625 0 0 0 0.30664,-0.189453 l 0.13281,-0.265625 h 0.0195 0.22851 a 0.34261625,0.34261625 0 0 0 0.24219,-0.09961 l 0.12891,-0.128906 h 0.0879 0.22851 0.23047 a 0.34261625,0.34261625 0 0 0 0.30469,-0.1875 l 0.13476,-0.267578 h 0.0176 0.23047 a 0.34261625,0.34261625 0 0 0 0.30469,-0.1875 l 0.13476,-0.267578 h 0.0195 0.22852 0.22852 a 0.34261625,0.34261625 0 0 0 0.34375,-0.341797 v -0.113281 h 0.11523 a 0.34261625,0.34261625 0 0 0 0.30664,-0.1875 l 0.13281,-0.267578 h 0.0195 0.22852 0.23047 a 0.34261625,0.34261625 0 0 0 0.30469,-0.1875 l 0.13476,-0.267579 h 0.0176 0.23047 a 0.34261625,0.34261625 0 0 0 0.30469,-0.1875 l 0.13476,-0.267578 h 0.0176 0.23047 0.22851 a 0.34261625,0.34261625 0 0 0 0.22852,-0.226562 h 0.002 0.22852 0.22851 a 0.34261625,0.34261625 0 0 0 0.30665,-0.189453 l 0.13476,-0.265625 h 0.0176 0.22851 a 0.34261625,0.34261625 0 0 0 0.30665,-0.1875 l 0.13476,-0.267578 h 0.0176 0.23047 0.22851 a 0.34261625,0.34261625 0 0 0 0.30664,-0.1875 l 0.13282,-0.267579 h 0.0195 0.22851 a 0.34261625,0.34261625 0 0 0 0.30664,-0.1875 l 0.13477,-0.267578 h 0.0176 0.22851 0.23047 A 0.34261625,0.34261625 0 0 0 152,86.708984 l 0.13477,-0.267578 h 0.0176 0.23047 a 0.34261625,0.34261625 0 0 0 0.30469,-0.1875 l 0.13477,-0.267578 h 0.0195 0.22851 0.22852 a 0.34261625,0.34261625 0 0 0 0.30664,-0.1875 l 0.13476,-0.267578 h 0.0176 0.22852 a 0.34261625,0.34261625 0 0 0 0.24219,-0.09961 l 0.1289,-0.126954 h 0.0879 0.23047 0.22852 a 0.34261625,0.34261625 0 0 0 0.30664,-0.189453 l 0.13281,-0.265625 h 0.0195 a 0.34261625,0.34261625 0 0 0 0.30469,-0.189453 l 0.13476,-0.265625 h 0.0195 0.22851 0.22852 a 0.34261625,0.34261625 0 0 0 0.30664,-0.189453 l 0.13476,-0.265625 h 0.0176 0.22852 A 0.34261625,0.34261625 0 0 0 157.27344,83.75 l 0.13476,-0.265625 h 0.0176 0.23047 0.22852 a 0.34261625,0.34261625 0 0 0 0.30664,-0.189453 l 0.13281,-0.265625 h 0.0195 0.22852 a 0.34261625,0.34261625 0 0 0 0.30664,-0.189453 l 0.13281,-0.265625 h 0.0195 0.22852 0.23046 a 0.34261625,0.34261625 0 0 0 0.22657,-0.228516 0.34261625,0.34261625 0 0 0 0.002,0 h 0.22852 0.23046 a 0.34261625,0.34261625 0 0 0 0.30469,-0.1875 l 0.13477,-0.267578 h 0.0176 0.23046 a 0.34261625,0.34261625 0 0 0 0.30664,-0.1875 l 0.13282,-0.267578 h 0.0195 0.22851 0.22852 a 0.34261625,0.34261625 0 0 0 0.30664,-0.1875 l 0.13477,-0.267578 h 0.0176 0.23047 a 0.34261625,0.34261625 0 0 0 0.30469,-0.1875 l 0.13477,-0.267578 h 0.0176 0.23047 0.22852 a 0.34261625,0.34261625 0 0 0 0.30664,-0.1875 l 0.13281,-0.267579 h 0.0195 0.22852 a 0.34261625,0.34261625 0 0 0 0.30664,-0.1875 l 0.13476,-0.267578 h 0.0176 0.22852 0.23047 a 0.34261625,0.34261625 0 0 0 0.30468,-0.1875 l 0.13477,-0.267578 h 0.0176 a 0.34261625,0.34261625 0 0 0 0.24219,-0.09961 l 0.1289,-0.126953 h 0.0879 0.23047 0.22852 a 0.34261625,0.34261625 0 0 0 0.30664,-0.189453 l 0.13281,-0.265625 h 0.0195 0.22852 a 0.34261625,0.34261625 0 0 0 0.30664,-0.189454 l 0.13476,-0.265625 h 0.0176 0.22852 0.23047 a 0.34261625,0.34261625 0 0 0 0.30468,-0.189453 l 0.13477,-0.265625 h 0.0176 0.23047 a 0.34261625,0.34261625 0 0 0 0.30468,-0.189453 l 0.13477,-0.265625 h 0.0195 0.22852 0.22851 a 0.34261625,0.34261625 0 0 0 0.30664,-0.189453 l 0.13477,-0.265625 h 0.0176 0.22851 a 0.34261625,0.34261625 0 0 0 0.30664,-0.189453 l 0.13477,-0.265625 h 0.0176 0.23046 0.22852 a 0.34261625,0.34261625 0 0 0 0.3418,-0.341797 v -0.113281 h 0.11718 0.22852 a 0.34261625,0.34261625 0 0 0 0.24219,-0.09961 l 0.1289,-0.126953 h 0.0879 0.22852 a 0.34261625,0.34261625 0 0 0 0.30664,-0.189453 l 0.13477,-0.265625 h 0.0176 0.22852 0.23047 a 0.34261625,0.34261625 0 0 0 0.30469,-0.189453 l 0.13476,-0.265625 h 0.0195 0.22852 a 0.34261625,0.34261625 0 0 0 0.30664,-0.189453 l 0.13281,-0.265625 h 0.0195 0.22852 0.22851 a 0.34261625,0.34261625 0 0 0 0.30665,-0.189453 l 0.13476,-0.265625 h 0.0176 a 0.34261625,0.34261625 0 0 0 0.30664,-0.189453 l 0.13477,-0.265625 h 0.0176 0.22852 0.23047 a 0.34261625,0.34261625 0 0 0 0.30469,-0.189453 l 0.13476,-0.265625 h 0.0176 0.23047 a 0.34261625,0.34261625 0 0 0 0.24023,-0.09961 l 0.13086,-0.128906 h 0.0879 0.22852 0.22851 a 0.34261625,0.34261625 0 0 0 0.30664,-0.1875 L 178.5,72.107422 h 0.0176 0.23047 a 0.34261625,0.34261625 0 0 0 0.30468,-0.1875 l 0.13477,-0.267578 h 0.0176 0.23047 0.22851 a 0.34261625,0.34261625 0 0 0 0.30664,-0.1875 l 0.13282,-0.267578 h 0.0195 0.22851 a 0.34261625,0.34261625 0 0 0 0.30664,-0.1875 l 0.13477,-0.267579 h 0.0176 0.22851 0.23047 a 0.34261625,0.34261625 0 0 0 0.30469,-0.1875 l 0.13476,-0.267578 h 0.0176 0.23047 a 0.34261625,0.34261625 0 0 0 0.30469,-0.1875 l 0.13476,-0.267578 h 0.0195 0.22851 0.22852 a 0.34261625,0.34261625 0 0 0 0.34375,-0.341797 v -0.113281 h 0.11523 0.23047 a 0.34261625,0.34261625 0 0 0 0.24023,-0.09961 l 0.12891,-0.126953 h 0.0879 0.23047 a 0.34261625,0.34261625 0 0 0 0.30469,-0.189454 l 0.13476,-0.265625 h 0.0176 0.23047 a 0.34261625,0.34261625 0 0 0 0.30469,-0.189453 l 0.13476,-0.265625 h 0.0195 0.22852 0.22852 a 0.34261625,0.34261625 0 0 0 0.34375,-0.34375 v -0.111328 h 0.11523 0.22852 a 0.34261625,0.34261625 0 0 0 0.30664,-0.189453 l 0.13476,-0.265625 H 187 h 0.23047 a 0.34261625,0.34261625 0 0 0 0.30469,-0.189453 L 187.66992,66.875 h 0.0176 0.23047 0.22851 a 0.34261625,0.34261625 0 0 0 0.30664,-0.189453 l 0.13477,-0.265625 h 0.0176 0.22851 a 0.34261625,0.34261625 0 0 0 0.24219,-0.09961 l 0.12891,-0.128906 h 0.0879 0.22851 0.23047 a 0.34261625,0.34261625 0 0 0 0.30469,-0.1875 l 0.13477,-0.267578 h 0.0195 0.22851 a 0.34261625,0.34261625 0 0 0 0.30664,-0.1875 l 0.13282,-0.267578 h 0.0195 0.22851 0.22852 a 0.34261625,0.34261625 0 0 0 0.30664,-0.1875 l 0.13476,-0.267578 h 0.0176 0.23047 a 0.34261625,0.34261625 0 0 0 0.30469,-0.1875 l 0.13476,-0.267578 h 0.0176 0.23047 0.22852 a 0.34261625,0.34261625 0 0 0 0.30664,-0.1875 l 0.13476,-0.267578 h 0.0176 0.22852 a 0.34261625,0.34261625 0 0 0 0.30664,-0.1875 l 0.13476,-0.267579 h 0.0176 0.22852 0.23047 a 0.34261625,0.34261625 0 0 0 0.34179,-0.341796 v -0.111329 h 0.11719 a 0.34261625,0.34261625 0 0 0 0.24023,-0.09961 l 0.12891,-0.128906 h 0.0879 0.23047 0.22852 A 0.34261625,0.34261625 0 0 0 196.2832,62.4375 v -0.113281 h 0.11719 0.22852 a 0.34261625,0.34261625 0 0 0 0.30664,-0.1875 l 0.13476,-0.267578 h 0.0176 0.22852 0.23046 a 0.34261625,0.34261625 0 0 0 0.3418,-0.341797 v -0.113282 h 0.11524 0.23046 a 0.34261625,0.34261625 0 0 0 0.30469,-0.1875 l 0.13477,-0.267578 h 0.0195 0.22851 a 0.34261625,0.34261625 0 0 0 0.30665,-0.1875 l 0.13281,-0.267578 h 0.0195 0.22851 0.22852 a 0.34261625,0.34261625 0 0 0 0.30664,-0.1875 l 0.13477,-0.267578 h 0.0176 0.23047 a 0.34261625,0.34261625 0 0 0 0.24024,-0.09961 l 0.1289,-0.126953 h 0.0879 0.23047 0.22852 A 0.34261625,0.34261625 0 0 0 201.75,59.632812 l 0.13477,-0.265625 h 0.0176 0.22852 a 0.34261625,0.34261625 0 0 0 0.30664,-0.189453 l 0.13477,-0.265625 h 0.0176 0.22852 0.23047 a 0.34261625,0.34261625 0 0 0 0.30469,-0.189453 l 0.13476,-0.265625 h 0.0195 0.22852 a 0.34261625,0.34261625 0 0 0 0.30664,-0.189453 l 0.13281,-0.265625 h 0.0195 0.22852 0.22851 a 0.34261625,0.34261625 0 0 0 0.30664,-0.189453 l 0.23047,-0.455078 a 0.34258199,0.34258199 0 0 0 -0.15234,-0.458985 0.34258199,0.34258199 0 0 0 -0.26172,-0.01953 z"
       id="path225"
       transform="translate(-1.0238747,-37.271939)" />
  </g>
</svg>
