<?xml version="1.0" encoding="UTF-8" standalone="no"?>
<svg
   width="1134.529"
   height="506.85"
   viewBox="-0.5 -0.5 1134.529 506.85"
   version="1.1"
   id="svg202"
   sodipodi:docname="C04Metaestabilidad.svg"
   inkscape:version="1.2.1 (9c6d41e410, 2022-07-14)"
   xmlns:inkscape="http://www.inkscape.org/namespaces/inkscape"
   xmlns:sodipodi="http://sodipodi.sourceforge.net/DTD/sodipodi-0.dtd"
   xmlns="http://www.w3.org/2000/svg"
   xmlns:svg="http://www.w3.org/2000/svg">
  <defs
     id="defs206">
    <inkscape:path-effect
       effect="spiro"
       id="path-effect3602"
       is_visible="true"
       lpeversion="1" />
  </defs>
  <sodipodi:namedview
     id="namedview204"
     pagecolor="#ffffff"
     bordercolor="#000000"
     borderopacity="0.25"
     inkscape:showpageshadow="2"
     inkscape:pageopacity="0.0"
     inkscape:pagecheckerboard="0"
     inkscape:deskcolor="#d1d1d1"
     showgrid="false"
     inkscape:zoom="0.32924376"
     inkscape:cx="1476.11"
     inkscape:cy="495.07393"
     inkscape:window-width="1920"
     inkscape:window-height="1009"
     inkscape:window-x="1912"
     inkscape:window-y="-8"
     inkscape:window-maximized="1"
     inkscape:current-layer="svg202" />
  <path
     d="m 266.355,763.198 -13.486,-33.92 -253.369,-0.54 -13.486,34.46 12.869,34.46 h 254.603 z"
     style="fill:none;fill-opacity:0.546618;stroke:#6122e4;stroke-width:2.7;stroke-miterlimit:4.4;stroke-dasharray:none"
     id="path2"
     inkscape:label="init1q1" />
  <path
     d="M 1133.66,68.759 908.399,68.143 V 1.067 H 679.058 V 68.143 H 454.471 V 1.067 H 225.13 V 68.759 L -0.496,68.143 m 2042.684,0.616 -225.26,-0.616 V 1.067 h -229.34 V 68.143 H 1363 V 1.067 h -229.34 v 67.692 -0.308 -0.308 m 1817.423,0.616 -225.625,-0.616 V 1.067 H 2496.116 V 68.143 H 2271.53 V 1.067 H 2042.188 V 68.759 68.7205 68.682 68.6435 68.605 68.5665 68.528 68.4895 68.451 68.4125 68.374 68.3355 68.297 68.2585 68.22 68.1815 68.143"
     style="fill:none;fill-opacity:0.546618;stroke:#6122e4;stroke-width:3.13334;stroke-miterlimit:4.4"
     id="path56"
     sodipodi:nodetypes="cccccccccccccccccccccccccccccccccccccccccccccc"
     inkscape:label="clock" />
  <path
     d="m 1387.7202,183.68839 -141.261,-0.61599 v -67.076 h -229.3409 v 67.076 H 622.53125 v -67.076 h -467.341 v 67.69199 L -70.435742,183.0724 m 2042.683942,0.61599 -225.26,-0.61599 v -67.076 h -229.34 v 67.076 h 1.412 v -67.076 h -131.34 v 67.69199 -0.30799 -0.308 m 1493.423,0.61599 -225.625,-0.61599 v -67.076 h -229.342 v 67.076 h -224.586 v -67.076 h -229.342 v 67.69199 -0.0385 -0.0385 -0.0385 -0.0385 -0.0385 -0.0385 -0.0385 -0.0385 -0.0385 -0.0385 -0.0385 -0.0385 -0.0385 -0.0385 -0.0385 -0.0385"
     style="fill:none;fill-opacity:0.546618;stroke:#6122e4;stroke-width:3.13334;stroke-miterlimit:4.4"
     id="path56-2"
     sodipodi:nodetypes="cccccccccccccccccccccccccccccccccccccccccccccc"
     inkscape:label="clock" />
  <path
     d="m 223.328,284.413 -23.744,-33.507 -446.084,-0.534 -23.744,34.041 22.658,34.042 H 200.67 Z"
     style="fill:none;fill-opacity:0.546618;stroke:#6122e4;stroke-width:3.62969;stroke-miterlimit:4.4;stroke-dasharray:none"
     id="path112"
     inkscape:label="initcc" />
  <path
     d="m 266.355,434.247 -13.486,-33.919 -253.369,-0.54 -13.486,34.46 12.869,34.459 h 254.603 z"
     style="display:inline;fill:none;fill-opacity:0.546618;stroke:#6122e4;stroke-width:2.7;stroke-miterlimit:4.4;stroke-dasharray:none"
     id="path140"
     inkscape:label="initq2" />
  <g
     id="g1487"
     inkscape:label="apertura"
     style="display:inline"
     transform="translate(0,118)">
    <rect
       style="fill:#ff9955;fill-opacity:0.75;stroke-width:3.40695;stroke-linejoin:bevel;stroke-miterlimit:4.4"
       id="rect1326"
       width="74.785995"
       height="69.031998"
       x="170.3537"
       y="610.62598" />
    <rect
       style="fill:#ff9955;fill-opacity:0.75;stroke-width:3.40695;stroke-linejoin:bevel;stroke-miterlimit:4.4"
       id="rect1326-8"
       width="74.785995"
       height="69.031998"
       x="170.3537"
       y="282.285" />
    <rect
       style="fill:#ff9955;fill-opacity:0.75;stroke-width:3.40695;stroke-linejoin:bevel;stroke-miterlimit:4.4"
       id="rect1326-82"
       width="74.785995"
       height="69.031998"
       x="626.2738"
       y="611.18762" />
    <rect
       style="fill:#ff9955;fill-opacity:0.75;stroke-width:3.40695;stroke-linejoin:bevel;stroke-miterlimit:4.4"
       id="rect1326-6"
       width="74.785995"
       height="69.031998"
       x="626.2738"
       y="281.96942" />
  </g>
  <g
     id="g2189"
     inkscape:label="estableq1"
     style="display:inline"
     transform="translate(0,600)">
    <path
       d="m 705.745,197.77 7.568,-34.572 -7.93,-34.03 h -148.97 l -148.97,-0.542 -7.931,34.572 7.567,34.572 h 149.333 z"
       style="fill:none;fill-opacity:0.546618;stroke:#6122e4;stroke-width:2.7;stroke-miterlimit:4.4;stroke-dasharray:none"
       id="path34" />
    <path
       d="m 1166.374,162.776 -15.194,-33.764 -285.454,-0.539 -15.194,34.303 14.499,34.302 h 286.844 z"
       style="fill:none;fill-opacity:0.546618;stroke:#6122e4;stroke-width:2.7;stroke-miterlimit:4.4;stroke-dasharray:none"
       id="path38" />
    <path
       d="m 1619.9031,163.54266 -15.194,-33.764 -285.454,-0.539 -15.194,34.303 14.499,34.302 h 286.844 z"
       style="fill:none;fill-opacity:0.546618;stroke:#6122e4;stroke-width:2.7;stroke-miterlimit:4.4;stroke-dasharray:none"
       id="path38-0" />
    <path
       d="m 2074.5994,163.31489 -15.194,-33.764 -285.454,-0.539 -15.194,34.303 14.499,34.302 h 286.844 z"
       style="fill:none;fill-opacity:0.546618;stroke:#6122e4;stroke-width:2.7;stroke-miterlimit:4.4;stroke-dasharray:none"
       id="path38-0-6" />
  </g>
  <g
     id="g2317"
     inkscape:label="q1fixed"
     transform="translate(0,600)">
    <path
       d="m 399.957,163.194 -6.443,-34.1 -121.044,-0.543 -6.443,34.643 6.148,34.643 h 121.633 z"
       style="fill:none;fill-opacity:0.546618;stroke:#6122e4;stroke-width:1.25973;stroke-miterlimit:4.4"
       id="path4" />
    <path
       d="m 278.175,128.633 18.543,69.204 18.544,-69.204 18.498,69.037 18.499,-69.037 18.454,68.871 18.454,-68.871"
       style="fill:none;fill-opacity:0.546618;stroke:#800080;stroke-width:2.19969;stroke-linejoin:bevel;stroke-miterlimit:4.4;stroke-dasharray:none;stroke-opacity:1"
       id="path30" />
    <path
       d="m 278.175,197.837 18.543,-69.204 18.544,69.204 18.498,-69.038 18.499,69.038 18.454,-68.872 18.454,68.872"
       style="fill:none;fill-opacity:0.546618;stroke:#800080;stroke-width:2.19969;stroke-linejoin:bevel;stroke-miterlimit:4.4;stroke-dasharray:none;stroke-opacity:1"
       id="path32" />
    <path
       d="m 226.385,128.626 26.484,0.652 0.617,68.38 -27.101,0.80886 z"
       style="fill:#333333;fill-opacity:0.370748;stroke:none;stroke-width:2.19969;stroke-linejoin:bevel;stroke-miterlimit:4.4"
       id="path44"
       sodipodi:nodetypes="ccccc" />
    <path
       d="m 226.385,128.626 h 181.058 l -0.364,69.144 -180.694,0.69686 z"
       style="fill:#333333;fill-opacity:0.370748;stroke:none;stroke-width:2.19969;stroke-linejoin:bevel;stroke-miterlimit:4.4"
       id="path58"
       sodipodi:nodetypes="ccccc" />
    <text
       xml:space="preserve"
       x="240.40945"
       y="107.64"
       style="font-size:18.6667px;font-family:'Arial Rounded MT Bold';-inkscape-font-specification:'Arial Rounded MT Bold, ';text-align:center;text-anchor:middle;fill:#333333;fill-opacity:0.370748;stroke:none;stroke-width:2.19969;stroke-linejoin:bevel;stroke-miterlimit:4.4"
       id="text62"><tspan
         x="240.40945"
         y="107.64"
         style="fill:#800080;fill-opacity:0.75"
         id="tspan60">tccq</tspan></text>
    <text
       xml:space="preserve"
       x="356.17395"
       y="107.80016"
       style="font-size:18.6667px;font-family:'Arial Rounded MT Bold';-inkscape-font-specification:'Arial Rounded MT Bold, ';text-align:center;text-anchor:middle;fill:#333333;fill-opacity:0.370748;stroke:none;stroke-width:2.19969;stroke-linejoin:bevel;stroke-miterlimit:4.4"
       id="text66"><tspan
         x="356.17395"
         y="107.80016"
         style="fill:#800080;fill-opacity:0.75"
         id="tspan64">tpcq</tspan></text>
    <path
       d="m 848.82223,163.35121 -6.443,-34.1 -121.044,-0.543 -6.443,34.643 6.148,34.643 h 121.633 z"
       style="fill:none;fill-opacity:0.546618;stroke:#6122e4;stroke-width:1.25973;stroke-miterlimit:4.4"
       id="path4-8" />
    <path
       d="m 727.04023,128.79021 18.543,69.204 18.544,-69.204 18.498,69.037 18.499,-69.037 18.454,68.871 18.454,-68.871"
       style="fill:none;fill-opacity:0.546618;stroke:#800080;stroke-width:2.19969;stroke-linejoin:bevel;stroke-miterlimit:4.4;stroke-dasharray:none;stroke-opacity:1"
       id="path30-3" />
    <path
       d="m 727.04023,197.99421 18.543,-69.204 18.544,69.204 18.498,-69.038 18.499,69.038 18.454,-68.872 18.454,68.872"
       style="fill:none;fill-opacity:0.546618;stroke:#800080;stroke-width:2.19969;stroke-linejoin:bevel;stroke-miterlimit:4.4;stroke-dasharray:none;stroke-opacity:1"
       id="path32-6" />
    <path
       d="m 681.25023,128.78321 26.484,0.652 0.617,68.38 -27.101,0.80886 z"
       style="fill:#333333;fill-opacity:0.370748;stroke:none;stroke-width:2.19969;stroke-linejoin:bevel;stroke-miterlimit:4.4"
       id="path44-5"
       sodipodi:nodetypes="ccccc" />
    <path
       d="m 681.25023,128.78321 h 186.69563 l -0.37533,69.144 -186.3203,0.69686 z"
       style="fill:#333333;fill-opacity:0.370748;stroke:none;stroke-width:2.23367;stroke-linejoin:bevel;stroke-miterlimit:4.4"
       id="path58-3"
       sodipodi:nodetypes="ccccc" />
    <text
       xml:space="preserve"
       x="702.42914"
       y="116.55244"
       style="font-size:18.6667px;font-family:'Arial Rounded MT Bold';-inkscape-font-specification:'Arial Rounded MT Bold, ';text-align:center;text-anchor:middle;fill:#333333;fill-opacity:0.370748;stroke:none;stroke-width:2.19969;stroke-linejoin:bevel;stroke-miterlimit:4.4"
       id="text62-0"><tspan
         x="702.42914"
         y="116.55244"
         style="fill:#800080;fill-opacity:0.75"
         id="tspan60-7">tccq</tspan></text>
    <text
       xml:space="preserve"
       x="836.18042"
       y="116.55244"
       style="font-size:18.6667px;font-family:'Arial Rounded MT Bold';-inkscape-font-specification:'Arial Rounded MT Bold, ';text-align:center;text-anchor:middle;fill:#333333;fill-opacity:0.370748;stroke:none;stroke-width:2.19969;stroke-linejoin:bevel;stroke-miterlimit:4.4"
       id="text66-7"><tspan
         x="836.18042"
         y="116.55244"
         style="fill:#800080;fill-opacity:0.75"
         id="tspan64-0">tpcq</tspan></text>
    <path
       d="m 1302.6912,163.50033 -6.443,-34.1 -121.044,-0.543 -6.443,34.643 6.148,34.643 h 121.633 z"
       style="fill:none;fill-opacity:0.546618;stroke:#6122e4;stroke-width:1.25973;stroke-miterlimit:4.4"
       id="path4-8-4" />
    <path
       d="m 1180.9092,128.93933 18.543,69.204 18.544,-69.204 18.498,69.037 18.499,-69.037 18.454,68.871 18.454,-68.871"
       style="fill:none;fill-opacity:0.546618;stroke:#800080;stroke-width:2.19969;stroke-linejoin:bevel;stroke-miterlimit:4.4;stroke-dasharray:none;stroke-opacity:1"
       id="path30-3-1" />
    <path
       d="m 1180.9092,198.14333 18.543,-69.204 18.544,69.204 18.498,-69.038 18.499,69.038 18.454,-68.872 18.454,68.872"
       style="fill:none;fill-opacity:0.546618;stroke:#800080;stroke-width:2.19969;stroke-linejoin:bevel;stroke-miterlimit:4.4;stroke-dasharray:none;stroke-opacity:1"
       id="path32-6-8" />
    <path
       d="m 1125.1192,128.93233 26.484,0.652 0.617,68.38 -27.101,0.80886 z"
       style="fill:#333333;fill-opacity:0.370748;stroke:none;stroke-width:2.19969;stroke-linejoin:bevel;stroke-miterlimit:4.4"
       id="path44-5-8"
       sodipodi:nodetypes="ccccc" />
    <path
       d="m 1125.1192,128.93233 h 194.2889 l -0.3907,69.144 -193.8982,0.69686 z"
       style="fill:#333333;fill-opacity:0.370748;stroke:none;stroke-width:2.27864;stroke-linejoin:bevel;stroke-miterlimit:4.4"
       id="path58-3-1"
       sodipodi:nodetypes="ccccc" />
    <path
       d="m 1757.3875,163.27256 -6.443,-34.1 -121.044,-0.543 -6.443,34.643 6.148,34.643 h 121.633 z"
       style="fill:none;fill-opacity:0.546618;stroke:#6122e4;stroke-width:1.25973;stroke-miterlimit:4.4"
       id="path4-8-4-7" />
    <path
       d="m 1635.6055,128.71156 18.543,69.204 18.544,-69.204 18.498,69.037 18.499,-69.037 18.454,68.871 18.454,-68.871"
       style="fill:none;fill-opacity:0.546618;stroke:#800080;stroke-width:2.19969;stroke-linejoin:bevel;stroke-miterlimit:4.4;stroke-dasharray:none;stroke-opacity:1"
       id="path30-3-1-8" />
    <path
       d="m 1635.6055,197.91556 18.543,-69.204 18.544,69.204 18.498,-69.038 18.499,69.038 18.454,-68.872 18.454,68.872"
       style="fill:none;fill-opacity:0.546618;stroke:#800080;stroke-width:2.19969;stroke-linejoin:bevel;stroke-miterlimit:4.4;stroke-dasharray:none;stroke-opacity:1"
       id="path32-6-8-1" />
    <path
       d="m 1579.8155,128.70456 26.484,0.652 0.617,68.38 -27.101,0.80886 z"
       style="fill:#333333;fill-opacity:0.370748;stroke:none;stroke-width:2.19969;stroke-linejoin:bevel;stroke-miterlimit:4.4"
       id="path44-5-8-6"
       sodipodi:nodetypes="ccccc" />
    <path
       d="m 1579.8155,128.70456 h 194.2889 l -0.3907,69.144 -193.8982,0.69686 z"
       style="fill:#333333;fill-opacity:0.370748;stroke:none;stroke-width:2.27864;stroke-linejoin:bevel;stroke-miterlimit:4.4"
       id="path58-3-1-6"
       sodipodi:nodetypes="ccccc" />
  </g>
  <g
     id="g2195"
     inkscape:label="estableCC"
     transform="translate(-246,-6)">
    <path
       d="m 922.028,290.413 -19.149,-33.507 -359.742,-0.534 -19.148,34.041 18.272,34.042 h 361.494 z"
       style="fill:none;fill-opacity:0.546618;stroke:#6122e4;stroke-width:3.25954;stroke-miterlimit:4.4;stroke-dasharray:none"
       id="path46" />
    <path
       d="m 1374.3895,292.34054 -19.149,-33.507 -359.74201,-0.534 -19.148,34.041 18.272,34.042 h 361.49401 z"
       style="fill:none;fill-opacity:0.546618;stroke:#6122e4;stroke-width:3.25954;stroke-miterlimit:4.4;stroke-dasharray:none"
       id="path46-8" />
    <path
       d="m 1827.5787,295.71754 -19.149,-33.507 -359.742,-0.534 -19.148,34.041 18.272,34.042 h 361.494 z"
       style="fill:none;fill-opacity:0.546618;stroke:#6122e4;stroke-width:3.25954;stroke-miterlimit:4.4;stroke-dasharray:none"
       id="path46-8-4" />
    <path
       d="m 2282.3211,295.71754 -19.149,-33.507 -359.742,-0.534 -19.148,34.041 18.272,34.042 h 361.494 z"
       style="fill:none;fill-opacity:0.546618;stroke:#6122e4;stroke-width:3.25954;stroke-miterlimit:4.4;stroke-dasharray:none"
       id="path46-8-4-3" />
  </g>
  <g
     id="g2287"
     inkscape:label="ccfixed"
     style="display:inline"
     transform="translate(-246,-6)">
    <path
       d="m 974.132,290.29 -2.57,-34.238 -48.277,-0.545 -2.57,34.784 2.452,34.784 h 48.513 z"
       style="fill:none;fill-opacity:0.546618;stroke:#6122e4;stroke-width:0.797191;stroke-miterlimit:4.4"
       id="path84" />
    <path
       d="m 925.745,255.73 13.568,69.204 13.568,-69.204 13.535,69.037"
       style="fill:none;fill-opacity:0.546618;stroke:#800080;stroke-width:1.8816;stroke-linejoin:bevel;stroke-miterlimit:4.4;stroke-dasharray:none;stroke-opacity:1"
       id="path88" />
    <path
       d="m 925.745,324.934 13.568,-69.204 13.568,69.204 13.535,-69.038"
       style="fill:none;fill-opacity:0.546618;stroke:#800080;stroke-width:1.8816;stroke-linejoin:bevel;stroke-miterlimit:4.4;stroke-dasharray:none;stroke-opacity:1"
       id="path90" />
    <path
       d="m 861.631,256.02869 h 41.36736 v 65.14617 H 861.631 Z"
       style="fill:#333333;fill-opacity:0.370748;stroke:none;stroke-width:1.92026;stroke-linejoin:bevel;stroke-miterlimit:4.4"
       id="path100" />
    <path
       d="m 861.631,256.02869 h 134.86126 v 68.60662 H 861.631 Z"
       style="fill:#333333;fill-opacity:0.370748;stroke:none;stroke-width:1.58418;stroke-linejoin:bevel;stroke-miterlimit:4.4"
       id="path102" />
    <text
       xml:space="preserve"
       x="880.41516"
       y="248.86058"
       style="font-size:18.6667px;font-family:'Arial Rounded MT Bold';-inkscape-font-specification:'Arial Rounded MT Bold, ';text-align:center;text-anchor:middle;fill:#333333;fill-opacity:0.370748;stroke:none;stroke-width:2.19969;stroke-linejoin:bevel;stroke-miterlimit:4.4"
       id="text106"><tspan
         x="880.41516"
         y="248.86058"
         style="fill:#800080;fill-opacity:0.75"
         id="tspan104">tcd</tspan></text>
    <text
       xml:space="preserve"
       x="955.01196"
       y="247.01488"
       style="font-size:18.6667px;font-family:'Arial Rounded MT Bold';-inkscape-font-specification:'Arial Rounded MT Bold, ';text-align:center;text-anchor:middle;fill:#333333;fill-opacity:0.370748;stroke:none;stroke-width:2.19969;stroke-linejoin:bevel;stroke-miterlimit:4.4"
       id="text110"><tspan
         x="955.01196"
         y="247.01488"
         style="fill:#800080;fill-opacity:0.75"
         id="tspan108">tpd</tspan></text>
    <path
       d="m 521.433,290.29 -2.57,-34.238 -48.278,-0.545 -2.57,34.784 2.453,34.784 h 48.513 z"
       style="fill:none;fill-opacity:0.546618;stroke:#6122e4;stroke-width:0.797191;stroke-miterlimit:4.4"
       id="path122" />
    <path
       d="m 473.046,255.73 13.568,69.204 13.568,-69.204 13.535,69.037"
       style="fill:none;fill-opacity:0.546618;stroke:#800080;stroke-width:1.8816;stroke-linejoin:bevel;stroke-miterlimit:4.4;stroke-dasharray:none;stroke-opacity:1"
       id="path124" />
    <path
       d="m 473.046,324.934 13.568,-69.204 13.568,69.204 13.535,-69.038"
       style="fill:none;fill-opacity:0.546618;stroke:#800080;stroke-width:1.8816;stroke-linejoin:bevel;stroke-miterlimit:4.4;stroke-dasharray:none;stroke-opacity:1"
       id="path126" />
    <path
       d="m 402.792,257.507 h 41.36736 v 65.14617 H 402.792 Z"
       style="fill:#333333;fill-opacity:0.370748;stroke:none;stroke-width:1.92026;stroke-linejoin:bevel;stroke-miterlimit:4.4"
       id="path100-8" />
    <path
       d="m 402.792,257.507 h 142.10965 v 68.60662 H 402.792 Z"
       style="fill:#333333;fill-opacity:0.370748;stroke:none;stroke-width:1.62619;stroke-linejoin:bevel;stroke-miterlimit:4.4"
       id="path102-7" />
    <text
       xml:space="preserve"
       x="421.57617"
       y="250.33888"
       style="font-size:18.6667px;font-family:'Arial Rounded MT Bold';-inkscape-font-specification:'Arial Rounded MT Bold, ';text-align:center;text-anchor:middle;fill:#333333;fill-opacity:0.370748;stroke:none;stroke-width:2.19969;stroke-linejoin:bevel;stroke-miterlimit:4.4"
       id="text106-3"><tspan
         x="421.57617"
         y="250.33888"
         style="fill:#800080;fill-opacity:0.75"
         id="tspan104-7">tcd</tspan></text>
    <text
       xml:space="preserve"
       x="496.17297"
       y="248.49318"
       style="font-size:18.6667px;font-family:'Arial Rounded MT Bold';-inkscape-font-specification:'Arial Rounded MT Bold, ';text-align:center;text-anchor:middle;fill:#333333;fill-opacity:0.370748;stroke:none;stroke-width:2.19969;stroke-linejoin:bevel;stroke-miterlimit:4.4"
       id="text110-2"><tspan
         x="496.17297"
         y="248.49318"
         style="fill:#800080;fill-opacity:0.75"
         id="tspan108-5">tpd</tspan></text>
    <path
       d="m 1427.3212,293.667 -2.57,-34.238 -48.277,-0.545 -2.57,34.784 2.452,34.784 h 48.513 z"
       style="fill:none;fill-opacity:0.546618;stroke:#6122e4;stroke-width:0.797191;stroke-miterlimit:4.4"
       id="path84-4" />
    <path
       d="m 1378.9342,259.107 13.568,69.204 13.568,-69.204 13.535,69.037"
       style="fill:none;fill-opacity:0.546618;stroke:#800080;stroke-width:1.8816;stroke-linejoin:bevel;stroke-miterlimit:4.4;stroke-dasharray:none;stroke-opacity:1"
       id="path88-6" />
    <path
       d="m 1378.9342,328.311 13.568,-69.204 13.568,69.204 13.535,-69.038"
       style="fill:none;fill-opacity:0.546618;stroke:#800080;stroke-width:1.8816;stroke-linejoin:bevel;stroke-miterlimit:4.4;stroke-dasharray:none;stroke-opacity:1"
       id="path90-7" />
    <path
       d="m 1314.8202,259.40569 h 41.3674 v 65.14617 h -41.3674 z"
       style="fill:#333333;fill-opacity:0.370748;stroke:none;stroke-width:1.92026;stroke-linejoin:bevel;stroke-miterlimit:4.4"
       id="path100-3" />
    <path
       d="m 1314.8202,259.40569 h 134.8613 v 68.60662 h -134.8613 z"
       style="fill:#333333;fill-opacity:0.370748;stroke:none;stroke-width:1.58418;stroke-linejoin:bevel;stroke-miterlimit:4.4"
       id="path102-1" />
    <text
       xml:space="preserve"
       x="1333.6045"
       y="252.23759"
       style="font-size:18.6667px;font-family:'Arial Rounded MT Bold';-inkscape-font-specification:'Arial Rounded MT Bold, ';text-align:center;text-anchor:middle;fill:#333333;fill-opacity:0.370748;stroke:none;stroke-width:2.19969;stroke-linejoin:bevel;stroke-miterlimit:4.4"
       id="text106-4"><tspan
         x="1333.6045"
         y="252.23759"
         style="fill:#800080;fill-opacity:0.75"
         id="tspan104-5">tcd</tspan></text>
    <text
       xml:space="preserve"
       x="1408.2013"
       y="250.39189"
       style="font-size:18.6667px;font-family:'Arial Rounded MT Bold';-inkscape-font-specification:'Arial Rounded MT Bold, ';text-align:center;text-anchor:middle;fill:#333333;fill-opacity:0.370748;stroke:none;stroke-width:2.19969;stroke-linejoin:bevel;stroke-miterlimit:4.4"
       id="text110-8"><tspan
         x="1408.2013"
         y="250.39189"
         style="fill:#800080;fill-opacity:0.75"
         id="tspan108-6">tpd</tspan></text>
    <path
       d="m 1882.0636,293.667 -2.57,-34.238 -48.277,-0.545 -2.57,34.784 2.452,34.784 h 48.513 z"
       style="fill:none;fill-opacity:0.546618;stroke:#6122e4;stroke-width:0.797191;stroke-miterlimit:4.4"
       id="path84-4-8" />
    <path
       d="m 1833.6766,259.107 13.568,69.204 13.568,-69.204 13.535,69.037"
       style="fill:none;fill-opacity:0.546618;stroke:#800080;stroke-width:1.8816;stroke-linejoin:bevel;stroke-miterlimit:4.4;stroke-dasharray:none;stroke-opacity:1"
       id="path88-6-8" />
    <path
       d="m 1833.6766,328.311 13.568,-69.204 13.568,69.204 13.535,-69.038"
       style="fill:none;fill-opacity:0.546618;stroke:#800080;stroke-width:1.8816;stroke-linejoin:bevel;stroke-miterlimit:4.4;stroke-dasharray:none;stroke-opacity:1"
       id="path90-7-9" />
    <path
       d="m 1769.5626,259.40569 h 41.3674 v 65.14617 h -41.3674 z"
       style="fill:#333333;fill-opacity:0.370748;stroke:none;stroke-width:1.92026;stroke-linejoin:bevel;stroke-miterlimit:4.4"
       id="path100-3-0" />
    <path
       d="m 1769.5626,259.40569 h 134.8613 v 68.60662 h -134.8613 z"
       style="fill:#333333;fill-opacity:0.370748;stroke:none;stroke-width:1.58418;stroke-linejoin:bevel;stroke-miterlimit:4.4"
       id="path102-1-2" />
    <text
       xml:space="preserve"
       x="1788.3468"
       y="252.23759"
       style="font-size:18.6667px;font-family:'Arial Rounded MT Bold';-inkscape-font-specification:'Arial Rounded MT Bold, ';text-align:center;text-anchor:middle;fill:#333333;fill-opacity:0.370748;stroke:none;stroke-width:2.19969;stroke-linejoin:bevel;stroke-miterlimit:4.4"
       id="text106-4-2"><tspan
         x="1788.3468"
         y="252.23759"
         style="fill:#800080;fill-opacity:0.75"
         id="tspan104-5-4">tcd</tspan></text>
    <text
       xml:space="preserve"
       x="1862.9436"
       y="250.39189"
       style="font-size:18.6667px;font-family:'Arial Rounded MT Bold';-inkscape-font-specification:'Arial Rounded MT Bold, ';text-align:center;text-anchor:middle;fill:#333333;fill-opacity:0.370748;stroke:none;stroke-width:2.19969;stroke-linejoin:bevel;stroke-miterlimit:4.4"
       id="text110-8-1"><tspan
         x="1862.9436"
         y="250.39189"
         style="fill:#800080;fill-opacity:0.75"
         id="tspan108-6-8">tpd</tspan></text>
  </g>
  <g
     id="g2202"
     inkscape:label="estableq2"
     transform="translate(0,-26)">
    <path
       d="m 709.94785,495.21605 3.77015,-34.96903 -3.95049,-34.4208 H 635.555 l -74.21251,-0.54823 -3.95099,34.96903 3.76966,34.96903 h 74.39334 z"
       style="fill:none;fill-opacity:0.546618;stroke:#6122e4;stroke-width:1.9166;stroke-miterlimit:4.4;stroke-dasharray:none"
       id="path172" />
    <path
       d="m 1166.374,459.825 -15.194,-33.764 -285.454,-0.538 -15.194,34.302 14.499,34.303 h 286.844 z"
       style="fill:none;fill-opacity:0.546618;stroke:#6122e4;stroke-width:2.7;stroke-miterlimit:4.4;stroke-dasharray:none"
       id="path176" />
    <path
       d="m 1619.5332,460.55434 -15.194,-33.764 -285.454,-0.538 -15.194,34.302 14.499,34.303 h 286.844 z"
       style="fill:none;fill-opacity:0.546618;stroke:#6122e4;stroke-width:2.7;stroke-miterlimit:4.4;stroke-dasharray:none"
       id="path176-2" />
    <path
       d="m 2066.6215,459.75034 -15.194,-33.764 -285.454,-0.538 -15.194,34.302 14.499,34.303 h 286.844 z"
       style="fill:none;fill-opacity:0.546618;stroke:#6122e4;stroke-width:2.7;stroke-miterlimit:4.4;stroke-dasharray:none"
       id="path176-4" />
    <path
       d="m 2518.2295,459.75434 -15.194,-33.764 -285.454,-0.538 -15.194,34.302 14.499,34.303 h 286.844 z"
       style="fill:none;fill-opacity:0.546618;stroke:#6122e4;stroke-width:2.7;stroke-miterlimit:4.4;stroke-dasharray:none"
       id="path176-9" />
    <path
       style="fill:none;fill-opacity:1;stroke:#6223e4;stroke-width:3;stroke-linejoin:bevel;stroke-miterlimit:4.4;stroke-opacity:0.666667"
       d="m 266.355,460.247 c 12.28398,-10.18761 9.77443,-28.08982 25.22806,-34.20663 0.71267,-1.42535 10.07416,8.30513 11.81217,10.73835 2.67028,3.73839 2.29186,9.95287 4.29535,13.95985 0.57717,1.15434 1.79312,1.98057 2.14767,3.2215 0.69318,2.42614 -0.0997,5.16987 1.07383,7.51685 1.09514,2.19027 3.22925,4.31082 4.29534,6.443 1.08283,2.16566 0.74024,3.4926 2.14767,5.36918 0.60745,0.80993 1.6949,1.24213 2.14767,2.14767 0.77729,1.55457 0.24179,4.77892 1.07384,6.44301 0.45276,0.90553 1.82751,1.1872 2.14766,2.14767 0.22639,0.67915 -0.22638,1.46851 0,2.14766 0.51792,1.55376 3.38274,1.39631 4.29534,3.22151 0.7406,1.4812 -1.30047,0.96051 1.07384,2.14767 2.20919,1.10459 5.35039,-4.27655 6.44301,-5.36918 0.56596,-0.56596 1.73587,-0.3875 2.14767,-1.07383 0.75931,-1.26553 0.49247,-2.93882 1.07383,-4.29534 0.50839,-1.18624 1.63928,-2.03527 2.14767,-3.2215 0.58136,-1.35652 0.60713,-2.89523 1.07384,-4.29534 1.07508,-3.22526 3.63539,-6.36478 4.29533,-9.66452 0.83927,-4.19633 0.50314,-8.00646 3.22151,-11.81218 1.75329,-2.45461 4.63517,-4.03256 6.44301,-6.44301 0.48023,-0.64031 0.45896,-1.63527 1.07383,-2.14767 1.6034,-1.33616 3.72167,-1.94011 5.36918,-3.2215 4.98188,-3.8748 8.28781,-11.19955 15.03368,-12.88602 4.92118,-1.23029 9.10512,6.95745 11.81219,9.66452 2.86355,2.86355 3.93739,1.07383 5.36917,5.36917 0.33958,1.01873 -0.2106,2.16852 0,3.2215 0.51105,2.55528 1.63661,4.96157 2.14767,7.51685 1.16042,5.80213 0.23027,12.50301 2.14767,18.25519 0.42953,1.2886 -0.42954,3.00674 0,4.29534 0.37076,1.1123 1.61501,2.15618 2.14767,3.2215 0.64031,1.28062 -0.45277,2.93703 0,4.29534 0.11319,0.33958 0.82073,-0.2531 1.07383,0 0.25311,0.25311 -0.16008,0.75368 0,1.07384 1.35886,2.71771 4.86763,3.76549 7.51685,4.29533 1.05298,0.2106 2.88192,1.01873 3.2215,0 0.80039,-2.40116 0.27345,-5.11567 1.07384,-7.51684 1.20211,-3.60634 3.3131,-4.07901 4.29533,-7.51684 2.05639,-7.19735 0.98905,-21.67451 10.73835,-23.62437 2.10596,-0.42119 4.32456,0.35308 6.44301,0 1.30098,-0.21683 6.14324,-2.44744 7.51684,-1.07383 5.35949,5.35948 1.2718,8.11072 3.22151,13.95985 1.56214,4.68642 5.77485,7.62662 9.66451,10.73835 1.61473,1.29178 3.21949,3.2215 5.36917,3.2215 1.43178,0 3.84258,1.35831 4.29534,0 0.33958,-1.01873 -0.295,-2.18898 0,-3.2215 0.45611,-1.59637 12.35749,-22.37435 12.88602,-22.55053 1.35831,-0.45277 2.89136,-0.2808 4.29534,0 3.46371,0.69274 7.23114,2.9358 9.66451,5.36917 1.13192,1.13192 1.01575,3.16342 2.14767,4.29534 2.53543,2.53542 -0.56473,-5.98954 2.14767,2.14767 0.66392,1.99175 0.76712,6.1363 2.14767,7.51684 0.0582,0.0582 3.16332,2.08948 3.22151,2.14767 0.50621,0.50621 -0.50621,1.64146 0,2.14767 0.50621,0.50621 1.64145,-0.50621 2.14767,0 0.42982,0.42983 0.58156,1.36462 2.14766,2.14767 0.85907,0.42954 2.36244,-0.42953 3.22151,0 1.55732,0.77866 2.24543,2.14767 4.29534,2.14767 4.31314,0 6.84691,-6.17699 8.59068,-9.66451 0.64031,-1.28062 -0.34726,-2.90631 0,-4.29534 0.53171,-2.12684 4.36272,-3.35628 5.36917,-5.36917 0.16008,-0.32016 -0.25311,-0.82073 0,-1.07384 3.29603,-3.29603 0.89287,0.6274 4.29534,-1.07383 1.83421,-0.91711 5.7221,-5.13389 8.59068,-3.22151 1.33193,0.88795 1.25971,2.96341 2.14767,4.29534 1.78073,2.6711 0.24674,0.12337 2.14767,1.07384 3.29905,1.64952 -1.77607,0.60567 2.14767,3.2215 3.13234,2.08823 2.71897,-1.62221 4.29534,-2.14767 1.01872,-0.33958 2.26103,0.48023 3.2215,0 1.82388,-0.91194 4.90851,-4.57755 3.79276,-0.15606"
       id="path3201"
       sodipodi:nodetypes="ccssssssssssssssssssssssssssssssssssssssssssssssssssssssssssssssssssssc" />
    <path
       style="fill:none;fill-opacity:1;stroke:#6223e4;stroke-width:3;stroke-linejoin:bevel;stroke-miterlimit:4.4;stroke-opacity:0.666667"
       d="m 713.718,460.24702 c 0.0448,-6.01475 2.33577,-11.9868 6.32513,-16.48838 1.33797,-1.50975 2.8545,-2.85506 4.1693,-4.38503 1.31481,-1.52997 2.44393,-3.29578 2.81062,-5.27948 0.11569,-0.62585 0.15521,-1.27052 0.36507,-1.87138 0.10493,-0.30043 0.25328,-0.58856 0.46141,-0.8293 0.20812,-0.24074 0.47853,-0.4326 0.78428,-0.52083 0.34703,-0.10015 0.71829,-0.0636 1.07383,0 2.19093,0.39216 4.12252,1.7882 5.45869,3.56826 1.33617,1.78006 2.12116,3.92155 2.59507,6.09626 0.26125,1.19886 0.43349,2.41664 0.72595,3.60827 0.29246,1.19163 0.71308,2.36998 1.42172,3.37165 0.37377,0.52834 0.82934,1.01154 1.07384,1.61076 0.20556,0.50378 0.2482,1.06103 0.2158,1.60417 -0.0324,0.54314 -0.13691,1.07897 -0.2158,1.61733 -0.39275,2.68003 -0.14658,5.43275 0.53691,8.05376 0.41733,1.60035 0.99965,3.18006 1.07384,4.83226 0.0482,1.07362 -0.12052,2.15358 0,3.2215 0.14465,1.28177 0.69884,2.48129 1.333,3.60454 0.63416,1.12325 1.3574,2.1999 1.8885,3.37539 0.66579,1.4736 1.01592,3.07248 1.65835,4.55641 0.32122,0.74196 0.71792,1.45723 1.24123,2.07354 0.52331,0.61631 1.17865,1.13203 1.93268,1.42381 0.92992,0.35984 1.98401,0.36188 2.93356,0.0576 0.94956,-0.30427 1.79361,-0.90542 2.43561,-1.66836 0.57666,-0.68529 0.9957,-1.49662 1.61076,-2.14767 0.61605,-0.6521 1.40047,-1.11432 2.14766,-1.61076 1.8244,-1.21215 3.49919,-2.69539 4.70277,-4.52546 1.20358,-1.83006 1.91279,-4.02931 1.74024,-6.21288 -0.0283,-0.35838 -0.0795,-0.72324 0,-1.07384 0.1,-0.44122 0.39592,-0.81085 0.71036,-1.13612 0.31444,-0.32526 0.65991,-0.62836 0.9004,-1.01155 0.25753,-0.41034 0.37971,-0.88852 0.50848,-1.35555 0.12877,-0.46703 0.27323,-0.94255 0.56535,-1.32903 0.30568,-0.40442 0.75169,-0.68241 1.07384,-1.07384 0.30811,-0.37438 0.48953,-0.83614 0.6324,-1.29948 0.14288,-0.46334 0.25279,-0.93844 0.44143,-1.38511 0.42208,-0.9994 1.20993,-1.79458 2.01628,-2.52035 0.80636,-0.72578 1.66035,-1.42075 2.27906,-2.3119 0.36841,-0.53064 0.64848,-1.12456 1.07383,-1.61075 0.46294,-0.52915 1.07303,-0.90281 1.66048,-1.28908 0.58746,-0.38627 1.17578,-0.80738 1.56103,-1.39551 0.21987,-0.33567 0.36514,-0.71348 0.51616,-1.08524 0.15102,-0.37177 0.31203,-0.74513 0.55767,-1.06243 0.31303,-0.40434 0.7562,-0.70151 1.24152,-0.86257 0.48532,-0.16106 1.01092,-0.18864 1.51544,-0.10532 1.00902,0.16663 1.90667,0.76448 2.61222,1.50481 0.96231,1.00975 1.61237,2.29184 1.98521,3.63595 0.37284,1.34411 0.47756,2.75138 0.44063,4.14576 -0.0739,2.78874 -0.70476,5.53827 -0.81509,8.32581 -0.0637,1.60969 0.0466,3.22198 0,4.83225 -0.0485,1.67462 -0.26465,3.374 0.0994,5.00928 0.18203,0.81765 0.51363,1.61183 1.04108,2.26258 0.52746,0.65074 1.26041,1.15059 2.081,1.31882 0.28309,0.058 0.57339,0.0768 0.85516,0.14103 0.28176,0.0642 0.56297,0.18047 0.7556,0.39589 0.13398,0.14983 0.21666,0.33779 0.28956,0.52511 0.0729,0.18732 0.13912,0.37935 0.24735,0.54872 0.2076,0.32488 0.56407,0.54348 0.94384,0.61 0.37977,0.0665 0.77852,-0.013 1.11888,-0.1941 0.34037,-0.1811 0.62377,-0.45984 0.83693,-0.7811 0.21316,-0.32127 0.35821,-0.68433 0.45592,-1.05729 0.19541,-0.74592 0.20413,-1.52577 0.27822,-2.2933 0.0741,-0.76753 0.22499,-1.55469 0.66155,-2.1903 0.4308,-0.62722 1.0984,-1.04818 1.61075,-1.61075 0.66305,-0.72804 1.05188,-1.70011 1.07384,-2.68459 l 3.2215,-4.83225 c -0.20437,-0.69634 -0.20437,-1.45133 0,-2.14767 0.2186,-0.74481 0.65934,-1.40565 1.15281,-2.00483 0.49347,-0.59919 1.04493,-1.14902 1.53178,-1.75359 1.40999,-1.75095 2.2268,-3.89003 3.2215,-5.90609 1.59582,-3.2344 3.69952,-6.24036 4.83226,-9.66452 0.17778,-0.53742 0.33097,-1.08349 0.53692,-1.61075 0.90972,-2.32901 2.78664,-4.14478 4.77498,-5.66082 1.98834,-1.51604 4.14974,-2.81938 5.96337,-4.54061 1.0106,-0.95912 1.91159,-2.0464 3.04787,-2.85268 0.56815,-0.40314 1.19495,-0.73304 1.86861,-0.91048 0.67367,-0.17744 1.39677,-0.19738 2.06344,0.005 0.87727,0.26596 1.6156,0.90888 2.08507,1.69623 0.46947,0.78736 0.68308,1.71014 0.70781,2.62651 0.0494,1.83272 -0.62247,3.59588 -1.18213,5.34177 -3.26953,10.19948 -2.88412,21.36304 0,31.67813 0.56488,2.02029 1.22586,4.02171 2.14767,5.90609 0.69096,1.41248 1.52429,2.75078 2.2419,4.14991 0.71762,1.39912 1.32459,2.8801 1.51653,4.44077 0.0766,0.62283 0.0863,1.25225 0.15649,1.87584 0.0702,0.62359 0.20482,1.25104 0.51094,1.79884 0.15306,0.2739 0.34853,0.52556 0.58658,0.72997 0.23804,0.20441 0.51933,0.3608 0.82288,0.44021 0.30355,0.0794 0.62937,0.0802 0.92914,-0.0124 0.29978,-0.0926 0.57175,-0.28054 0.75239,-0.53709 0.13283,-0.18864 0.2148,-0.41035 0.25458,-0.63761 0.0398,-0.22725 0.0384,-0.46031 0.0141,-0.68974 -0.0485,-0.45887 -0.18708,-0.90308 -0.26872,-1.35723 -0.16415,-0.91314 -0.0951,-1.85815 0.11571,-2.76166 0.21084,-0.9035 0.56067,-1.76919 0.95812,-2.60752 0.36756,-0.77528 0.77737,-1.53174 1.09452,-2.32896 0.31715,-0.79723 0.54142,-1.64566 0.51623,-2.50329 -0.0158,-0.53893 -0.12888,-1.08722 0,-1.61075 0.078,-0.31678 0.24168,-0.60695 0.436,-0.869 0.19432,-0.26205 0.41983,-0.49907 0.63784,-0.74176 0.86016,-0.95753 1.616,-2.02224 2.11824,-3.20735 0.50224,-1.18511 0.74284,-2.49759 0.56635,-3.77257 -0.0626,-0.45248 -0.17677,-0.89757 -0.21799,-1.3525 -0.0412,-0.45493 -0.004,-0.93276 0.21799,-1.33209 0.13114,-0.2361 0.32433,-0.43738 0.55486,-0.57808"
       id="path3600"
       inkscape:path-effect="#path-effect3602"
       inkscape:original-d="m 713.718,460.24702 c 1.76584,-5.4995 2.92653,-11.63324 6.32513,-16.48838 2.24959,-3.2137 4.97321,-6.31999 6.97992,-9.66451 0.40538,-0.67563 1.20466,-2.81541 1.61076,-3.22151 0.2531,-0.2531 0.71589,0 1.07383,0 4.41364,0 6.25404,6.42502 8.05376,9.66452 1.27752,2.29953 1.14618,4.6431 2.14767,6.97992 0.2542,0.59312 0.93385,0.98083 1.07384,1.61076 0.23294,1.04826 -0.067,2.14976 0,3.2215 0.16783,2.68531 0.23979,5.37967 0.53691,8.05376 0.18222,1.63995 0.89162,3.1923 1.07384,4.83226 0.11858,1.06726 -0.33958,2.20277 0,3.2215 0.80475,2.41425 2.40569,4.53248 3.2215,6.97993 0.72294,2.16881 2.48363,6.87944 4.83226,8.05376 0.54182,0.27091 4.97479,-1.34783 5.36917,-1.61075 2.89653,-1.93102 -0.36979,-0.16712 1.61076,-2.14767 0.63276,-0.63277 1.5149,-0.97799 2.14766,-1.61076 1.33254,-1.33253 5.61781,-8.67534 6.44301,-10.73834 0.13294,-0.33235 -0.16007,-0.75368 0,-1.07384 0.4002,-0.80039 1.17617,-1.36542 1.61076,-2.14767 0.46806,-0.84251 0.59565,-1.84778 1.07383,-2.68458 0.25115,-0.43952 0.82268,-0.63433 1.07384,-1.07384 0.47817,-0.83681 0.64281,-1.82254 1.07383,-2.68459 1.00523,-2.01046 2.89621,-3.1533 4.29534,-4.83225 0.41311,-0.49573 0.61754,-1.15446 1.07383,-1.61075 3.47595,-3.47595 -0.29688,1.71339 3.22151,-2.68459 0.5,-0.625 0.5936,-1.50736 1.07383,-2.14767 1.75707,-2.34275 4.08251,-2.03641 5.36918,0.53692 2.416,4.83199 1.61075,10.85269 1.61075,16.10752 0,1.35596 -0.33876,3.47724 0,4.83225 0.75587,3.0235 1.77157,5.69081 3.2215,8.59068 0.56407,1.12814 1.06341,-0.0104 1.61076,0.53692 0.0575,0.0575 -0.20793,1.44625 0.53691,1.07383 2.18736,-1.09368 2.8232,-4.13951 4.29534,-5.90609 0.4861,-0.58332 1.20832,-0.96685 1.61075,-1.61075 0.51081,-0.8173 0.59566,-1.84778 1.07384,-2.68459 1.07383,-1.61075 2.14767,-3.2215 3.2215,-4.83225 0,-0.71589 -0.29623,-1.49595 0,-2.14767 0.63709,-1.40158 1.8777,-2.44723 2.68459,-3.75842 1.1753,-1.90986 2.15833,-3.93162 3.2215,-5.90609 1.70759,-3.17124 3.32292,-6.39427 4.83226,-9.66452 0.23717,-0.51387 0.23696,-1.13082 0.53692,-1.61075 2.66145,-4.25832 7.07984,-6.94943 10.73835,-10.20143 1.65821,-1.47397 4.05698,-5.21989 6.97992,-3.75842 2.4603,1.23015 1.75186,7.54794 1.61075,9.66451 -0.71483,10.72252 -1.75929,21.12236 0,31.67813 0.34065,2.04387 1.65324,3.92837 2.14767,5.90609 1.06691,4.26762 0.48269,5.31494 3.75843,8.59068 0.84556,0.84556 3.5588,4.29533 3.75842,4.29533 0.0531,0 -0.11295,-2.23281 0,-2.68458 0.4592,-1.83681 0.5531,-3.54661 1.07383,-5.36918 0.46797,-1.63789 1.19991,-3.18888 1.61075,-4.83225 0.17898,-0.71589 -0.35794,-0.71589 0,-1.61075 0.23966,-0.59915 0.78525,-1.03359 1.07384,-1.61076 1.11976,-2.23953 1.64691,-4.90457 2.68459,-6.97992 0.27314,-0.5463 -0.42567,-2.25892 0,-2.68459 0.66119,-0.6612 0.51219,0.7964 0.55486,-0.57808" />
  </g>
  <g
     id="g2249"
     style="display:inline"
     inkscape:label="q2fixed"
     transform="translate(0,-26)">
    <path
       d="m 676.899,425.565 26.484,0.652 0.617,68.38 -27.101,0.80886 z"
       style="fill:#333333;fill-opacity:0.370748;stroke:none;stroke-width:2.19969;stroke-linejoin:bevel;stroke-miterlimit:4.4"
       id="path44-1"
       sodipodi:nodetypes="ccccc" />
    <path
       d="m 1301.8552,460.54934 -6.443,-34.098 -121.044,-0.544 -6.443,34.643 6.148,34.643 h 121.633 z"
       style="fill:none;fill-opacity:0.546618;stroke:#6122e4;stroke-width:1.25973;stroke-miterlimit:4.4"
       id="path174-8" />
    <path
       d="m 1180.0732,425.98934 18.543,69.204 18.543,-69.204 18.499,69.037 18.499,-69.037 18.454,68.872 18.454,-68.872"
       style="fill:none;fill-opacity:0.546618;stroke:#800080;stroke-width:2.19969;stroke-linejoin:bevel;stroke-miterlimit:4.4;stroke-dasharray:none;stroke-opacity:1"
       id="path178-5" />
    <path
       d="m 1180.0732,495.19334 18.543,-69.204 18.543,69.204 18.499,-69.038 18.499,69.038 18.454,-68.872 18.454,68.872"
       style="fill:none;fill-opacity:0.546618;stroke:#800080;stroke-width:2.19969;stroke-linejoin:bevel;stroke-miterlimit:4.4;stroke-dasharray:none;stroke-opacity:1"
       id="path180-7" />
    <text
       xml:space="preserve"
       x="1259.8472"
       y="405.46848"
       style="font-size:18.6667px;font-family:'Arial Rounded MT Bold';-inkscape-font-specification:'Arial Rounded MT Bold, ';text-align:center;text-anchor:middle;fill:#333333;fill-opacity:0.370748;stroke:none;stroke-width:2.19969;stroke-linejoin:bevel;stroke-miterlimit:4.4"
       id="text66-2-7"><tspan
         x="1259.8472"
         y="405.46848"
         style="fill:#800080;fill-opacity:0.75"
         id="tspan64-96-4">tpcq</tspan></text>
    <path
       d="m 1748.9435,459.74534 -6.443,-34.098 -121.044,-0.544 -6.443,34.643 6.148,34.643 h 121.633 z"
       style="fill:none;fill-opacity:0.546618;stroke:#6122e4;stroke-width:1.25973;stroke-miterlimit:4.4"
       id="path174-6" />
    <path
       d="m 1627.1615,425.18534 18.543,69.204 18.543,-69.204 18.499,69.037 18.499,-69.037 18.454,68.872 18.454,-68.872"
       style="fill:none;fill-opacity:0.546618;stroke:#800080;stroke-width:2.19969;stroke-linejoin:bevel;stroke-miterlimit:4.4;stroke-dasharray:none;stroke-opacity:1"
       id="path178-2" />
    <path
       d="m 1627.1615,494.38934 18.543,-69.204 18.543,69.204 18.499,-69.038 18.499,69.038 18.454,-68.872 18.454,68.872"
       style="fill:none;fill-opacity:0.546618;stroke:#800080;stroke-width:2.19969;stroke-linejoin:bevel;stroke-miterlimit:4.4;stroke-dasharray:none;stroke-opacity:1"
       id="path180-5" />
    <path
       d="m 1577.1465,425.49034 26.484,0.652 0.617,68.38 -27.101,0.80886 z"
       style="fill:#333333;fill-opacity:0.370748;stroke:none;stroke-width:2.19969;stroke-linejoin:bevel;stroke-miterlimit:4.4"
       id="path44-1-41"
       sodipodi:nodetypes="ccccc" />
    <path
       d="m 1577.1465,425.49034 h 191.0469 l -0.3841,69.144 -190.6628,0.69686 z"
       style="fill:#333333;fill-opacity:0.370748;stroke:none;stroke-width:2.25955;stroke-linejoin:bevel;stroke-miterlimit:4.4"
       id="path58-5-1"
       sodipodi:nodetypes="ccccc" />
    <text
       xml:space="preserve"
       x="1591.171"
       y="404.50436"
       style="font-size:18.6667px;font-family:'Arial Rounded MT Bold';-inkscape-font-specification:'Arial Rounded MT Bold, ';text-align:center;text-anchor:middle;fill:#333333;fill-opacity:0.370748;stroke:none;stroke-width:2.19969;stroke-linejoin:bevel;stroke-miterlimit:4.4"
       id="text62-1-4"><tspan
         x="1591.171"
         y="404.50436"
         style="fill:#800080;fill-opacity:0.75"
         id="tspan60-2-3">tccq</tspan></text>
    <text
       xml:space="preserve"
       x="1706.9355"
       y="404.66452"
       style="font-size:18.6667px;font-family:'Arial Rounded MT Bold';-inkscape-font-specification:'Arial Rounded MT Bold, ';text-align:center;text-anchor:middle;fill:#333333;fill-opacity:0.370748;stroke:none;stroke-width:2.19969;stroke-linejoin:bevel;stroke-miterlimit:4.4"
       id="text66-2-4"><tspan
         x="1706.9355"
         y="404.66452"
         style="fill:#800080;fill-opacity:0.75"
         id="tspan64-96-7">tpcq</tspan></text>
    <path
       d="m 2200.5515,459.74934 -6.443,-34.098 -121.044,-0.544 -6.443,34.643 6.148,34.643 h 121.633 z"
       style="fill:none;fill-opacity:0.546618;stroke:#6122e4;stroke-width:1.25973;stroke-miterlimit:4.4"
       id="path174-3" />
    <path
       d="m 2078.7695,425.18934 18.543,69.204 18.543,-69.204 18.499,69.037 18.499,-69.037 18.454,68.872 18.454,-68.872"
       style="fill:none;fill-opacity:0.546618;stroke:#800080;stroke-width:2.19969;stroke-linejoin:bevel;stroke-miterlimit:4.4;stroke-dasharray:none;stroke-opacity:1"
       id="path178-50" />
    <path
       d="m 2078.7695,494.39334 18.543,-69.204 18.543,69.204 18.499,-69.038 18.499,69.038 18.454,-68.872 18.454,68.872"
       style="fill:none;fill-opacity:0.546618;stroke:#800080;stroke-width:2.19969;stroke-linejoin:bevel;stroke-miterlimit:4.4;stroke-dasharray:none;stroke-opacity:1"
       id="path180-1" />
    <path
       d="m 2028.7545,425.49434 26.484,0.652 0.617,68.38 -27.101,0.80886 z"
       style="fill:#333333;fill-opacity:0.370748;stroke:none;stroke-width:2.19969;stroke-linejoin:bevel;stroke-miterlimit:4.4"
       id="path44-1-5"
       sodipodi:nodetypes="ccccc" />
    <path
       d="m 2028.7545,425.49434 h 191.0469 l -0.3841,69.144 -190.6628,0.69686 z"
       style="fill:#333333;fill-opacity:0.370748;stroke:none;stroke-width:2.25955;stroke-linejoin:bevel;stroke-miterlimit:4.4"
       id="path58-5-9"
       sodipodi:nodetypes="ccccc" />
    <text
       xml:space="preserve"
       x="2042.7789"
       y="404.50839"
       style="font-size:18.6667px;font-family:'Arial Rounded MT Bold';-inkscape-font-specification:'Arial Rounded MT Bold, ';text-align:center;text-anchor:middle;fill:#333333;fill-opacity:0.370748;stroke:none;stroke-width:2.19969;stroke-linejoin:bevel;stroke-miterlimit:4.4"
       id="text62-1-6"><tspan
         x="2042.7789"
         y="404.50839"
         style="fill:#800080;fill-opacity:0.75"
         id="tspan60-2-8">tccq</tspan></text>
    <text
       xml:space="preserve"
       x="2158.5435"
       y="404.66855"
       style="font-size:18.6667px;font-family:'Arial Rounded MT Bold';-inkscape-font-specification:'Arial Rounded MT Bold, ';text-align:center;text-anchor:middle;fill:#333333;fill-opacity:0.370748;stroke:none;stroke-width:2.19969;stroke-linejoin:bevel;stroke-miterlimit:4.4"
       id="text66-2-3"><tspan
         x="2158.5435"
         y="404.66855"
         style="fill:#800080;fill-opacity:0.75"
         id="tspan64-96-2">tpcq</tspan></text>
  </g>
  <text
     xml:space="preserve"
     style="font-size:48px;font-family:'Arial Rounded MT Bold';-inkscape-font-specification:'Arial Rounded MT Bold, ';text-align:center;text-anchor:middle;fill:none;fill-opacity:0.75;stroke:#000000;stroke-width:3;stroke-linejoin:bevel;stroke-miterlimit:4.4"
     x="60.245266"
     y="53.254986"
     id="text734"><tspan
       sodipodi:role="line"
       id="tspan732"
       x="60.245266"
       y="53.254986"
       style="font-style:normal;font-variant:normal;font-weight:normal;font-stretch:normal;font-size:48px;font-family:'Agency FB';-inkscape-font-specification:'Agency FB';fill:#000000;fill-opacity:1;stroke:#000000;stroke-opacity:1">Clock</tspan></text>
  <text
     xml:space="preserve"
     style="font-size:48px;font-family:'Arial Rounded MT Bold';-inkscape-font-specification:'Arial Rounded MT Bold, ';text-align:center;text-anchor:middle;fill:none;fill-opacity:0.75;stroke:#000000;stroke-width:3;stroke-linejoin:bevel;stroke-miterlimit:4.4"
     x="60.245266"
     y="155.14713"
     id="text734-2"><tspan
       sodipodi:role="line"
       id="tspan732-4"
       x="60.245266"
       y="155.14713"
       style="font-style:normal;font-variant:normal;font-weight:normal;font-stretch:normal;font-size:48px;font-family:'Agency FB';-inkscape-font-specification:'Agency FB';fill:#000000;fill-opacity:1;stroke:#000000;stroke-opacity:1">Async</tspan></text>
  <text
     xml:space="preserve"
     style="font-size:48px;font-family:'Arial Rounded MT Bold';-inkscape-font-specification:'Arial Rounded MT Bold, ';text-align:center;text-anchor:middle;fill:none;fill-opacity:0.75;stroke:#000000;stroke-width:3;stroke-linejoin:bevel;stroke-miterlimit:4.4"
     x="79.19751"
     y="448.26215"
     id="text734-2-3"><tspan
       sodipodi:role="line"
       id="tspan732-4-4"
       x="79.19751"
       y="448.26215"
       style="font-style:normal;font-variant:normal;font-weight:normal;font-stretch:normal;font-size:48px;font-family:'Agency FB';-inkscape-font-specification:'Agency FB';fill:#000000;fill-opacity:1;stroke:#000000;stroke-opacity:1">Q FlipFlop</tspan></text>
  <text
     xml:space="preserve"
     style="font-size:48px;font-family:'Arial Rounded MT Bold';-inkscape-font-specification:'Arial Rounded MT Bold, ';text-align:center;text-anchor:middle;fill:none;fill-opacity:0.75;stroke:#000000;stroke-width:3;stroke-linejoin:bevel;stroke-miterlimit:4.4"
     x="60.245266"
     y="303.20752"
     id="text734-2-0"><tspan
       sodipodi:role="line"
       id="tspan732-4-6"
       x="60.245266"
       y="303.20752"
       style="font-style:normal;font-variant:normal;font-weight:normal;font-stretch:normal;font-size:48px;font-family:'Agency FB';-inkscape-font-specification:'Agency FB';fill:#000000;fill-opacity:1;stroke:#000000;stroke-opacity:1">CC</tspan></text>
</svg>
